<svg width="28" height="108" viewBox="0 0 28 108" xmlns="http://www.w3.org/2000/svg"><title>2D4158BF-41D2-401A-81DC-82807B0402F0</title><g fill="none" fill-rule="evenodd"><path d="M26.455 0H1.545C.692 0 0 .692 0 1.545v24.91C0 27.308.692 28 1.545 28h13.41V17.157h-3.648v-4.226h3.649V9.815c0-3.617 2.208-5.586 5.435-5.586 1.545 0 2.873.115 3.26.166v3.78l-2.237.001c-1.755 0-2.094.834-2.094 2.057v2.698h4.184l-.545 4.226h-3.64V28h7.136c.853 0 1.545-.692 1.545-1.545V1.545C28 .692 27.308 0 26.455 0" opacity=".87" fill="#0066B3"/><path d="M26.455 40H1.545C.692 40 0 40.692 0 41.545v24.91C0 67.308.692 68 1.545 68h13.41V57.157h-3.648v-4.226h3.649v-3.116c0-3.617 2.208-5.586 5.435-5.586 1.545 0 2.873.115 3.26.166v3.78l-2.237.001c-1.755 0-2.094.834-2.094 2.057v2.698h4.184l-.545 4.226h-3.64V68h7.136c.853 0 1.545-.692 1.545-1.545v-24.91c0-.853-.692-1.545-1.545-1.545" fill="#0066B3"/><path d="M26.455 80H1.545C.692 80 0 80.692 0 81.545v24.91C0 107.308.692 108 1.545 108h13.41V97.157h-3.648v-4.226h3.649v-3.116c0-3.617 2.208-5.586 5.435-5.586 1.545 0 2.873.115 3.26.166v3.78l-2.237.001c-1.755 0-2.094.834-2.094 2.057v2.698h4.184l-.545 4.226h-3.64V108h7.136c.853 0 1.545-.692 1.545-1.545v-24.91c0-.853-.692-1.545-1.545-1.545" fill="#005494"/></g></svg>