<svg width="28" height="28" viewBox="0 0 28 28" xmlns="http://www.w3.org/2000/svg"><title>66A087BD-5A56-4672-AC62-35155A04B0C1</title><path d="M26.455 0H1.545C.692 0 0 .692 0 1.545v24.91C0 27.308.692 28 1.545 28h13.41V17.157h-3.648v-4.226h3.649V9.815c0-3.617 2.208-5.586 5.435-5.586 1.545 0 2.873.115 3.26.166v3.78l-2.237.001c-1.755 0-2.094.834-2.094 2.057v2.698h4.184l-.545 4.226h-3.64V28h7.136c.853 0 1.545-.692 1.545-1.545V1.545C28 .692 27.308 0 26.455 0" fill="#FFF" fill-rule="evenodd" opacity=".7"/></svg>