<svg width="28" height="28" viewBox="0 0 28 28" xmlns="http://www.w3.org/2000/svg" xmlns:xlink="http://www.w3.org/1999/xlink"><title>025E4B33-1F3A-40C1-B43F-DC3685E21358</title><defs><path id="a" d="M0 27.994h28V0H0z"/></defs><g fill="none" fill-rule="evenodd"><mask id="b" fill="#fff"><use xlink:href="#a"/></mask><path d="M24.889 7.778c0 .43-.348.778-.778.778h-3.889a.778.778 0 0 1-.778-.778v-3.89c0-.429.349-.777.778-.777h3.89c.429 0 .777.348.777.778v3.889zm0 16.333c0 .43-.348.778-.778.778H3.89a.778.778 0 0 1-.778-.778V11.667h2.656a8.556 8.556 0 1 0 16.467 0h2.655V24.11zM14 8.556a5.444 5.444 0 1 1 0 10.888 5.444 5.444 0 0 1 0-10.888zM24.111 0H3.89A3.889 3.889 0 0 0 0 3.889V24.11A3.889 3.889 0 0 0 3.889 28H24.11A3.889 3.889 0 0 0 28 24.111V3.89A3.889 3.889 0 0 0 24.111 0z" fill="#005494" mask="url(#b)"/></g></svg>