<svg width="24" height="100" viewBox="0 0 24 100" xmlns="http://www.w3.org/2000/svg"><title>7D50CAE9-FA9C-4D1D-B00A-DE936535917A</title><defs><path id="a" d="M0 0h28v28H0"/><path id="b" d="M0 0h28v28H0"/><path id="c" d="M0 0h28v28H0"/></defs><g fill="none" fill-rule="evenodd"><g opacity=".87"><path d="M23.615 2.906a9.55 9.55 0 0 1-2.744.753 4.79 4.79 0 0 0 2.1-2.643 9.566 9.566 0 0 1-3.033 1.16 4.777 4.777 0 0 0-8.14 4.356C7.83 6.332 4.311 4.43 1.955 1.54a4.754 4.754 0 0 0-.647 2.401c0 1.657.844 3.12 2.125 3.976A4.757 4.757 0 0 1 1.27 7.32v.06A4.78 4.78 0 0 0 5.1 12.065a4.783 4.783 0 0 1-2.157.082 4.781 4.781 0 0 0 4.462 3.317 9.584 9.584 0 0 1-5.932 2.045c-.386 0-.766-.023-1.14-.067a13.52 13.52 0 0 0 7.322 2.146c8.786 0 13.59-7.278 13.59-13.59 0-.207-.004-.413-.014-.618a9.708 9.708 0 0 0 2.384-2.473" fill="#0066B3"/></g><path d="M23.615 42.906a9.55 9.55 0 0 1-2.744.753 4.79 4.79 0 0 0 2.1-2.643 9.566 9.566 0 0 1-3.033 1.16 4.777 4.777 0 0 0-8.14 4.356c-3.969-.2-7.488-2.101-9.844-4.991a4.754 4.754 0 0 0-.647 2.401c0 1.657.844 3.12 2.125 3.976a4.757 4.757 0 0 1-2.163-.598v.06A4.78 4.78 0 0 0 5.1 52.065a4.783 4.783 0 0 1-2.157.082 4.781 4.781 0 0 0 4.462 3.317 9.584 9.584 0 0 1-5.932 2.045c-.386 0-.766-.023-1.14-.067a13.52 13.52 0 0 0 7.322 2.146c8.786 0 13.59-7.278 13.59-13.59 0-.207-.004-.413-.014-.618a9.708 9.708 0 0 0 2.384-2.473" fill="#0066B3"/><g><path d="M23.615 82.906a9.55 9.55 0 0 1-2.744.753 4.79 4.79 0 0 0 2.1-2.643 9.566 9.566 0 0 1-3.033 1.16 4.777 4.777 0 0 0-8.14 4.356c-3.969-.2-7.488-2.101-9.844-4.991a4.754 4.754 0 0 0-.647 2.401c0 1.657.844 3.12 2.125 3.976a4.757 4.757 0 0 1-2.163-.598v.06A4.78 4.78 0 0 0 5.1 92.065a4.783 4.783 0 0 1-2.157.082 4.781 4.781 0 0 0 4.462 3.317 9.584 9.584 0 0 1-5.932 2.045c-.386 0-.766-.023-1.14-.067a13.52 13.52 0 0 0 7.322 2.146c8.786 0 13.59-7.278 13.59-13.59 0-.207-.004-.413-.014-.618a9.708 9.708 0 0 0 2.384-2.473" fill="#005494"/></g></g></svg>