<svg width="28" height="28" viewBox="0 0 28 28" xmlns="http://www.w3.org/2000/svg"><title>096A582F-1394-4D13-B0DC-D09230CEEE5F</title><path d="M4.314.003h19.37a4.314 4.314 0 0 1 4.313 4.314v19.369A4.314 4.314 0 0 1 23.683 28H4.314A4.314 4.314 0 0 1 0 23.686V4.316A4.314 4.314 0 0 1 4.314.004zm9.45 19.599h1.145s.346-.038.523-.229c.162-.175.157-.503.157-.503s-.022-1.536.69-1.763c.704-.223 1.607 1.485 2.564 2.142.723.497 1.273.388 1.273.388l2.559-.035s1.338-.083.704-1.135c-.052-.086-.37-.779-1.903-2.202-1.605-1.489-1.39-1.248.543-3.824 1.177-1.568 1.648-2.526 1.5-2.936-.14-.391-1.005-.288-1.005-.288l-2.881.018s-.214-.03-.372.066c-.155.092-.254.309-.254.309s-.456 1.214-1.064 2.246c-1.283 2.178-1.796 2.294-2.006 2.158-.488-.315-.366-1.266-.366-1.942 0-2.111.32-2.991-.624-3.22-.313-.075-.543-.125-1.344-.133-1.028-.01-1.898.003-2.39.245-.329.16-.582.518-.427.538.19.026.621.117.85.428.295.401.285 1.303.285 1.303s.17 2.486-.396 2.794c-.389.212-.921-.22-2.065-2.197C8.874 10.818 8.43 9.7 8.43 9.7s-.085-.21-.237-.321c-.185-.136-.443-.179-.443-.179l-2.737.018s-.411.012-.562.19c-.135.16-.011.488-.011.488s2.143 5.015 4.57 7.542c2.226 2.317 4.753 2.165 4.753 2.165z" fill="#0066B3" fill-rule="evenodd" opacity=".87"/></svg>