<svg width="22" height="10" viewBox="0 0 22 10" xmlns="http://www.w3.org/2000/svg" xmlns:xlink="http://www.w3.org/1999/xlink"><title>584F077F-FB06-4887-930D-D43D125CA9F0</title><defs><path d="M1.076 1.03c-.554.006-.901.436-.773.974l.491 2.052c.127.532.68.958 1.233.952l2.05-.023c.553-.007 1.19-.41 1.43-.921l1.034-2.188c.237-.503-.024-.905-.574-.899l-4.891.053z" id="a"/><mask id="c" x="-2" y="-2" width="10.352" height="8.031"><path fill="#fff" d="M-1.723-1.023H8.629v8.031H-1.723z"/><use xlink:href="#a"/></mask><path d="M12.122 1.025c-.551.005-.8.407-.556.896l1.108 2.226c.244.49.89.886 1.45.883l1.899-.007c.557-.003 1.121-.437 1.261-.972l.55-2.105c.14-.535-.204-.964-.745-.96l-4.967.04z" id="b"/><mask id="d" x="-2" y="-2" width="10.393" height="8.045"><path fill="#fff" d="M9.472-1.014h10.393v8.045H9.472z"/><use xlink:href="#b"/></mask></defs><g fill="none" fill-rule="evenodd" opacity=".54"><path d="M-1-7h24v24H-1z"/><g transform="translate(2 2)" stroke="#000"><use mask="url(#c)" stroke-width="4" xlink:href="#a"/><use mask="url(#d)" stroke-width="4" xlink:href="#b"/><path d="M7.092 2.017l3.894-.043" stroke-width="2"/></g></g></svg>