<svg width="80" height="89" viewBox="0 0 80 89" xmlns="http://www.w3.org/2000/svg" xmlns:xlink="http://www.w3.org/1999/xlink"><title>E1D281B5-EB6C-4E5E-A1B9-50E37BFAB059</title><defs><path id="a" d="M0 .002h80v88.725H0z"/></defs><g fill="none" fill-rule="evenodd"><g><mask id="b" fill="#fff"><use xlink:href="#a"/></mask><path d="M5.132 58.67l-.277.295s.575.75 1.037.464c.264-.487-.482-1.053-.482-1.053l-.277.294h-.001zm8.462-23.5c-1.483.036-4.09.331-5.415.753.9 1.084 3.251 2.641 4.66 3.302-1.096.416-3.061 1.473-3.88 2.236 1.056.655 3.374 1.402 4.471 1.647-.638.518-1.952 2.02-2.434 2.829.907.283 2.774.53 3.958.601-.378.794-.811 2.197-.926 3.11.587.06 2.55-.042 3.521-.261-.083.796-.05 2.244.08 2.868.959-.138 2.328-.525 2.965-.77.184.708.843 2.236 1.076 2.6a9.268 9.268 0 0 0 2.358-.817c.213.568.697 1.42.83 1.634 2.245-2.277 5.451-.43 5.451 1.993-.23 1.594-2.477 1.505-3.66 2.254-1.554.987-1.284 3.273-2.885 3.625 1.513.96 1.953-.84 3.523-.892-.21.971-.189 2.695-.032 3.417.647-.5 1.553-.883 2.145-.922-.145.568-.26 1.891-.048 2.718.417-.316 1.973-1.673 5.669-.8.448.105-2.507-.011-2.139.945.291.753.373 1.276.026 2.346.157.056.339.083.534.083.83 0 1.903-.482 2.33-1.24.33.247.33 1.998-.775 2.433 1.18.087 2.08-.875 2.254-1.466 0 0 .576 1.376 1.26 1.827.43-.151 1.195-.865 1.491-1.607.296.742 1.062 1.456 1.491 1.607.684-.45 1.261-1.827 1.261-1.827.175.59 1.073 1.552 2.253 1.466-1.105-.435-1.105-2.186-.775-2.432.427.756 1.501 1.24 2.33 1.24.197 0 .379-.028.535-.084-.348-1.069-.266-1.593.025-2.347.368-.956-2.587-.84-2.139-.945 3.695-.873 5.251.484 5.669.8.21-.825.097-2.15-.049-2.717.593.039 1.5.422 2.146.922.157-.722.178-2.446-.032-3.417 1.57.051 2.01 1.852 3.523.893-1.6-.351-1.33-2.638-2.887-3.624-1.183-.749-3.43-.66-3.658-2.256 0-2.422 3.205-4.267 5.45-1.992.133-.214.618-1.065.83-1.634.674.354 1.591.67 2.359.817.233-.364.89-1.891 1.075-2.6.637.246 2.007.632 2.965.77.13-.623.163-2.073.08-2.868.97.219 2.933.32 3.52.26-.113-.912-.545-2.314-.927-3.108 1.186-.07 3.052-.317 3.96-.601-.482-.809-1.797-2.31-2.434-2.83 1.096-.244 3.414-.992 4.47-1.646-.819-.764-2.785-1.82-3.88-2.236 1.409-.66 3.76-2.218 4.66-3.302-1.325-.422-3.933-.718-5.413-.753 3.066-2.099 3.16-6.648 2.277-9.12-.593 1.498-2.561 3.96-3.832 5.288.113 1.264-.297 3.506-1 4.873 1.007.383 2.2.96 3.044 1.602-.56.706-1.767 1.8-2.524 2.393.64.67 1.718 1.901 2.197 2.612-.709.531-2.251 1.14-3.042 1.42.389.8.955 2.255 1.1 3.262-.901.148-2.14.249-3.437.233.063.963-.073 2.454-.24 3.346-1.202-.096-2.621-.589-3.253-.906-.335 1.33-1.162 2.621-1.198 2.69-3.759-4.098-7.09-.232-7.09 3.38v4.92c0 2.328-.733 3.392-2.845 3.392h-2.73c-1.7 0-3.124.722-3.835 2.108-.71-1.386-2.135-2.107-3.835-2.107h-2.733c-2.11 0-2.844-1.063-2.844-3.391v-4.923c0-3.611-3.33-7.477-7.089-3.38-.036-.068-.863-1.36-1.198-2.69-.632.318-2.05.81-3.253.907-.167-.893-.303-2.384-.24-3.346-1.296.015-2.536-.086-3.437-.235.145-1.006.71-2.463 1.1-3.261-.79-.28-2.334-.89-3.043-1.42.48-.712 1.556-1.943 2.196-2.612-.756-.594-1.962-1.69-2.523-2.395.846-.643 2.038-1.22 3.045-1.603-.703-1.367-1.113-3.609-1-4.872-1.27-1.328-3.239-3.79-3.833-5.29-.883 2.473-.788 7.023 2.278 9.12v.002zm37.304-22.63h.732l-.092-.94.917.095v-.754l-.917.093.092-.94h-.732l.09.94-.914-.094v.753l.916-.094-.092.941zm.366 6.364c.378 0 .687-1.985.687-2.975 0-.54-.308-.894-.688-.894-.38 0-.687.355-.687.894 0 .99.307 2.975.687 2.975h.001zm3.42 1.575c.244-.766.52-1.93.52-2.491 0-1.028-.57-2.165-2.568-2.515 0 1.266-.604 4.284-1.331 4.284h-.082c-.727 0-1.33-3.041-1.33-4.284-1.993.351-2.544 1.488-2.544 2.515 0 .562.274 1.726.517 2.492h6.819zm-2.87-6.62a.559.559 0 0 0-.55-.565.559.559 0 0 0-.55.565c0 .313.247.566.55.566.302 0 .549-.253.549-.565l.001-.002zm2.313 8.106s.14-.347.32-.847h-6.342c.179.5.32.847.32.847h5.702zm12.763-4.164c-.483-.691-1.585-.456-2.601-.466 1.664 1.124-.033 2.6-.864 4.524-.83 1.922.177 3.73.177 3.73s.078-1.705.92-2.536c0 0 .254.767 1.218.946-1.318-1.491.29-3.731.934-4.694.506-.756.367-1.289.216-1.505zm-5.147-2.153c1.74 1.588 2.671 1.147 4.056 1.193 1.384.045 1.542.64 1.542.64h.045c-.075-.99-1.728-.709-3.337-1.771-1.142-.754-1.822-1.813-2.324-2.207-.502-.395-1.963-.09-3.012.592 0 0 .976-.32 3.03 1.554v-.001zm-7.065 6.327c1.673 0 3.306-1.118 3.956-3.457.65-2.338 2.31-2.724 2.31-2.724-.36-.402-2.008-1.601-2.665-1.147 0 0-.634.334-.894 2.925-.256 2.574-1.63 3.963-2.605 4.085l-.102.318zm-11.156-4.68h-2.325c.778 3.62 3.695 4.66 6.73 4.66l-.101-.271c-2.36 0-3.891-1.78-4.304-4.389zM28.368 12.54h.733l-.091-.94.915.094v-.754l-.917.093.092-.94h-.733l.092.94-.916-.094v.753l.916-.094-.092.942h.001zm.367 6.363c.379 0 .686-1.985.686-2.974 0-.54-.307-.895-.686-.895-.378 0-.687.355-.687.895 0 .989.308 2.974.687 2.974zm3.397 1.576c.243-.766.518-1.93.518-2.492 0-1.027-.552-2.164-2.545-2.514 0 1.242-.602 4.283-1.33 4.283h-.082c-.727 0-1.33-3.018-1.33-4.283-2 .349-2.568 1.487-2.568 2.515 0 .561.276 1.725.52 2.491h6.817zm-2.849-6.622a.557.557 0 0 0-.548-.564.558.558 0 0 0-.55.565c0 .313.246.566.55.566.304 0 .55-.253.55-.565l-.002-.002zm-3.41 8.107h5.701s.141-.347.32-.847h-6.342c.18.5.32.847.32.847zm-10.396 1.088c.842.83.92 2.539.92 2.539s1.007-1.811.176-3.734c-.83-1.922-2.528-3.398-.864-4.521-1.016.009-2.118-.225-2.601.464-.15.216-.291.75.217 1.505.643.963 2.251 3.203.933 4.694.964-.179 1.219-.946 1.219-.946zM14.2 16.84c1.385-.046 2.317.395 4.056-1.193 2.055-1.873 3.03-1.552 3.03-1.552-1.05-.684-2.511-.987-3.013-.592-.502.394-1.182 1.453-2.324 2.206-1.61 1.062-3.262.782-3.336 1.772h.045s.157-.597 1.541-.642l.001.001zm4.855-1.047s1.66.385 2.31 2.724c.65 2.339 2.282 3.458 3.956 3.458l-.102-.319c-.974-.121-2.349-1.511-2.606-4.085-.259-2.591-.894-2.925-.894-2.925-.655-.454-2.304.745-2.664 1.147zm13.12 5.89l-.104.271c3.033 0 5.952-1.04 6.73-4.66h-2.324c-.413 2.609-1.944 4.389-4.303 4.389h.001zM63.74 30.71c-1.236 2.87-4.37 5.43-6.398 6.711-.924.584-.587 1.693-.291 2.184 2.762 4.593-2.262 8.015-6.798 5.74.989.01 1.989-.831 2.127-1.581-.314.273-1.603.124-1.983-.23.585-.305.723-.615.753-.905-.722.443-2.182.504-2.613-.246-2.397-.066-3.993-1.937-4.167-2.477-.179.574-.466 1.578-.56 2.57-.65-.44-1.76-1.438-2.339-2.79A10.488 10.488 0 0 0 40 42.788a10.488 10.488 0 0 0-1.468-3.103c-.58 1.353-1.69 2.35-2.34 2.79-.094-.991-.38-1.996-.56-2.57-.174.54-1.77 2.412-4.167 2.477-.43.749-1.891.689-2.614.245.03.29.167.6.753.905-.381.352-1.67.502-1.984.23.138.75 1.138 1.593 2.128 1.582-4.538 2.276-9.56-1.147-6.798-5.74.296-.491.633-1.6-.29-2.184-2.03-1.281-5.165-3.84-6.4-6.71-.146 1.17-.035 4.075 1.22 5.883-.917.35-2.094.92-2.884 1.448.5.57 1.665 1.553 2.447 2.088-.64.568-1.631 1.658-2.151 2.37.659.393 1.988.87 3.003 1.191-.469.776-1.19 2.175-1.372 3.007 1.137.166 2.298.151 3.322.119-.13.97-.045 2.19.058 3.076 1.055-.15 2.216-.58 2.986-.986.145.67.549 1.907.909 2.567 1.002-.95 2.323-1.385 3.545-1.134 2.503.516 3.247 3.052 3.247 3.052l.004-7.71v-.861c0-.48.258-.735.722-.735h17.367c.463 0 .722.255.722.735v.86l.004 7.71s.744-2.534 3.246-3.05c1.222-.252 2.544.183 3.544 1.134.362-.662.764-1.898.91-2.567.77.406 1.932.834 2.987.986.102-.889.19-2.108.058-3.078 1.013.105 2.177.105 3.322-.118-.182-.832-.903-2.232-1.373-3.007 1.056-.283 2.344-.798 3.004-1.19-.52-.713-1.513-1.802-2.151-2.371.782-.534 1.947-1.517 2.448-2.088-.79-.528-1.967-1.098-2.885-1.448 1.256-1.807 1.368-4.712 1.22-5.882v-.002zm8.873 4.555c1.518-.647 3.658-2.102 4.647-3.111.131.17.485 1.018-.637 1.959-.817.687-2.474 1.447-3.756 1.947-.568.848-1.632 1.792-3.166 2.81 2.967-.465 6.545-1.644 8.281-3.353 3.298-3.243 1.538-7.2 1.106-8.04-2.136 2.661-6.222 5.485-10.03 6.99 1.286.158 2.604.43 3.553.8l.002-.002zm1.914-11.89c.426.314.647 1.227.047 2.269-1.043 1.804-2.843 3.38-4.42 4.618-.066 1.159-.574 2.502-1.094 3.5 2.322-1.54 4.986-3.901 6.196-5.486 1.573-2.06 2.224-4.124 1.935-6.131-.289-1.994-1.46-3.41-2.138-3.972-.605 1.576-3.107 5.6-5.338 8.029.264.88.435 2.048.45 3.064 1.92-1.59 4.037-4.76 4.363-5.891h-.001zm5.409 13.553c-2.42 1.28-6.725 2.617-10.097 2.587.854.524 1.663 1.125 2.187 1.63 1.421-.085 3.343-.52 4.473-.974.024.2.043 1.095-1.266 1.495-.887.272-2.272.302-3.291.322-.816.518-2.073 1.042-3.09 1.389.943.134 2.1.233 3.199.233 1.799 0 3.41-.19 4.421-.515.96-.31 4.015-1.666 3.462-6.167h.002zm-11.253 7.08c.451.534.947 1.19 1.26 1.743 1.753.389 3.941.297 3.941.297s-.13.933-1.345 1c-.536.03-2.186-.247-2.876-.446-.292.123-1.57.437-2.895.608 1.857.659 4.556 1.345 6.253 1.345.169 0 .325-.006.467-.019 2.72-.244 4.099-2.744 4.17-4.194-.804.162-2.206.263-3.649.263-1.224 0-3.532-.104-5.326-.597zm-1.808 5.704c1.03.48 2.109.794 3.043.909 0 0-.155.9-1.61.715-.797-.102-1.756-.707-1.973-.853-.63.089-1.954.058-2.458-.043 1.583 1.129 4.042 2.434 6.08 2.635.102.01.203.015.307.015 2.138 0 3.823-2.162 4.258-3.196-2.175-.029-5.837-.909-8.083-2.16.154.51.333 1.202.436 1.978zm-3.677 2.854c.575.615 1.48 1.049 1.48 1.049s-.239.46-.8.46c-.185 0-.38-.054-.577-.165-.387-.218-.89-.805-.89-.805a9.843 9.843 0 0 1-2.005-.407c1.122 1.422 3.009 3.118 4.99 3.607.297.073.599.11.898.11 1.801 0 3.24-1.327 3.645-2.172-2.048-.295-4.981-1.818-6.543-3.387-.014.627-.087 1.256-.2 1.71h.002zm-7.064 2.295a3.072 3.072 0 0 1-.487.808c.179.69-.058 1.021-.489.945-.029-.448-.182-.793-.182-.793s-1-.807-1.614-.96c.714.637 1.383 2.034 1.213 3.519 2.052-.06 2.204-2.157 1.56-3.518zm3.648-1.469c-.153.396-.431 1.038-.66 1.47.14.234.33.505.494.688-.02.148-.784.553-1.324-.49a8.841 8.841 0 0 1-1.488-.444c.655 1.317 1.23 2.395 2.14 2.989 1.35.881 3.518.683 4.218-.29-1.19-.644-2.609-2.297-3.382-3.923h.002zM10.3 38.868c-1.535-1.019-2.598-1.962-3.164-2.81-1.283-.499-2.941-1.26-3.758-1.946-1.122-.941-.766-1.79-.636-1.959.99 1.01 3.128 2.464 4.648 3.112.95-.371 2.267-.642 3.552-.8C7.136 32.96 3.05 30.137.914 27.475c-.433.84-2.193 4.796 1.105 8.04 1.738 1.709 5.315 2.887 8.282 3.353zm.642-5.106c-.521-.998-1.029-2.342-1.096-3.5-1.578-1.239-3.378-2.815-4.42-4.618-.601-1.043-.379-1.956.047-2.269.325 1.131 2.444 4.3 4.364 5.891.015-1.017.185-2.185.45-3.064-2.232-2.429-4.734-6.453-5.337-8.029-.68.562-1.851 1.978-2.138 3.972-.291 2.008.36 4.07 1.934 6.131 1.209 1.584 3.873 3.947 6.195 5.486zM3.53 43.093c1.01.327 2.621.514 4.421.514 1.099 0 2.256-.099 3.198-.232-1.018-.347-2.273-.871-3.09-1.39-1.019-.02-2.404-.049-3.292-.322-1.307-.4-1.289-1.294-1.266-1.494 1.13.454 3.053.888 4.474.974.524-.505 1.334-1.107 2.187-1.63-3.372.029-7.677-1.306-10.096-2.587-.552 4.5 2.504 5.856 3.464 6.167zm6.53 2.658c.312-.554.808-1.21 1.259-1.743-1.793.495-4.102.596-5.324.596-1.444 0-2.846-.101-3.65-.261.072 1.448 1.45 3.949 4.17 4.193.142.013.298.019.467.019 1.696 0 4.395-.687 6.252-1.346-1.324-.17-2.604-.485-2.895-.607-.69.199-2.34.475-2.876.446-1.216-.067-1.345-1-1.345-1s2.188.092 3.94-.297h.001zm-.32 7.338c.1 0 .205-.005.307-.014 2.036-.202 4.496-1.507 6.08-2.636-.505.101-1.83.132-2.458.043-.219.146-1.177.753-1.975.854-1.455.185-1.609-.716-1.609-.716.935-.114 2.013-.429 3.042-.909.102-.776.283-1.467.437-1.978-2.247 1.251-5.91 2.131-8.084 2.16.435 1.033 2.12 3.196 4.258 3.196h.001zm3.968 3.326c.298 0 .6-.036.897-.109 1.982-.49 3.869-2.186 4.992-3.61a9.726 9.726 0 0 1-2.006.408s-.502.59-.89.806a1.174 1.174 0 0 1-.578.164c-.56 0-.798-.46-.798-.46s.904-.434 1.48-1.05c-.115-.454-.187-1.083-.2-1.709-1.561 1.568-4.495 3.091-6.543 3.387.405.845 1.844 2.173 3.645 2.173zm10.16-1.553c-.645 1.36-.493 3.457 1.56 3.517-.17-1.485.498-2.882 1.214-3.518-.616.153-1.617.96-1.617.96s-.15.345-.182.793c-.429.076-.666-.255-.487-.946 0 0-.311-.355-.487-.807h-.001zm-2.81 2.742c.909-.594 1.485-1.672 2.14-2.99a8.873 8.873 0 0 1-1.487.444c-.54 1.045-1.305.64-1.324.491a4.86 4.86 0 0 0 .495-.69 15.695 15.695 0 0 1-.66-1.468c-.772 1.626-2.192 3.278-3.38 3.923.698.973 2.865 1.171 4.218.289h-.002zm14.676-19.798c.535.86 1.01 1.894 1.176 2.814.513-.62 1.055-1.699 1.422-2.987.45.563 1.236 1.709 1.669 2.654.433-.945 1.219-2.091 1.669-2.654.367 1.288.91 2.368 1.422 2.989.165-.922.64-1.957 1.176-2.816.407 1.673 1.976 3.302 3.595 3.425-1.053-1.368-1.096-3.734-1.021-4.521-.702-1.091-1.164-2.076-1.385-2.744-.475.47-1.211 1.385-1.871 2.442 0-.013-.02-1.326-.284-2.92-.68.616-1.913 1.061-2.572 1.234-.414.679-.53 1.207-.727 2.06-.198-.851-.313-1.382-.727-2.06-.66-.173-1.893-.618-2.575-1.233a21.94 21.94 0 0 0-.281 2.919c-.66-1.057-1.397-1.97-1.873-2.442-.22.669-.684 1.653-1.385 2.744.075.787.032 3.153-1.022 4.52 1.62-.123 3.19-1.752 3.596-3.425h-.002zm12.194-8.364c-.638.849-1.642 1.333-3.06 1.195 0 0 .662-1.105.78-2.068-.662.651-2.133.873-3.047.782 0 0-1.076 1.693-1.706 4.347.936-.283 2.318-1.083 2.984-1.718.123.585.264 1.396.344 2.054a22.59 22.59 0 0 1 1.638-1.88c.254 1.12.65 2.52 1.541 3.764-.172-1.263.1-3.52.659-4.736.092-.706.04-1.248-.133-1.74zm-15.854 0c-.175.492-.226 1.034-.133 1.74.56 1.216.83 3.473.658 4.736.891-1.244 1.287-2.643 1.542-3.763a22.733 22.733 0 0 1 1.638 1.88c.08-.658.22-1.47.344-2.055.666.635 2.048 1.435 2.982 1.717-.628-2.654-1.705-4.347-1.705-4.347-.913.091-2.385-.131-3.047-.782.118.962.78 2.068.78 2.068-1.418.139-2.422-.345-3.06-1.194zm19.917-5.627c.445 0 .403.269.272.487l-.546.897s-.432-.462-1.292-.803c-.861-.342-1.104-.399-1.104-.582h2.669zm-8.655-.376c-.483.257-1.224.461-1.723.348.356.665 1.602 1.137 2.177 1.178-.375.431-.995.886-1.505 1.011.229.233 1.344.427 2.154.24-.58.875-1.733 1.862-2.618 1.828 1.04.795 2.977.524 4.548-.853.147.889-.042 2.21-.2 2.546.665-.148 1.689-1.313 2.066-1.934.556 1.209.547 1.716.547 1.716 1.198-1.627 4.23-2.518 5.342-6.276.105-.355-.016-.56-.338-.56l-5.552-.015c-3.047 0-5.102-.637-6.405-1.278.22.865 1.138 1.85 1.505 2.05h.002zm16.202 7.07c.05-.066-.007-.073-.045-.05-.039.026-.984.582-3.036-.751-2.051-1.336-3.638-1.896-4.456-2.03 0 0-.771.55-1.474 1.164 1.916.162 3.419 1.335 3.59 1.74.016.036.056.038.068.002.205-.625-.066-1.15-.066-1.15s.893.552 2.622 1.565c1.73 1.01 2.518-.121 2.797-.491zm-4.525-5.646c.163-.238.327-.668.327-.668.37 0 1.018.124 1.018.567-.445-.086-.969-.068-1.345.1zm-.166-1.256c-.342 1.28-1.404 2.873-2.298 3.584-.097.1-.034.098.07.07 4.84-1.294 5.68 1.164 5.673 1.246-.011.094.049.134.118.049.1-.121 1.699-1.866.541-3.46-1.156-1.594-4.105-1.489-4.105-1.489zm-9.122 31.03c-.167-.179-.333-.36-.494-.541-.175-.193-.298-.27-.477-.27-.398 0-.825.22-1.054.372-.015.006-.026.02-.031.06.242-.022.485-.04.727-.067.212-.024.41-.016.593.12.144.107.226.24.233.413.023.552.463 1.716.49 2.064.035.138-.13.177-.358.82-.168.188-.624-.412-.557-.551.264-.347.338-.563.27-.822a10.72 10.72 0 0 0-.229-.778c-.1-.27-.326-.37-.606-.274-1.098.365-1.267-.121-2.356.337l1.254 1.942a.855.855 0 0 0-.275-.577c.037-.196.432-.276.58-.094.183.234.536.565.828.618.56.104.516.955 2.011 1.24-.185.192-.6.127-.78.04.108.17.233.328.459.386-.233.233-.897-.313-.83.236a.568.568 0 0 1 .41-.043c.298.074.788 1.773-.243 2.516.22.065.455-.05.677-.05.131 0 .253.126.266.267.096.074.16.165.215.281a.436.436 0 0 1-.31-.054c.033.093.025.32-.01.325-.093.012-.165-.041-.26-.098-.133.069-.569.041-.693-.07-.328.08-.654.188-.996.188-.185 0-.429-.012-.422-.238.005-.111.06-.168.102-.288-.157-.164-.42-.008-.734.024-.424.04-.6-.025-.691-.112.4-.374.158-1.28-.462-1.36.51.489.443 1.281-.127 1.46a.476.476 0 0 1 .31.244c.2.084.203.23.187.296-.11-.079-.308-.156-.465-.135-.011.07-.04.199-.1.247a.374.374 0 0 1-.19-.126c-.182-.138-1.32.128-1.388-.058-.044-.175.26-.32.54-.383-.72-.265-1.345-1.622-2.452-1.852-.514-.107-1.21.125-1.21.795 0 .328.264.581.55.581.263 0 .394-.181.394-.365-.043.032-.069.05-.095.072a.369.369 0 0 1-.513-.022c-.131-.126-.131-.349-.005-.498a.606.606 0 0 1 .397-.22c.432-.063.787.076 1.026.425a.932.932 0 0 1 .177.517c0 .772-.77.947-1.198.947-1.075 0-1.707-.77-1.707-1.663 0-.104.005-.21.022-.316.168-1.003 1.063-1.424 1.837-1.549a1.713 1.713 0 0 0-.563-.863c-.136-.115-.15-.209-.064-.355.116-.2.24-.397.29-.622.013-.051.018-.104.022-.159-.385.346-.923.663-1.67.89-.234.109-.359.325-.388.571a8.603 8.603 0 0 0-.048.866c-.001.067.047.14.084.203.138.24.29.472.326.769 0 .144-.723.16-.723.044-.007-.524-.357-.728-.318-1.072a4.823 4.823 0 0 0 .03-1.616c-.023-.136.05-.226.146-.299.153-.116.317-.222.47-.338.362-.277.512-.64.427-1.088a.742.742 0 0 0-.062-.17c-.18-.398-.311-.802-.311-1.252 0-.493-.61-.465-.57.02.013.15.125.362.189.508.625 1.442-.5 2.48-1.662 2.48 1.222-.425-.286-1.993-.286-3.164 0-.717.553-1.247 1.213-1.247.761 0 1.244.491 1.382.576.369-.586 1.497-.691 1.92-.759-.032-.315.012-.595.205-.836.012-.018.02-.047.014-.066a3.66 3.66 0 0 0-.208-.44c-.347.393-.43.914-.43 1.184-1.286-.02-1.853-.584-2.233-.806.002-.098.343-.715.647-1.122a3.318 3.318 0 0 0-.807.992 2.938 2.938 0 0 0-.566-.332c.29-.621.674-1.105 1.164-1.612-.69.255-1.29 1.037-1.517 1.528a2.612 2.612 0 0 0-.649 0c.751-.92 1.094-2.733 2.745-3.14-.413 1.682.615 2.365 1.324 1.926-.093 0-.156.014-.216 0-1.38-.35-.562-2.267-.896-2.666-.126-.153-.192-.291-.171-.482a.396.396 0 0 0-.044-.208l-.735-1.229c-.091-.154.195-.264.255-.193l.75 1.23c.02.029.043.074.072.08.273.048.358.276.468.477.034.065.062.14.069.212.005.057-.01.135-.048.172-.12.122-.096.24-.004.397.148.251 4.583 7.648 4.583 7.648-.963.395-2.705.427-3.21.379a2.616 2.616 0 0 1-.51.788 2.61 2.61 0 0 0 .6-.575c.196.022.488.1.786.123a3.475 3.475 0 0 1-.782 1.069c-.16.16-.36.298-.286.552.082.286.61.83.805 1.18.191.04.515.11.753.204.134.291.593.657 1.145.468-1.11-.014-1.029-1.153-.684-1.755-.036.56.233 1.024.574 1.077-.512-.468-.46-1.531.038-2.115.072.947.358 1.445.768 1.557-.542-.5-.867-1.655-.048-2.497.063 2.161 2.04 1.772 2.22 4.273.732 0 .773-.986.365-1.168-.239-.09-.454-.248-.575-.461-.05-.09-.104-.25-.145-.345-.218-.643-.832-.602-.817-.756.014-.051.11-.076.247-.076l-1.158-1.791-.061-.093c.14-.03.17-.11.028-.336 0 0-4.345-7.234-4.366-7.275.404-.07.793.039 1.17.185a.621.621 0 0 1-.2-.36c-.015-.108-.011-.17.076-.24.093-.076.182-.163.246-.261.215-.329.611-.489.972-.385.544.154.736.768.336 1.092-.212.47-.475.41-.53.621.107.048.85.623.9.865-.222.462-.332 1.184-.14 1.586.144-1.919 1.298-2.858 2.422-2.858.267 0 .532.047.799.138.145.05.29.12.412.212.176.134.342.286.489.449.22.24.42.498.792.515-.109.155-.232.269-.36.381a.438.438 0 0 0-.148.305c-.026.266-.113.51-.31.706a.281.281 0 0 0-.06.094c-.123.363-.25.723-.367 1.088-.03.09-.024.211-.144.21a.532.532 0 0 1-.307-.095c-.164-.133-.223-.328-.164-.533.058-.204 0-.38-.064-.57-.065-.19-.09-.396-.134-.612-.307-.108-.883.552-.443 1.105.285.407.542 1.159.587 1.466.008.03-.26.2-.632.153-1.253-.16-2.045-1.033-2.286-1.767-.02 1.246 1.013 2.167 2.542 2.078.062.291.3.488.574.496.058-.187.056-.58.01-.829-.02-.109.036-.167.138-.192.334-.086.77-.053 1.142-.186.33-.118.487-.05.692.35.156.302.422.626.673.852.105.092.21.187.31.287a.681.681 0 0 1 .204.462c-.034.291.005.873.005.883-.073.192-.602-.01-.687-.216-.032-.077.226-.615-.045-.904v.006zM34.678 60.01c-.028.359.39 1.012 1.076.807-.02.134.019.496.172.768-1.218.276-1.744-.727-1.247-1.575h-.001zm-2.934-15.183c-.26 0-.42.166-.42.434v16.226c0 1.549.608 2.334 1.809 2.334l3.003.01c2.058 0 3.273.71 3.864 1.59.503-.82 1.917-1.59 3.864-1.59l3.004-.01c1.2 0 1.809-.786 1.809-2.335V45.26c0-.267-.162-.433-.42-.433H31.743zM44.97 73.13c.296-.094.542-.244.669-.414-1.324-.057-2.418-1.203-2.82-1.91-.44.73-1.225 1.299-1.225 1.299-.56-.148-1.323-.759-1.592-1.225-.27.466-1.035 1.077-1.593 1.225 0 0-.787-.57-1.227-1.3-.4.708-1.495 1.855-2.82 1.912.128.17.375.32.67.414a2.1 2.1 0 0 0 .638.103c.233 0 .468-.042.678-.14-.133.482-.177 1.076-.08 1.483 0 0 .705.057 1.433-.218.052.44.253.973.581 1.334.066.07.133.138.208.192.39 0 1.335-.456 1.512-.737.178.28 1.12.737 1.513.737.073-.055.141-.122.206-.192.33-.361.53-.895.582-1.335.327.165.708.23 1.128.23.1 0 .201-.003.304-.01.098-.408.054-1.004-.08-1.485.211.099.446.14.679.14.221 0 .44-.039.637-.101l-.001-.002zM20.464 30.507c.279.37 1.067 1.501 2.797.49a144.755 144.755 0 0 0 2.62-1.564s-.27.524-.065 1.15c.013.036.053.034.069-.003.172-.405 1.674-1.579 3.589-1.74-.702-.615-1.473-1.164-1.473-1.164-.818.133-2.404.694-4.455 2.03-2.051 1.334-2.997.778-3.037.751-.04-.024-.094-.016-.046.05h.001zm9.113-6.113c-.861.342-1.292.803-1.292.803l-.546-.898c-.13-.218-.173-.487.272-.487h2.67c0 .183-.243.24-1.104.581v.001zm-3.362-1.712c-.322 0-.442.205-.338.56C26.99 27 30.023 27.891 31.22 29.52c0 0-.007-.508.547-1.717.378.621 1.402 1.786 2.068 1.935-.16-.335-.35-1.658-.201-2.547 1.57 1.377 3.508 1.649 4.548.854-.886.034-2.037-.953-2.619-1.83.811.188 1.926-.005 2.156-.24-.51-.123-1.132-.578-1.505-1.01.574-.04 1.821-.512 2.178-1.179-.5.115-1.241-.09-1.723-.346.367-.199 1.284-1.185 1.505-2.05-1.304.64-3.36 1.278-6.406 1.278l-5.552.014v.001zm-2.569 2.08c0-.445.646-.567 1.018-.567 0 0 .162.429.326.667-.378-.169-.902-.186-1.345-.1h.001zm-2.596.333c-1.157 1.594.443 3.338.541 3.46.07.085.13.046.119-.049-.009-.082.833-2.54 5.673-1.246.104.028.167.03.07-.07-.894-.71-1.955-2.303-2.298-3.583 0 0-2.948-.106-4.105 1.488zM40 12.391c.597 0 1.368-2.488 1.565-4.843 0-.477-.597-1.208-1.564-1.226-.967.02-1.564.75-1.564 1.226.173 2.197.977 4.844 1.564 4.844zm4.695 1.695c.2-.25 1.192-2.175 1.192-4.119 0-1.749-2.193-2.712-3.498-2.756-.151 2.499-1.122 6.422-2.388 6.422-1.198 0-2.24-3.9-2.388-6.422-1.305.044-3.499 1.007-3.499 2.756 0 1.944.993 3.87 1.193 4.118h9.388zm-.464.945c0-.22-.173-.4-.386-.4a.393.393 0 0 0-.385.4c0 .22.172.399.385.399a.393.393 0 0 0 .386-.4v.001zm-7.753 0c0-.22-.173-.4-.385-.4a.394.394 0 0 0-.387.4c0 .22.174.399.385.399a.393.393 0 0 0 .387-.4v.001zm-.39 1.477c.105.038.226.058.368.058h7.089c.143 0 .264-.02.368-.058.228-.082.367-.255.422-.53h-8.669c.054.275.193.447.422.53zm2.319-1.477c0-.22-.173-.4-.386-.4a.394.394 0 0 0-.387.4c0 .22.173.399.386.399a.393.393 0 0 0 .387-.4v.001zm1.102-11.934h.984l-.107-1.19 1.07.113V1.08l-1.07.114.107-1.19h-.984l.106 1.19-1.069-.114v.941l1.07-.113-.107 1.19zm-.232 1.587c0 .411.323.747.722.747a.737.737 0 0 0 .723-.747.736.736 0 0 0-.723-.747.736.736 0 0 0-.722.747zm3.025 10.347c0-.22-.172-.4-.385-.4a.393.393 0 0 0-.386.4c0 .22.172.399.386.399a.393.393 0 0 0 .385-.4v.001zm-1.948 0c0-.22-.173-.4-.385-.4a.393.393 0 0 0-.386.4c0 .22.172.399.386.399a.393.393 0 0 0 .385-.4v.001zm10.323 61.651c.633-.29 1.089-1.073 1.209-1.84-.401.197-.853.293-1.375.293-1.434 0-3.236-.798-4.87-1.52 0 0-.352.295-.936.356 1.648.508 4.887 2.305 5.125 3.458.16.771-.343 1.066-.343 1.066-.72-1.176-2.578-3.003-5.057-3.916.005.429-.077.732-.077.732s-.503.123-1.571-.062c.934.78 3.388 3.534 3.654 5.622.177 1.395-.797 1.46-.797 1.46-.138-2.098-1.24-4.27-3.225-6.448 0 0-.325.509-.758.768 0 0-.734-.131-1.342-.533.235 2.768.373 6.363.228 7.451-.102.757-.54 1.075-.54 1.075s-.441-.317-.543-1.075c-.145-1.088-.007-4.683.228-7.451-.608.403-1.342.533-1.342.533-.433-.258-.758-.768-.758-.768-1.985 2.179-3.086 4.349-3.225 6.447 0 0-.974-.064-.797-1.459.266-2.088 2.72-4.842 3.655-5.622-1.07.186-1.571.062-1.571.062s-.083-.3-.078-.73c-2.478.913-4.336 2.739-5.057 3.915 0 0-.501-.295-.343-1.067.238-1.153 3.476-2.95 5.125-3.457-.584-.063-.936-.359-.936-.359-1.633.723-3.435 1.52-4.87 1.52-.522 0-.975-.094-1.375-.292.12.767.577 1.55 1.21 1.84-2.217 1.559-.848 5.214-3.82 4.526 1.657 3.077 5.009 3.386 5.009 3.386-.742-1.628.183-6.594 4.632-8.851-2.739 2.73-3.987 6.041-3.26 8.378.667 2.143 2.834 3.01 4.465 3.049-1.153-3.544-.442-7.604 1.953-10.16-1.027 2.803-2.469 10.283 1.697 11.718 4.166-1.435 2.722-8.915 1.694-11.718 2.396 2.556 3.107 6.616 1.953 10.16 1.632-.037 3.8-.906 4.466-3.05.727-2.336-.521-5.646-3.26-8.376 4.45 2.256 5.375 7.221 4.633 8.85 0 0 3.352-.31 5.01-3.386-2.972.686-1.604-2.968-3.819-4.528v.003zm-33.59-6.13c-.005.004-.13.127-.21.293.209 0 .453.036.672.096a4.52 4.52 0 0 1-.01-.685c-.185.042-.384.22-.452.295zm4.862 4.853c.336-.358.454-.618.371-.822-.12-.292-.883-1.144-1.883-2.106a3.92 3.92 0 0 1-.133.587c.674.893.924 1.85.698 2.656.082.055.133.08.163.092.258.101.581-.19.784-.408v.001zm-2.376-4.577c.009.019 1.932 1.715 2.578 2.33.152.145.361.177.574.069.122-.063.273-.134.43-.206 1.922-.68 5.086-.758 6.247-.705.698.029.945-.386.875-.72-.228-1.095-.278-3.056.637-4.388-.992.332-1.949 1.222-1.949 1.222-.33-.695-.467-2.218-.398-2.955-.904.325-1.71 1.188-1.71 1.188-.354-.942-.465-2.725-.353-3.739-2.247.754-.145 4.72-2.886 4.595.77 1.117 1.695.664 2.531.664.586 0 1.315.385 1.197 1.265-.085.637-3.761 1.431-5.24 1.431-1.032 0-1.725-.32-2.243-1.04-.25-.345-.504-.502-.79-.458-.353.055-.767.418-.767 1.258 0 .594.24 1.898.953 1.898.5 0 .522-1.03.315-1.709h-.001zm.205 2.955c-.163.152-.54 1.216-.375 1.863.07.278.223.396.482.382.266-.017.412-.157.458-.44.102-.648-.387-1.675-.565-1.805zm3.465 2.912a3.821 3.821 0 0 1-.577.495c.088.09.341.25.66.25.181 0 .35-.053.504-.16.316-.523.012-1.057-.126-1.194-.08.132-.237.372-.46.61zm-.007-1.222c.035-.152.01-.276-.07-.356-.025-.025-.047-.04-.06-.04-.059 0-.188.16-.312.315a7.685 7.685 0 0 1-.396.461 6.862 6.862 0 0 1-.436.422c-.144.13-.293.268-.295.329 0 .014.015.036.04.063.054.053.124.08.212.08.13 0 .417-.068.847-.526.327-.347.436-.598.47-.749v.001zM6.23 59.786c-.19.024-.636.424-.861.2l-1.026-1.024.513-.545.515-.546 1.026 1.024c.224.224-.15.697-.168.891h.001zm-3.01-2.33s-.305-.216.06-.614c.373-.388.594-.081.594-.081s.342.766.444 1.118c-.345-.092-1.098-.422-1.098-.422zm4.873 2.076c-.294-.293-.894.144-1.254-.06.16-.894.79.046 1.4-.601.243-.26.112-.664-.027-.786-.263.27-.67.175-.701.027.692-1.644-.66-3.476-1.96-3.247.254.342.33 1.534.22 1.854.495.358.141 1.198-.405.953-.367-.15-1.013-1.07-.27-1.716-.02-.233-.43-.29-.865.272.319-1.032-1.63-.708-2.032-.46-.227.42-.48 2.436.512 2.076-.533.466-.466.883-.238.899.606-.786 1.517-.149 1.675.224.254.554-.551.944-.913.446-.309.124-1.467.083-1.807-.169-.182 1.344 1.64 2.679 3.213 1.915.145.03.247.444-.004.723.124.14.519.262.764.003.608-.647-.324-1.268.54-1.462.21.364-.196.997.098 1.29.471.47 1.062-.44 1.642-.477.017-.598.881-1.234.412-1.704zm9.13 14.507c-.277.356-.38.703-.31 1.032.088.399.48.578.83.578.37 0 .7-.175.887-.47.396-.63.415-2.023.28-2.175-.333 0-1.219.432-1.687 1.035zm.894-1.586c-.002-.313-.592-.838-1.292-.838-1.04 0-1.491.662-1.491 1 0 .635.61.717.799.727.733.046 1.912-.706 1.985-.889zM8.363 61.46a.432.432 0 0 0-.322.126c-.098.104-.132.265-.097.453.04.203.155.41.327.582.204.203.463.327.69.327a.434.434 0 0 0 .321-.125c.211-.226.107-.698-.229-1.035-.206-.204-.463-.327-.69-.327v-.001zm7.54 8.764c.084.029.17.007.254-.037-.272.378-.262.63-.143.746.184.182.32-.152.785-.648.466-.495.789-.645.604-.83-.116-.116-.362-.12-.727.179a.345.345 0 0 0 .025-.26c-.154-.446-.87-1.04-1.265-1.041a.408.408 0 0 0-.166.036c.175-.28.129-.492.012-.607-.128-.128-.201-.039-.344.145.019-.128-.015-.28-.135-.463-.593-.9-3.73-3.862-4.442-4.16-.426-.178-.564.069-.564.069s-.237.153-.051.584c.312.724 3.325 3.816 4.218 4.399.182.118.33.147.453.123-.173.153-.256.23-.129.358.117.116.324.155.59-.033a.483.483 0 0 0-.028.171c.013.407.611 1.125 1.051 1.27l.002-.001zm47.65-3.413v4.144h4.04c-.352-2.113-1.978-3.78-4.04-4.143zm-5.796 4.949c0-.424.073-.806.073-.806h4.035V66.81c-1.948.342-3.506 1.848-3.97 3.793-.112.162-.478.245-.736.215-1.489-.181-4.502-.727-4.502-1.369 0-.904.61-1.265 1.197-1.265.836 0 1.76.453 2.53-.664-2.739.126-.64-3.841-2.886-4.594.112 1.013.001 2.796-.353 3.738 0 0-.805-.863-1.71-1.188.068.736-.069 2.26-.397 2.954 0 0-.957-.889-1.95-1.222.916 1.333.885 3.232.638 4.388-.071.334.177.749.876.72 1.092-.05 4.824.116 6.443.778.502.207.934.444 1.144.804.171.484.595 1.235 1.117 1.62.235-.838 1.235-1.735 1.885-1.702.195.009.41.334.454.654.058-.298.538-1.117 1.064-1.117.486 0 .953.686 1.114 1.252.05-.363.264-.752.459-.752.653 0 1.476.581 1.785 1.541.251-.314 1.404-1.798 1.533-2.772h-9.77s-.072-.42-.072-.862zm.479 0c0 .274.218.497.486.497.269 0 .487-.223.487-.498a.492.492 0 0 0-.487-.497.491.491 0 0 0-.485.497h-.001zm1.985 0c0 .274.217.497.485.497.27 0 .486-.223.486-.498a.492.492 0 0 0-.486-.497.49.49 0 0 0-.485.497zm.79 2.789c-.516 0-1.228.765-1.197 1.58.009.24.104.552.43.661.331.11.728-.057.897-.45.316-.744.008-1.79-.13-1.79v-.001zm1.7-.553c-.415 0-1.44 2.112-.677 3.18.146.204.403.32.677.32s.53-.116.676-.32c.764-1.069-.262-3.18-.676-3.18zm3.603-2.236c0 .274.217.497.485.497a.492.492 0 0 0 .486-.498.492.492 0 0 0-.486-.497.491.491 0 0 0-.485.497zm-2.036 0c0 .274.218.497.486.497.269 0 .486-.223.486-.498a.492.492 0 0 0-.486-.497.491.491 0 0 0-.485.497h-.001zm-1.568-.497a.491.491 0 0 0-.486.497c0 .274.218.497.486.497.27 0 .486-.223.486-.498a.492.492 0 0 0-.486-.497zm0-2.042a.491.491 0 0 0-.486.497c0 .275.218.498.486.498.27 0 .486-.223.486-.498a.492.492 0 0 0-.486-.497zm0-2.013a.491.491 0 0 0-.486.498c0 .275.218.497.486.497.27 0 .486-.222.486-.497a.492.492 0 0 0-.486-.496v-.002zm-.675-4.528l.104 1.149-.991-.11v1.308l.991-.111-.104 1.2h1.346l-.104-1.2.992.11v-1.309l-.992.112.104-1.15h-1.345zm2.373 11.869c-.138 0-.445 1.047-.129 1.789.17.395.565.563.896.452.328-.109.422-.42.431-.662.03-.814-.682-1.578-1.197-1.578v-.001z" fill-opacity=".54" fill="#FFF" mask="url(#b)"/></g><path opacity=".5" d="M-26-4h132V96H-26z"/></g></svg>