<svg width="80" height="94" viewBox="0 0 80 94" xmlns="http://www.w3.org/2000/svg"><title>B2CA994A-92E9-46E7-BA32-380F32219DBF</title><g fill="none" fill-rule="evenodd"><g opacity=".54" fill="#FFF"><path d="M51.102 78.013s1.49.734 2.007.247c.518-.488 1.406-1.734 2.534-1.045 1.128.689.783 3.458-.555 4.466-.232-.815-1.142-.37-1.267-1.355-.125-.984.827-1.404.827-1.404s-1.266.07-1.537.873c-.99-.782-2.01-1.782-2.01-1.782zM56.947 78.265s1.61-.497 1.842 1.32c.232 1.816-.393 3.036-1.93 3.793.305-.664-.721-1.186-.745-1.411 1.508-1.847.833-3.702.833-3.702zM59.457 80.658c.505.227 1.072 1.241.826 2.4-.246 1.159-.953 2.139-2.373 2.228.316-.548-.147-.999-.066-1.267.886-.604 1.694-1.77 1.613-3.361zM55.396 82.646c.812.759.993 2.006.536 2.996-.456.99-2.463 1.25-3.135-.247-.673-1.498-.424-2.835-1.237-4.044 1.37.97 1.842 1.402 1.842 1.402s-.34 1.127.266 2.047c-.373-.937-.056-1.502.481-1.66.537-.158 1.014.017 1.247-.494zM33.138 71.843c-3.446-.682-7.597-1.053-12.72-.927 5.24-.631 9.653-.45 13.455.244-.253.224-.498.453-.735.683zM52.594 80.9s-2.174-.66-2.639-.962c-.783-.536-1.575-1.108-2.409-1.695a2.2 2.2 0 0 0 1.203-.295c-.102-.203-.052-.26-.298-.732.766.494 1.31.902 2.03 1.393.75 1.097 2.113 2.291 2.113 2.291z"/><path d="M37.61 68.6c-.832-.471-3.5-1.924-5.728-2.459-.06.414.362 1.228.362 1.228s-2.968-1.743-5.488-1.983c.06.47.31 1.05.31 1.05s-1.445-.76-4.991-.483c-.078.437.139 1.094.139 1.094s-2.317-.414-5.562.356c.44.507 1.323 1.188 1.323 1.188s-2.215-.566-5.993.702c.276.57.964 1.364.964 1.364s-2.77.323-5.103 2.525c2.496.547 5.17.075 5.17.075s-.827.22-1.547 1.388c1.46.598 4.199.652 5.638.474-.606.527-.575 1.223-.575 1.223s3.026.205 5.997-1.212c-.742.708-.519 1.288-.519 1.288s2.573.295 5.673-.88c-.525.485-.717 1.275-.717 1.275s.926.04 2.194-.012a27.849 27.849 0 0 1 3.661-4.64c-3.968-.8-8.875-1.203-15.06-.91 6.516-1.38 12.005-1.302 16.591-.501.981-.818 2.072-1.568 3.26-2.15zM43.924 78.52c.623.353.737.534 1 .873-2.111.31-3.199 1.522-3.199 1.522s1.32.793 3.481.47c2.162-.323 2.425-1.157 4.249-1.018-.596-.43-1.669-1.255-2.26-1.568-1.544.1-1.581.045-3.271-.279zM60.131 85.223c-.57.92-1.923 1.141-2.37 1.229 1.2 1.172 3.212 3.314 3.212 3.314s.356-3.163.325-3.467c-.565-.536-.626-.589-1.167-1.076zM40 45h9v17c0 3-1 4-4 4s-4 0-5 2c-1-2-2-2-5-2s-4-1-4-4V45h9zm5.944 10.242c-.167-.18-.333-.36-.494-.541-.175-.194-.298-.27-.477-.27-.398 0-.825.219-1.054.372-.015.005-.026.02-.031.06.242-.023.485-.04.727-.068.212-.024.41-.016.593.121.144.107.226.24.233.412.023.553.463 1.717.491 2.064.034.139-.13.178-.359.82-.168.19-.624-.41-.557-.55.264-.347.338-.563.27-.822a10.72 10.72 0 0 0-.229-.779c-.1-.269-.326-.369-.606-.273-1.098.365-1.267-.121-2.356.337l1.254 1.942a.855.855 0 0 0-.274-.577c.036-.197.432-.277.58-.095.182.234.535.566.827.618.56.105.516.956 2.011 1.24-.185.193-.6.128-.78.041.108.169.234.327.459.386-.233.232-.897-.313-.83.236a.568.568 0 0 1 .41-.044c.298.075.788 1.773-.243 2.517.22.065.455-.051.678-.051.13 0 .252.126.265.267.096.075.16.166.215.282a.436.436 0 0 1-.31-.054c.033.093.025.32-.01.324-.093.013-.165-.04-.26-.098-.132.07-.569.042-.692-.069-.33.08-.655.188-.997.188-.185 0-.429-.012-.422-.239.005-.11.06-.167.102-.288-.157-.163-.42-.007-.734.024-.424.041-.6-.024-.691-.112.4-.373.158-1.28-.462-1.36.51.49.444 1.282-.127 1.46a.476.476 0 0 1 .31.245c.2.084.203.23.187.295-.109-.078-.308-.155-.465-.134-.011.069-.04.198-.1.247a.374.374 0 0 1-.19-.127c-.182-.138-1.32.128-1.388-.058-.044-.174.26-.32.54-.382-.72-.265-1.345-1.622-2.451-1.853-.515-.107-1.21.125-1.21.795 0 .329.263.582.548.582.264 0 .395-.182.395-.366-.043.032-.069.051-.095.073a.369.369 0 0 1-.513-.022c-.131-.126-.131-.349-.005-.498a.606.606 0 0 1 .397-.22c.432-.063.787.076 1.027.425a.932.932 0 0 1 .176.516c0 .773-.77.948-1.198.948-1.074 0-1.707-.77-1.707-1.663 0-.104.005-.21.022-.316.168-1.003 1.063-1.424 1.837-1.549a1.713 1.713 0 0 0-.563-.863c-.136-.115-.15-.209-.064-.355.116-.2.24-.397.29-.623.013-.05.018-.104.023-.158-.386.346-.924.663-1.67.89-.235.108-.36.324-.39.57a8.603 8.603 0 0 0-.047.866c-.001.068.047.14.084.204.138.24.29.471.326.769 0 .144-.723.16-.723.043-.007-.523-.356-.727-.318-1.072a4.823 4.823 0 0 0 .03-1.616c-.023-.136.05-.225.146-.298.153-.116.317-.222.47-.339.362-.276.512-.64.427-1.087a.742.742 0 0 0-.062-.17c-.18-.398-.311-.802-.311-1.252 0-.493-.61-.465-.57.02.013.15.125.362.189.507.625 1.443-.5 2.48-1.662 2.48 1.222-.424-.286-1.992-.286-3.163 0-.717.553-1.247 1.213-1.247.762 0 1.244.491 1.382.576.369-.586 1.497-.691 1.92-.759-.032-.315.012-.595.205-.836.012-.018.02-.048.015-.066a3.66 3.66 0 0 0-.208-.44c-.348.393-.431.914-.431 1.183-1.286-.018-1.853-.583-2.233-.805.002-.099.344-.715.648-1.123a3.318 3.318 0 0 0-.808.993 2.938 2.938 0 0 0-.566-.332c.29-.621.674-1.106 1.164-1.612-.69.255-1.29 1.037-1.517 1.527a2.612 2.612 0 0 0-.649 0c.752-.919 1.094-2.733 2.745-3.14-.413 1.682.615 2.366 1.324 1.927-.093 0-.156.014-.216 0-1.38-.35-.562-2.267-.896-2.667-.126-.152-.192-.29-.171-.481a.396.396 0 0 0-.044-.208l-.734-1.23c-.092-.153.194-.263.254-.192l.75 1.23c.02.028.043.074.072.08.273.048.358.276.468.476.034.066.062.14.069.213.005.056-.01.134-.048.172-.12.122-.096.24-.004.396.148.252 4.583 7.65 4.583 7.65-.963.394-2.705.426-3.21.377a2.616 2.616 0 0 1-.51.789 2.61 2.61 0 0 0 .601-.575c.195.022.487.1.785.122a3.475 3.475 0 0 1-.782 1.07c-.16.16-.36.298-.286.552.082.285.611.83.805 1.18.191.04.515.11.753.204.134.291.593.657 1.145.468-1.11-.015-1.029-1.153-.684-1.755-.036.56.233 1.024.575 1.076-.513-.467-.462-1.53.037-2.114.072.947.358 1.445.768 1.556-.541-.498-.867-1.654-.048-2.496.063 2.161 2.04 1.771 2.22 4.273.732 0 .773-.987.365-1.169-.238-.09-.454-.247-.574-.46-.051-.09-.104-.25-.146-.345-.218-.643-.832-.603-.817-.757.014-.05.11-.075.247-.075l-1.158-1.792-.061-.093c.14-.029.17-.109.028-.336 0 0-4.345-7.233-4.365-7.275.403-.07.792.04 1.169.186a.621.621 0 0 1-.2-.36c-.015-.109-.01-.171.076-.24.093-.076.182-.163.246-.261.215-.329.611-.489.972-.386.544.154.736.769.337 1.093-.213.47-.476.41-.531.62.107.049.85.624.9.866-.222.461-.332 1.183-.14 1.586.144-1.919 1.299-2.859 2.422-2.859.267 0 .533.048.799.139.145.05.29.12.412.212.176.134.342.286.489.449.22.24.42.498.793.515-.11.155-.233.269-.36.38a.438.438 0 0 0-.149.306c-.026.266-.113.51-.31.706a.281.281 0 0 0-.06.094c-.123.362-.25.723-.367 1.088-.03.089-.024.211-.144.21a.532.532 0 0 1-.306-.095c-.165-.134-.224-.329-.165-.534.058-.203 0-.38-.064-.57-.065-.19-.09-.395-.134-.612-.307-.107-.883.553-.443 1.106.286.407.542 1.158.587 1.466.008.03-.26.2-.632.153-1.253-.16-2.045-1.033-2.286-1.767-.02 1.245 1.013 2.167 2.542 2.078.062.291.3.487.574.496.058-.187.056-.58.01-.829-.02-.11.036-.167.138-.193.334-.086.77-.052 1.142-.185.33-.119.487-.05.692.35.156.302.422.626.673.851.105.093.21.188.31.288a.681.681 0 0 1 .204.462c-.034.291.005.873.005.883-.073.191-.601-.01-.687-.217-.032-.076.226-.614-.045-.903v.006zM34.685 61c-.027.36.39 1.012 1.077.807-.02.134.018.496.171.768-1.218.277-1.744-.727-1.247-1.575zM55.878 24.438s.05-1.826-3.95-1.826-5.048 2.133-7.115 1.363c.336.95.867 1.15 1.305 1.138-.978.442-1.263 1.445-2.801 1.584 1.212 1.152 2.948.78 2.948.78s-.326.81-.294 1.753c1.275.263 2.126-.134 2.673-.563-.633.723-.685 1.975-.685 1.975s3.763-.47 5.818-2.705c2.055-2.234 2.101-3.5 2.101-3.5zm-3.924.2s1.266-.657 2.156-.494c.89.163.293 1.84-.479 1.243-.771-.597-.65-.649-1.677-.748zM55 28.02s1.468-1.343 1.792-3.477c1.692-.217 3.658.84 2.242 3.46-.65-1.415-2.023.219-4.035.018z"/><path d="M54.855 28.186c2.213-.19 3.77 1.105 4.958.416-.768 1.017-1.885.723-2.97.472.264.372-.033.67-.033.67s-.7-.623-2.088-.363c-1.387.26-1.472.602-2.695.713 1.26-.509 2.021-1.109 2.828-1.908zM48.317 31.396s-.925.5-1.483.523c.107-.96.232-1.763.232-1.763s-.803.286-2.049.286c-.057-1.304.075-2.064.075-2.064s-.712-.07-1.781-.357c-1.752 1.248-1.813 3.732-3.048 4.512 1.56.336 2.33-.217 2.703-.526-.444.816-.782 2.252-.634 3.534 1.794-.433 2.358-1.638 2.358-1.638s-.577 2.246 1.879 3.328c-.14-1.118-.117-2.981 1.748-5.835z"/><path d="M44.08 35.92s.448 1.48 1.856 2.317c.014 1.994 1.058 5.164 4.186 4.984-1.841 1.505-4.63.958-5.314-.81.111 1.496-.893 1.867-.893 1.867s-1.498-.184-1.657-2.264c-.072 1.886-1.131 2.183-1.131 2.183S40 44 40 42v-7c0-1 .237-1.399.237-1.399s.492.101 1.26-.038c-.325 1.36-.36 2.427.044 3.24 1.361.103 2.538-.884 2.538-.884zM50 47s1.862 1.536 4.89-.35c3.028-1.885 3-4.379 2.017-5.2-.982-.82-1.807-.767-2.76-1.26-.951-.494-2.02-2.875 1.018-6.385 3.037-3.51 5.591-4.079 7.183-5.532 1.591-1.454 1.86-2.86 1.86-2.86s1.902 2.763-1.003 5.499c-.032 2.45-1.538 4.009-3.904 4.559 1.024-.116 1.342.54 1.342.54s.267.791-.895 1.962c1.252-.07 1.95.636 1.95.636s-.037 1.107-1.507 1.494c1.294.03 1.898.73 1.898.73s-.52.726-1.853 1.14c1.292-.062 1.8.835 1.8.835s-.49 1.213-2.014 1.158c1.448.125 1.784 1.138 1.784 1.138s-.806.833-2.191.657c.818.364.995 1.27.995 1.27s-1.023.743-2.115.353c.637.695.306 1.642.306 1.642s-1.506.15-2.404-.345c.569.588-.156 1.616-.156 1.616s-1.345.258-2.771-.85c.52.814-.517 1.787-.517 1.787S50 51 50 49v-2z"/><path d="M61.653 35.68s2.494-1.167 2.633-4.677c1.568-.505 2.937-.225 2.937-.225s.088 1.895-2.155 3.521c1.457-.275 2.894.127 2.894.127s-.231 2.303-2.548 3.947c1.8-.211 2.69.338 2.69.338s-.533 1.799-2.463 2.124c1.678.069 2.19 1.257 2.19 1.257s-.336 1.306-2.534 1.476c1.569.109 2.074 1.453 2.074 1.453s-.81 1.32-3.034 1.374c1.662.194 1.81 1.013 1.81 1.013s-.632 1.493-3.66 1.206c1.483.515 1.423 2.013 1.423 2.013s-1.476 1.098-3.56.061c1.128.793.755 2.197.755 2.197s-1.574.851-3.606-.88c.57 1.206.16 2.813.16 2.813s-2.222.228-3.504-2.339c.524 1.71-.768 3.506-.768 3.506S50 55 50 52v-1s1.108 1.285 3.133 1.338c.944-.789 1.053-1.578 1.053-1.578s.665.494 2.387.463c.655-.687.67-1.516.67-1.516s.586.294 2.172.193c.339-1.05.084-1.654.084-1.654s1.419.045 2.131-.813c-.3-1.012-.656-1.206-.656-1.206s1.015.163 1.957-.765c-.417-.93-1.206-1.417-1.206-1.417s.74-.278 1.276-1.268c-.717-.843-1.213-.99-1.213-.99s.728-.178 1.27-1.006c-.782-.897-1.424-.944-1.424-.944s.741-.429 1.166-1.435c-.777-.795-1.844-.865-1.844-.865s.865-.906.697-1.857z"/><path d="M65.623 25.735c3.377-3.562 6.533-8.608 6.92-13.68 3.22 3.367 2.08 7.942.44 9.58.384 2.857-.056 5.46-2.905 6.749a4.418 4.418 0 0 1-2.104 3.57c.478-.809.408-1.853.408-1.853s-.746-.704-2.98-.31c.938-1.956.61-2.943.221-4.056z"/><path d="M75.507 18.947s.716-.536 1.56-.668c.58 2.115 1.328 5.371-1.854 8.652.303 3.305-.823 5.02-3.21 6.124-.52 2.58-2.356 3.63-4.018 3.985.802-1.189 1.077-2.262 1.046-3.118-1.085-.546-1.873-.643-1.873-.643s3.938-1.594 3.862-4.365c2.316-1.278 3.57-3.783 3.01-6.96 1.272-1.277 1.477-3.007 1.477-3.007z"/><path d="M77.32 25.424s.593-.541 1.66-.766c.353 2.62.554 6.048-2.667 8.582-.023 3.068-2.099 4.48-4.294 4.813-1.484 2.256-4.186 2.627-4.186 2.627s1.08-.84 1.358-2.172c-.732-.612-1.73-.774-1.73-.774s4.691-.267 5.292-4.206c2.317-1.151 3.583-3.39 3.39-6.35a35.41 35.41 0 0 0 1.177-1.754z"/><path d="M77.382 33.476c.773-.753 1.436-.847 2.51-1.15-.02 3.623-1.421 5.89-3.935 6.736-1.308 2.151-2.937 1.942-3.988 2.004-.88 1.523-2.3 1.901-3.599 1.924.63-.377.8-1.017.8-1.017s-.438-.565-.938-.731c1.721-.208 3.464-1.1 4.406-2.486 2.985-.684 4.454-2.534 4.744-5.28z"/><path d="M76.848 39.538c.851.008 2.357.418 2.955 1.473-2.857 3.893-9.163 3.9-11.366 3.923-.025-.336-.318-.94-1.06-1.222 2.417-.096 3.942-.206 5.114-1.891 2.057-.055 3.009-.685 4.357-2.283z"/><path d="M68.479 45.531s4.917.393 8.378-1.151c1.422.741 2.164 2.074 2.164 2.074s-1.698 2.455-11.794 1.026c-.093-.485-.304-.645-.642-.864 1.005-.084 1.894-1.085 1.894-1.085zM67.017 47.915s2.935 1.06 8.11.78c1.33.853 1.931 2.455 1.931 2.455s-4.647 1.89-12.46-1.83c1.707-.28 2.419-1.405 2.419-1.405zM64.573 49.95c1.858 1.086 4.629 2.38 8.026 2.611 1.328 1.002 1.708 2.28 1.781 2.716-1.21.449-5.484 1.075-12.221-3.581 1.854.344 2.841-.354 2.841-.354s0-.773-.427-1.391zM59.58 53.958s1.359.34 2.596.068c.17-.904-.032-1.585-.032-1.585s2.856 2.382 6.253 3.417c1.22 1.7 1.506 3.886 1.506 3.886s-2.098.263-4.903-1.314c-2.805-1.576-5.42-4.472-5.42-4.472zM58.636 53.837s2.827 3.69 4.955 4.867c.536 2.127.374 4.568.374 4.568s-4.27.08-7.476-7.929c.962.395 1.854.52 1.854.52s.317-.828.293-2.026zM55.74 55.083s.924 3.143 2.931 5.82c.342 2.875-.473 4.052-.473 4.052s-3.645-.726-4.52-7.803c.766-1.033 1.021-1.723 1.114-2.843.31.426.949.774.949.774zM53.183 57.127s.761 2.962-1.217 4.218C50.551 60.455 50 59 50 57v-3c.603 2.111 3.183 3.127 3.183 3.127z"/><path d="M50 60c0 2 2.718 3.128 4.133 2.642-.283.448-.385.336-.615.525 1.824.523 2.644 1.82 2.644 1.82s-1.242.007-1.853.209c.146-.813.037-.864.037-.864s-1.156-.28-5.14 1.372c.834-.961.784-2.31.794-5.704zM40 81s.744.943 1.95 1.122C42.887 86.067 43 91 40 94V81z"/><path d="M42.691 82.28s1.567 5.989-.435 9.597c.505.596 1.472 1.063 1.84 1.185 2.862-2.865 2.635-5.462 1.492-10.827-1.466.339-2.897.046-2.897.046z"/><path d="M46.204 82.083c.573 2.693 1.315 4.287.541 7.45a2.76 2.76 0 0 0 1.491.776s3.44-3.3.66-9.43c-1.224.306-1.638.906-2.692 1.204zM24.122 24.438s-.05-1.826 3.95-1.826 5.048 2.133 7.115 1.363c-.336.95-.867 1.15-1.305 1.138.978.442 1.263 1.445 2.801 1.584-1.212 1.152-2.948.78-2.948.78s.326.81.294 1.753c-1.275.263-2.126-.134-2.673-.563.633.723.685 1.975.685 1.975s-3.763-.47-5.818-2.705c-2.055-2.234-2.101-3.5-2.101-3.5zm3.924.2s-1.266-.657-2.156-.494c-.89.163-.293 1.84.479 1.243.771-.597.65-.649 1.677-.748zM25 28.02s-1.468-1.343-1.792-3.477c-1.692-.217-3.658.84-2.242 3.46.65-1.415 2.023.219 4.035.018z"/><path d="M25.145 28.186c-2.213-.19-3.77 1.105-4.958.416.768 1.017 1.885.723 2.97.472a.518.518 0 0 0 .033.67s.7-.623 2.088-.363c1.387.26 1.472.602 2.695.713-1.26-.509-2.021-1.109-2.828-1.908zM31.683 31.396s.925.5 1.483.523a45.832 45.832 0 0 0-.232-1.763s.803.286 2.049.286c.057-1.304-.075-2.064-.075-2.064s.712-.07 1.781-.357c1.752 1.248 1.813 3.732 3.048 4.512-1.56.336-2.33-.217-2.703-.526.444.816.782 2.252.634 3.534-1.794-.433-2.358-1.638-2.358-1.638s.577 2.246-1.879 3.328c.14-1.118.117-2.981-1.748-5.835z"/><path d="M35.92 35.92s-.448 1.48-1.856 2.317c-.014 1.994-1.058 5.164-4.186 4.984 1.841 1.505 4.63.958 5.314-.81-.111 1.496.893 1.867.893 1.867s1.498-.184 1.657-2.264c.072 1.886 1.131 2.183 1.131 2.183S40 44 40 42v-7c0-1-.237-1.399-.237-1.399s-.492.101-1.26-.038c.325 1.36.36 2.427-.044 3.24-1.361.103-2.538-.884-2.538-.884zM30 47s-1.862 1.536-4.89-.35c-3.028-1.885-3-4.379-2.017-5.2.982-.82 1.807-.767 2.76-1.26.951-.494 2.02-2.875-1.018-6.385-3.037-3.51-5.591-4.079-7.183-5.532-1.591-1.454-1.86-2.86-1.86-2.86s-1.902 2.763 1.003 5.499c.032 2.45 1.538 4.009 3.904 4.559-1.024-.116-1.342.54-1.342.54s-.267.791.895 1.962c-1.252-.07-1.95.636-1.95.636s.037 1.107 1.507 1.494c-1.294.03-1.898.73-1.898.73s.52.726 1.853 1.14c-1.292-.062-1.8.835-1.8.835s.49 1.213 2.014 1.158c-1.448.125-1.784 1.138-1.784 1.138s.806.833 2.191.657c-.818.364-.995 1.27-.995 1.27s1.023.743 2.115.353c-.637.695-.306 1.642-.306 1.642s1.506.15 2.404-.345c-.569.588.156 1.616.156 1.616s1.345.258 2.771-.85c-.52.814.517 1.787.517 1.787S30 51 30 49v-2z"/><path d="M18.347 35.68s-2.494-1.167-2.633-4.677c-1.568-.505-2.937-.225-2.937-.225s-.088 1.895 2.155 3.521c-1.457-.275-2.894.127-2.894.127s.231 2.303 2.548 3.947c-1.8-.211-2.69.338-2.69.338s.533 1.799 2.463 2.124c-1.678.069-2.19 1.257-2.19 1.257s.336 1.306 2.534 1.476c-1.569.109-2.074 1.453-2.074 1.453s.81 1.32 3.034 1.374c-1.662.194-1.81 1.013-1.81 1.013s.632 1.493 3.66 1.206c-1.483.515-1.423 2.013-1.423 2.013s1.476 1.098 3.56.061c-1.128.793-.755 2.197-.755 2.197s1.574.851 3.606-.88c-.57 1.206-.16 2.813-.16 2.813s2.222.228 3.504-2.339c-.524 1.71.768 3.506.768 3.506S30 55 30 52v-1s-1.108 1.285-3.133 1.338c-.944-.789-1.053-1.578-1.053-1.578s-.665.494-2.387.463c-.655-.687-.67-1.516-.67-1.516s-.586.294-2.172.193c-.339-1.05-.084-1.654-.084-1.654s-1.419.045-2.131-.813c.3-1.012.656-1.206.656-1.206s-1.015.163-1.957-.765c.417-.93 1.206-1.417 1.206-1.417s-.74-.278-1.276-1.268c.717-.843 1.213-.99 1.213-.99s-.728-.178-1.27-1.006c.782-.897 1.424-.944 1.424-.944s-.741-.429-1.166-1.435c.777-.795 1.844-.865 1.844-.865s-.865-.906-.697-1.857zM28.904 78.013s-1.49.734-2.007.247c-.517-.488-1.406-1.734-2.534-1.045-1.128.689-.783 3.458.555 4.466.233-.815 1.142-.37 1.267-1.355.125-.984-.827-1.404-.827-1.404s1.266.07 1.537.873c.99-.782 2.01-1.782 2.01-1.782zM23.059 78.265s-1.61-.497-1.842 1.32c-.232 1.816.393 3.036 1.93 3.793-.305-.664.722-1.186.745-1.411-1.508-1.847-.833-3.702-.833-3.702zM20.549 80.658c-.505.227-1.072 1.241-.826 2.4.246 1.159.954 2.139 2.373 2.228-.316-.548.147-.999.066-1.267-.886-.604-1.694-1.77-1.613-3.361zM24.61 82.646c-.811.759-.993 2.006-.536 2.996.456.99 2.463 1.25 3.136-.247.672-1.498.423-2.835 1.236-4.044-1.37.97-1.842 1.402-1.842 1.402s.34 1.127-.266 2.047c.373-.937.056-1.502-.481-1.66-.537-.158-1.014.017-1.246-.494z"/><path d="M14.377 25.735c-3.377-3.562-6.533-8.608-6.92-13.68-3.22 3.367-2.08 7.942-.44 9.58-.384 2.857.056 5.46 2.905 6.749a4.418 4.418 0 0 0 2.104 3.57c-.478-.809-.408-1.853-.408-1.853s.746-.704 2.98-.31c-.938-1.956-.61-2.943-.221-4.056z"/><path d="M4.493 18.947s-.716-.536-1.56-.668c-.58 2.115-1.328 5.371 1.854 8.652-.303 3.305.823 5.02 3.21 6.124.52 2.58 2.356 3.63 4.018 3.985-.802-1.189-1.077-2.262-1.046-3.118 1.085-.546 1.873-.643 1.873-.643s-3.938-1.594-3.862-4.365c-2.316-1.278-3.57-3.783-3.01-6.96-1.272-1.277-1.477-3.007-1.477-3.007z"/><path d="M2.68 25.424s-.593-.541-1.66-.766c-.353 2.62-.554 6.048 2.667 8.582.023 3.068 2.099 4.48 4.294 4.813 1.484 2.256 4.186 2.627 4.186 2.627s-1.08-.84-1.358-2.172c.732-.612 1.73-.774 1.73-.774s-4.691-.267-5.292-4.206c-2.317-1.151-3.583-3.39-3.39-6.35-.596-.823-1.177-1.754-1.177-1.754z"/><path d="M2.618 33.476c-.773-.753-1.436-.847-2.51-1.15.02 3.623 1.421 5.89 3.935 6.736 1.308 2.151 2.937 1.942 3.988 2.004.88 1.523 2.3 1.901 3.599 1.924-.63-.377-.8-1.017-.8-1.017s.438-.565.938-.731c-1.721-.208-3.464-1.1-4.406-2.486-2.985-.684-4.454-2.534-4.744-5.28zM3.152 39.538c-.851.008-2.357.418-2.955 1.473 2.857 3.893 9.163 3.9 11.366 3.923.025-.336.318-.94 1.06-1.222-2.417-.096-3.942-.206-5.114-1.891-2.057-.055-3.009-.685-4.357-2.283z"/><path d="M11.521 45.531s-4.917.393-8.378-1.151C1.72 45.12.979 46.454.979 46.454s1.698 2.455 11.794 1.026c.093-.485.304-.645.642-.864-1.005-.084-1.894-1.085-1.894-1.085zM12.983 47.915s-2.935 1.06-8.11.78c-1.33.853-1.931 2.455-1.931 2.455s4.647 1.89 12.46-1.83c-1.707-.28-2.419-1.405-2.419-1.405zM15.427 49.95c-1.858 1.086-4.629 2.38-8.026 2.611-1.328 1.002-1.708 2.28-1.781 2.716 1.21.449 5.484 1.075 12.221-3.581-1.854.344-2.841-.354-2.841-.354s0-.773.427-1.391zM20.42 53.958s-1.359.34-2.596.068c-.17-.904.032-1.585.032-1.585S15 54.823 11.603 55.858c-1.22 1.7-1.506 3.886-1.506 3.886s2.098.263 4.903-1.314c2.805-1.576 5.42-4.472 5.42-4.472zM21.364 53.837s-2.827 3.69-4.955 4.867c-.536 2.127-.374 4.568-.374 4.568s4.27.08 7.476-7.929c-.962.395-1.854.52-1.854.52s-.317-.828-.293-2.026zM24.26 55.083s-.924 3.143-2.931 5.82c-.342 2.875.473 4.052.473 4.052s3.645-.726 4.52-7.803c-.766-1.033-1.021-1.723-1.114-2.843-.31.426-.949.774-.949.774zM26.817 57.127s-.761 2.962 1.217 4.218C29.449 60.455 30 59 30 57v-3c-.603 2.111-3.183 3.127-3.183 3.127zM27.412 80.9s2.175-.66 2.639-.962c5.555-3.8 11.584-9.464 29.536-9.022-15.24-1.835-23.484 3.205-30.062 7.693-.75 1.097-2.113 2.291-2.113 2.291z"/><path d="M29.698 77.375c1.278-1.713 2.721-4.723 7.219-7.165.058.304-.017.972-.188 1.328 1.183-1.698 4.794-3.437 6.078-3.824.086.57-.535 1.46-.535 1.46s3.177-2.39 5.853-3.033c.058.414-.363 1.228-.363 1.228s2.968-1.743 5.488-1.983c-.06.47-.31 1.05-.31 1.05s1.445-.76 4.992-.483c.077.437-.14 1.094-.14 1.094s2.317-.414 5.562.356c-.44.507-1.323 1.188-1.323 1.188s2.215-.566 5.993.702c-.275.57-.963 1.364-.963 1.364s2.768.323 5.102 2.525c-2.496.547-5.17.075-5.17.075s.828.22 1.547 1.388c-1.46.598-4.198.652-5.638.474.606.527.575 1.223.575 1.223s-3.026.205-5.997-1.212c.742.708.519 1.288.519 1.288s-2.573.295-5.673-.88c.525.485.717 1.275.717 1.275s-3.989.173-6.739-.667c.855.296 1.117 1.428 1.117 1.428s-2.244.63-5.944.13c1.127.457 1.46 1.19 1.46 1.19s-3.004.945-6.14.612c1.066.464 1.484 1.409 1.484 1.409s-1.32.793-3.481.47c-2.162-.323-2.425-1.157-4.249-1.018 4.758-3.43 11.234-10.089 31.697-9.115-17.372-3.68-27.454 3.003-32.55 6.123zM19.83 84.984c.549.907 1.274 1.176 2.173 1.239-1.2 1.172-3.172 3.246-3.172 3.246s-.417-2.915-.386-3.218c.565-.536.938-.864 1.386-1.267zM30 60c0 2-2.718 3.128-4.133 2.642.283.448.385.336.615.525-1.824.523-2.644 1.82-2.644 1.82s1.242.007 1.853.209c-.146-.813-.037-.864-.037-.864s1.156-.28 5.14 1.372c-.834-.961-.784-2.31-.794-5.704zM40 81s-.744.943-1.95 1.122C37.113 86.067 37 91 40 94V81z"/><path d="M37.309 82.28s-1.567 5.989.435 9.597c-.505.596-1.472 1.063-1.84 1.185-2.862-2.865-2.635-5.462-1.492-10.827 1.466.339 2.897.046 2.897.046z"/><path d="M33.796 82.083c-.573 2.693-1.315 4.287-.541 7.45a2.76 2.76 0 0 1-1.491.776s-3.44-3.3-.66-9.43c1.224.306 1.638.906 2.692 1.204zM50.985 12.538h.732l-.091-.94.916.094v-.753l-.916.093.091-.941h-.732l.091.941-.915-.095v.754l.916-.095-.091.942zM51.352 18.902c.378 0 .686-1.986.686-2.975 0-.54-.307-.894-.687-.894-.38 0-.687.355-.687.894 0 .99.307 2.975.686 2.975h.002z"/><path d="M54.772 20.477c.244-.766.519-1.93.519-2.492 0-1.027-.57-2.165-2.568-2.514 0 1.266-.603 4.284-1.33 4.284h-.082c-.727 0-1.331-3.042-1.331-4.284-1.993.35-2.544 1.488-2.544 2.515 0 .562.275 1.726.518 2.492h6.818zM51.901 13.856a.559.559 0 0 0-.55-.564.559.559 0 0 0-.55.565c0 .312.247.566.55.566.302 0 .549-.254.549-.566l.001-.001zM54.214 21.963s.141-.347.32-.847h-6.342c.18.5.32.847.32.847h5.702zM43.61 17.292h-2.325c.778 3.62 3.694 4.66 6.73 4.66l-.102-.27c-2.36 0-3.89-1.78-4.303-4.389zM28.456 12.537h.732l-.09-.94.914.095v-.754l-.916.093.091-.94h-.732l.092.94-.917-.094v.753l.917-.094-.092.941zM28.823 18.901c.378 0 .686-1.985.686-2.974 0-.54-.308-.895-.687-.895-.378 0-.686.355-.686.895 0 .989.307 2.974.687 2.974z"/><path d="M32.22 20.476c.243-.765.518-1.93.518-2.491 0-1.027-.553-2.165-2.546-2.514 0 1.242-.601 4.283-1.33 4.283h-.081c-.728 0-1.331-3.018-1.331-4.283-1.999.349-2.567 1.487-2.567 2.514 0 .562.276 1.726.519 2.492h6.817zM29.37 13.855a.557.557 0 0 0-.548-.564.558.558 0 0 0-.549.565c0 .313.246.566.55.566.304 0 .55-.253.55-.565l-.002-.002zM25.96 21.962h5.701s.142-.347.32-.847H25.64c.179.5.32.847.32.847zM32.263 21.681l-.104.271c3.033 0 5.951-1.04 6.73-4.66h-2.325c-.412 2.608-1.944 4.389-4.303 4.389h.002zM40.088 12.39c.597 0 1.368-2.49 1.564-4.845 0-.477-.596-1.207-1.564-1.225-.967.02-1.563.75-1.563 1.226.173 2.197.976 4.844 1.563 4.844z"/><path d="M44.782 14.084c.2-.25 1.193-2.175 1.193-4.119 0-1.749-2.194-2.713-3.498-2.756-.152 2.499-1.122 6.422-2.389 6.422-1.197 0-2.24-3.9-2.388-6.422-1.305.043-3.498 1.007-3.498 2.756 0 1.944.993 3.87 1.193 4.118h9.387zM44.318 15.03c0-.221-.173-.4-.385-.4a.393.393 0 0 0-.386.4c0 .219.173.398.386.398a.393.393 0 0 0 .385-.4v.001zM36.565 15.03c0-.221-.173-.4-.385-.4a.394.394 0 0 0-.387.4c0 .219.175.398.386.398a.393.393 0 0 0 .386-.4v.001zM36.176 16.505c.104.039.225.059.368.059h7.088c.144 0 .264-.02.368-.059.228-.081.368-.254.422-.528h-8.668c.054.274.193.446.422.528zM38.494 15.03c0-.221-.173-.4-.385-.4a.394.394 0 0 0-.387.4c0 .219.173.398.385.398a.393.393 0 0 0 .387-.4v.001zM39.597 3.095h.983l-.106-1.19 1.069.113v-.942l-1.07.115L40.58 0h-.984l.106 1.19-1.068-.114v.942l1.069-.113-.107 1.19zM39.364 4.681c0 .412.324.748.722.748a.737.737 0 0 0 .723-.748.736.736 0 0 0-.722-.746.736.736 0 0 0-.722.747h-.001zM42.39 15.03c0-.221-.173-.4-.386-.4a.393.393 0 0 0-.385.4c0 .219.172.398.385.398a.393.393 0 0 0 .385-.4v.001zM40.442 15.03c0-.221-.173-.4-.386-.4a.393.393 0 0 0-.385.4c0 .219.172.398.385.398a.393.393 0 0 0 .386-.4v.001zM23.612 17.642s-.628-1.248-2.871-1.24c-2.243.008-2.684 1.201-2.684 1.201l-1.63-2.411s1.29-1.833 4.42-1.755c3.128.078 4.071 1.665 4.071 1.665l-1.306 2.54zM56.756 17.642s.627-1.248 2.87-1.24c2.244.008 2.684 1.201 2.684 1.201l1.63-2.411s-1.29-1.833-4.42-1.755c-3.128.078-4.07 1.665-4.07 1.665l1.306 2.54z"/><path d="M55.027 21.974c2.518-.053 3.816-2.414 3.631-4.834-.92.307-1.608 1.034-1.608 1.034s.75 2.927-2.023 3.8zM63.42 17l-1.628 2.247s2.324 1.945 6.386 1.07c-.587-.4-.995-1.196-.995-1.196s1.071-.295 2.184-1.672c-2.2.375-4.274.343-5.946-.449zM25.34 21.974c-2.517-.053-3.816-2.414-3.63-4.834.92.307 1.607 1.034 1.607 1.034s-.75 2.927 2.024 3.8zM16.947 17l1.629 2.247s-2.325 1.945-6.387 1.07c.587-.4.995-1.196.995-1.196s-1.07-.295-2.184-1.672c2.2.375 4.275.343 5.947-.449z"/></g><path opacity=".5" d="M-26-4h132V96H-26z"/></g></svg>