<svg width="20" height="20" viewBox="0 0 20 20" xmlns="http://www.w3.org/2000/svg" xmlns:xlink="http://www.w3.org/1999/xlink"><title>FB2902CC-44AB-412E-B116-B82B7D5EB22D</title><defs><circle id="a" cx="10" cy="10" r="10"/><mask id="b" x="0" y="0" width="20" height="20" fill="#fff"><use xlink:href="#a"/></mask><circle id="c" cx="10" cy="10" r="10"/></defs><g fill="none" fill-rule="evenodd"><path d="M10.013.428c5.283 0 9.584 4.302 9.584 9.585 0 5.283-4.301 9.584-9.584 9.584-5.283 0-9.585-4.301-9.585-9.584C.428 4.73 4.73.428 10.013.428zm0-.378C4.503.05.05 4.516.05 10.013c0 5.496 4.466 9.962 9.963 9.962 5.496 0 9.962-4.466 9.962-9.962 0-5.497-4.453-9.963-9.962-9.963z" fill="#FFF"/><use stroke="#0066B3" mask="url(#b)" xlink:href="#a"/><mask id="d" fill="#fff"><use xlink:href="#c"/></mask><ellipse stroke="#0066B3" stroke-width=".25" mask="url(#d)" cx="10" cy="7.5" rx="11" ry="8.5"/><ellipse stroke="#0066B3" stroke-width=".25" mask="url(#d)" cx="10" cy="5.5" rx="9" ry="6.5"/><ellipse stroke="#0066B3" stroke-width=".25" mask="url(#d)" cx="10" cy="3" rx="6" ry="4"/><ellipse stroke="#0066B3" stroke-width=".25" mask="url(#d)" cx="10" cy="2.5" rx="3" ry="1.5"/><path d="M-8 11S0 0 10 2s10 12 10 12v7H-8V11z" stroke="#0066B3" stroke-width=".25" mask="url(#d)"/><path d="M-1 0s5-3 11 2 5 19 5 19H-1V0z" stroke="#0066B3" stroke-width=".25" mask="url(#d)"/><path d="M0 11S8 0 18 2s10 12 10 12v7H0V11z" stroke="#0066B3" stroke-width=".25" mask="url(#d)" transform="matrix(-1 0 0 1 28 0)"/><path d="M5 0s5-3 11 2 5 19 5 19H5V0z" stroke="#0066B3" stroke-width=".25" mask="url(#d)" transform="matrix(-1 0 0 1 26.063 0)"/><path d="M10 0v20" stroke="#0066B3" stroke-width=".25" mask="url(#d)"/><path d="M2.5 16c1 0 2 .5 3 .5S8 16.5 9 15s.792-2.532.76-3.517c-.03-.984.74-1.552.959-1.656.218-.105.781-.327.781-.327s-.648-.074-.814-.207C10.519 9.161 10.5 8.5 9.5 8.5s-1 1-2 2c.675-1.996-.402-2.701-.72-4.339-.332-1.713.26-3.316.26-3.316s-1.692.604-2.795 2.24c-1.104 1.634-.769 3.513-.329 4.108C3.422 8.97 1.79 7.437 2 4.5.5 7.5.465 7.55.259 10.24c.83 2.412 2.7 3.578 4.741 3.26-1.5 1-2.178 1.187-3.7.715.603 1.264.743 1.442 1.2 1.785zm7.25-6.5a.25.25 0 1 0 0-.5.25.25 0 0 0 0 .5z" fill="#0066B3"/><path d="M10.796 10.984s.584-1.007.665-2.361C11.542 7.253 11 6.43 11 6.43l.093-.062s.641.745.624 2.27c-.018 1.525-.583 2.515-.583 2.515l-.34-.17z" fill="#0066B3"/><path d="M11.12 6.505s-.32-.024-.571-.445c-.251-.42-.201-.776-.201-.776s.36.083.625.543c.266.46.147.678.147.678zM11.625 7.74s.298-.122.406-.6c.108-.477-.049-.8-.049-.8s-.316.19-.427.71c-.11.519.07.69.07.69zM11.67 9.013s.322-.006.595-.413c.272-.408.241-.765.241-.765s-.363.064-.653.51c-.29.444-.182.668-.182.668zM11.44 10.248s.306.099.696-.198c.39-.296.477-.644.477-.644s-.365-.058-.783.269c-.419.326-.39.573-.39.573zM11.397 7.221s-.297.125-.711-.136c-.415-.262-.532-.601-.532-.601s.358-.09.804.2c.445.289.439.537.439.537zM11.533 8.517s-.314.072-.677-.258c-.363-.329-.419-.683-.419-.683s.369-.026.757.336c.389.362.34.605.34.605z" fill="#0066B3"/></g></svg>