<svg width="20" height="20" viewBox="0 0 20 20" xmlns="http://www.w3.org/2000/svg"><title>rs_logo_mini</title><g fill="#0066B3" fill-rule="evenodd"><path d="M19.964 10.86c-.017.197-.04.392-.068.586-1.848 2.781-5.588 4.679-9.896 4.679-4.308 0-8.048-1.898-9.896-4.679-.028-.194-.05-.39-.068-.586 1.681 2.95 5.507 5.015 9.964 5.015 4.457 0 8.283-2.065 9.964-5.015z"/><path d="M18.874 5.385c.083.16.162.322.237.487-.266 3.495-4.25 6.253-9.111 6.253-4.861 0-8.845-2.758-9.11-6.253.074-.165.153-.327.236-.487a4.652 4.652 0 0 0-.001.115c0 3.51 3.966 6.375 8.875 6.375S18.875 9.01 18.875 5.5l-.001-.115z"/><path d="M15.508 1.652c.14.093.28.19.415.29.132.337.202.692.202 1.058 0 2.291-2.75 4.125-6.125 4.125S3.875 5.291 3.875 3c0-.366.07-.72.202-1.058.136-.1.274-.197.415-.29-.237.42-.367.875-.367 1.348 0 2.127 2.622 3.875 5.875 3.875S15.875 5.127 15.875 3c0-.473-.13-.927-.367-1.348z"/><path d="M10 4.125c1.717 0 3.125-.704 3.125-1.625S11.717.875 10 .875 6.875 1.579 6.875 2.5 8.283 4.125 10 4.125zm0-.25c-1.597 0-2.875-.64-2.875-1.375 0-.736 1.278-1.375 2.875-1.375s2.875.64 2.875 1.375c0 .736-1.278 1.375-2.875 1.375z"/><path d="M10.13 2.277c1.975 1.764 3.293 4.659 4.055 8.374.55 2.686.762 5.486.757 8.045.084-.048.167-.097.25-.148-.003-2.533-.218-5.294-.762-7.947-.753-3.673-2.047-6.562-3.989-8.378 3.66.849 6.172 2.85 7.735 5.665a13.839 13.839 0 0 1 1.538 4.497c.052-.211.097-.426.135-.643a13.992 13.992 0 0 0-1.454-3.976c-1.576-2.836-4.099-4.867-7.75-5.752 2.038-.303 4.059-.093 6.041.55a10.054 10.054 0 0 0-.485-.41c-1.86-.525-3.753-.672-5.665-.376A13.97 13.97 0 0 1 12.7.369a9.926 9.926 0 0 0-.357-.093c-.73.401-1.47.9-2.214 1.506V0h-.25v1.74A14.634 14.634 0 0 0 7.7.266c-.122.028-.242.059-.36.092.725.375 1.46.85 2.202 1.432-1.938-.312-3.858-.168-5.743.365-.166.13-.328.267-.485.409 1.982-.643 4.003-.853 6.041-.55-3.651.885-6.174 2.916-7.75 5.752a13.992 13.992 0 0 0-1.454 3.976c.038.217.083.432.135.643l.051-.291a13.839 13.839 0 0 1 1.487-4.206C3.399 5.053 5.937 3.04 9.642 2.204c-1.954 1.815-3.254 4.711-4.01 8.397-.546 2.667-.76 5.441-.761 7.985.082.05.166.098.25.145-.007-2.568.203-5.381.757-8.08.754-3.682 2.056-6.558 4.002-8.326V20h.25V2.277z"/><path d="M2.5 16c1 0 2 .5 3 .5S8 16.5 9 15s.792-2.532.76-3.517c-.03-.984.74-1.552.959-1.656.218-.105.781-.327.781-.327s-.648-.074-.814-.207C10.519 9.161 10.5 8.5 9.5 8.5s-1 1-2 2c.675-1.996-.402-2.701-.72-4.339-.332-1.713.26-3.316.26-3.316s-1.692.604-2.795 2.24c-1.104 1.634-.769 3.513-.329 4.108C3.422 8.97 1.79 7.437 2 4.5.5 7.5.465 7.55.259 10.24c.83 2.412 2.7 3.578 4.741 3.26-1.5 1-2.178 1.187-3.7.715.603 1.264.743 1.442 1.2 1.785z"/><path d="M11.468 8.254a4.276 4.276 0 0 0-.14-1.014c-.11.02-.346.031-.642-.155-.415-.262-.532-.601-.532-.601s.358-.09.804.2c.114.074.199.146.261.21-.074-.2-.147-.339-.187-.41-.113-.036-.314-.14-.483-.424-.251-.42-.201-.776-.201-.776s.36.083.625.543c.177.306.184.505.168.604.081.113.25.382.384.81.006-.058.015-.122.03-.191.11-.52.427-.71.427-.71s.157.323.05.8c-.092.403-.319.553-.387.59.045.253.074.542.073.867.03-.074.074-.159.135-.253.29-.445.653-.51.653-.51s.031.358-.241.766c-.221.33-.475.397-.563.41a6.198 6.198 0 0 1-.136.925 1.4 1.4 0 0 1 .264-.26c.418-.327.783-.27.783-.27s-.087.349-.477.645c-.302.23-.553.223-.652.208a4.422 4.422 0 0 1-.349.896l-.34-.17s.585-1.007.666-2.361a4.76 4.76 0 0 0 .004-.1c-.111.003-.347-.026-.609-.264-.363-.329-.419-.683-.419-.683s.369-.026.757.336c.142.132.225.248.274.342z"/><path d="M10 19.5a9.5 9.5 0 1 0 0-19 9.5 9.5 0 0 0 0 19zm0 .5C4.477 20 0 15.523 0 10S4.477 0 10 0s10 4.477 10 10-4.477 10-10 10z"/></g></svg>