<?xml version="1.0" encoding="UTF-8" standalone="no"?>
<svg width="129px" height="63px" viewBox="0 0 129 63" version="1.1" xmlns="http://www.w3.org/2000/svg" xmlns:xlink="http://www.w3.org/1999/xlink">
    <!-- Generator: sketchtool 3.7.1 (28215) - http://www.bohemiancoding.com/sketch -->
    <title>40727A52-6C50-40AB-A5B7-1A2ED546CA02</title>
    <desc>Created with sketchtool.</desc>
    <defs></defs>
    <g id="1440" stroke="none" stroke-width="1" fill="none" fill-rule="evenodd">
        <g id="1440_rsc_v2_000_main_page" transform="translate(-1004.000000, -3529.000000)">
            <g id="full_footer_new" transform="translate(0.000000, 3000.000000)">
                <g id="sites" transform="translate(730.000000, 512.000000)">
                    <g id="govenrment_logo" transform="translate(272.000000, 0.000000)">
                        <g id="govenrment" opacity="0.54" transform="translate(2.000000, 17.000000)" fill="#FFFFFF">
                            <rect id="bottom" x="0" y="61" width="129" height="2"></rect>
                            <rect id="Rectangle-234" x="26" y="48" width="3" height="7"></rect>
                            <rect id="Rectangle-234" x="36" y="48" width="3" height="7"></rect>
                            <rect id="Rectangle-234" x="46" y="48" width="3" height="7"></rect>
                            <rect id="Rectangle-234" x="56" y="48" width="3" height="7"></rect>
                            <rect id="Rectangle-234" x="66" y="48" width="3" height="7"></rect>
                            <rect id="Rectangle-234" x="76" y="48" width="3" height="7"></rect>
                            <rect id="Rectangle-234" x="86" y="48" width="3" height="7"></rect>
                            <rect id="Rectangle-234" x="96" y="48" width="3" height="7"></rect>
                            <rect id="Rectangle-234" x="101" y="48" width="2" height="7"></rect>
                            <rect id="Rectangle-235" x="101" y="56" width="2" height="3"></rect>
                            <rect id="Rectangle-235" x="96" y="56" width="3" height="3"></rect>
                            <rect id="Rectangle-234" x="91" y="48" width="3" height="7"></rect>
                            <rect id="Rectangle-235" x="91" y="56" width="3" height="3"></rect>
                            <rect id="Rectangle-235" x="86" y="56" width="3" height="3"></rect>
                            <rect id="Rectangle-234" x="81" y="48" width="3" height="7"></rect>
                            <rect id="Rectangle-235" x="81" y="56" width="3" height="3"></rect>
                            <rect id="Rectangle-235" x="76" y="56" width="3" height="3"></rect>
                            <rect id="Rectangle-234" x="71" y="48" width="3" height="7"></rect>
                            <rect id="Rectangle-235" x="71" y="56" width="3" height="3"></rect>
                            <rect id="Rectangle-235" x="66" y="56" width="3" height="3"></rect>
                            <rect id="Rectangle-234" x="61" y="48" width="3" height="7"></rect>
                            <rect id="Rectangle-235" x="61" y="56" width="3" height="3"></rect>
                            <rect id="Rectangle-235" x="56" y="56" width="3" height="3"></rect>
                            <rect id="Rectangle-234" x="51" y="48" width="3" height="7"></rect>
                            <rect id="Rectangle-235" x="51" y="56" width="3" height="3"></rect>
                            <rect id="Rectangle-235" x="46" y="56" width="3" height="3"></rect>
                            <rect id="Rectangle-234" x="41" y="48" width="3" height="7"></rect>
                            <rect id="Rectangle-235" x="41" y="56" width="3" height="3"></rect>
                            <rect id="Rectangle-235" x="36" y="56" width="3" height="3"></rect>
                            <rect id="Rectangle-234" x="31" y="48" width="3" height="7"></rect>
                            <rect id="Rectangle-235" x="31" y="56" width="3" height="3"></rect>
                            <rect id="Rectangle-235" x="26" y="56" width="3" height="3"></rect>
                            <path d="M5,41 L6,41 L6,42 L10,42 L10,41 L16,41 L16,42 L20,42 L20,41 L21,41 L21,42 L24,46 L30,46 L30,47 L24,47 L24,62 L5,62 L5,41 Z M6,43 L20,43 L20,61 L18,61 L18,46 L17,46 L17,61 L15,61 L15,45 L16,45 C16.0119629,45 16,44 16,44 L11,44 L10,44 C9.9860026,44 10,45 10,45 L11,45 L11,61 L9,61 C9,66.0215658 9,46 9,46 L8,46 L8,61 L6,61 L6,43 Z" id="left"></path>
                            <path d="M99,41 L100,41 L100,42 L104,42 L104,41 L110,41 L110,42 L114,42 L114,41 L115,41 L115,42 L118,46 L124,46 L124,47 L118,47 L118,62 L99,62 L99,41 Z M100,43 L114,43 L114,61 L112,61 L112,46 L111,46 L111,61 L109,61 L109,45 L110,45 C110.011963,45 110,44 110,44 L105,44 L104,44 C103.986003,44 104,45 104,45 L105,45 L105,61 L103,61 C103,66.0215658 103,46 103,46 L102,46 L102,61 L100,61 L100,43 Z" id="left" transform="translate(111.500000, 51.500000) scale(-1, 1) translate(-111.500000, -51.500000) "></path>
                            <polygon id="Path-403" points="30 21 30 47 99 47 99 21 98 21 98 46 31 46 31 21"></polygon>
                            <path d="M30,17 L30,21 L29,21 L29,14 L30,14 L30,13 L99,13 L99,14 L100,14 L100,21 L99,21 L99,17 L98,17 L98,20 L97,20 L97,17 L96,17 L96,20 L95,20 L95,17 L94,17 L94,20 L93,20 L93,17 L92,17 L92,20 L91,20 L91,17 L90,17 L90,20 L89,20 L89,17 L88,17 L88,20 L87,20 L87,17 L86,17 L86,20 L85,20 L85,17 L84,17 L84,20 L83,20 L83,17 L82,17 L82,20 L81,20 L81,17 L80,17 L80,20 L79,20 L79,17 L78,17 L78,20 L77,20 L77,17 L76,17 L76,20 C76,20.0053711 75,20 75,20 L75,17 L74,17 L74,20 L73,20 L73,17 L72,17 L72,20 L71,20 L71,17 L70,17 L70,20 L69,20 L69,17 L68,17 L68,20 L67,20 L67,17 L66,17 L66,20 L65,20 L65,17 L64,17 L64,20 L63,20 L63,17 L62,17 L62,20 L61,20 L61,17 L60,17 L60,20 L59,20 L59,17 L58,17 L58,20 L57,20 L57,17 L56,17 L56,20 L55,20 L55,17 L54,17 L54,20 L53,20 L53,17 L52,17 L52,20 L51,20 L51,17 L50,17 L50,20 L49,20 L49,17 L48,17 L48,20 L47,20 L47,17 L46,17 L46,20 L45,20 L45,17 L44,17 L44,20 L43,20 L43,17 L42,17 L42,20 L41,20 L41,17 L40,17 L40,20 L39,20 L39,17 L38,17 L38,20 L37,20 L37,17 L36,17 L36,20 L35,20 L35,17 L34,17 L34,20 L33,20 L33,17 L32,17 L32,20 L31,20 L31,17 L30,17 Z M31,15 L32,15 L32,16 L31,16 L31,15 Z M63,15 L64,15 L64,16 L63,16 L63,15 Z M79,15 L80,15 L80,16 L79,16 L79,15 Z M87,15 L88,15 L88,16 L87,16 L87,15 Z M91,15 L92,15 L92,16 L91,16 L91,15 Z M95,15 L96,15 L96,16 L95,16 L95,15 Z M97,15 L98,15 L98,16 L97,16 L97,15 Z M93,15 L94,15 L94,16 L93,16 L93,15 Z M89,15 L90,15 L90,16 L89,16 L89,15 Z M83,15 L84,15 L84,16 L83,16 L83,15 Z M85,15 L86,15 L86,16 L85,16 L85,15 Z M81,15 L82,15 L82,16 L81,16 L81,15 Z M71,15 L72,15 L72,16 L71,16 L71,15 Z M75,15 L76,15 L76,16 L75,16 L75,15 Z M77,15 L78,15 L78,16 L77,16 L77,15 Z M73,15 L74,15 L74,16 L73,16 L73,15 Z M67,15 L68,15 L68,16 L67,16 L67,15 Z M69,15 L70,15 L70,16 L69,16 L69,15 Z M65,15 L66,15 L66,16 L65,16 L65,15 Z M47,15 L48,15 L48,16 L47,16 L47,15 Z M55,15 L56,15 L56,16 L55,16 L55,15 Z M59,15 L60,15 L60,16 L59,16 L59,15 Z M61,15 L62,15 L62,16 L61,16 L61,15 Z M57,15 L58,15 L58,16 L57,16 L57,15 Z M51,15 L52,15 L52,16 L51,16 L51,15 Z M53,15 L54,15 L54,16 L53,16 L53,15 Z M49,15 L50,15 L50,16 L49,16 L49,15 Z M39,15 L40,15 L40,16 L39,16 L39,15 Z M43,15 L44,15 L44,16 L43,16 L43,15 Z M45,15 L46,15 L46,16 L45,16 L45,15 Z M41,15 L42,15 L42,16 L41,16 L41,15 Z M35,15 L36,15 L36,16 L35,16 L35,15 Z M37,15 L38,15 L38,16 L37,16 L37,15 Z M33,15 L34,15 L34,16 L33,16 L33,15 Z" id="Path-404"></path>
                            <rect id="Rectangle-266" x="33" y="43" width="3" height="3"></rect>
                            <rect id="Rectangle-267" x="33" y="41" width="3" height="1"></rect>
                            <rect id="Rectangle-268" x="33" y="37" width="3" height="3"></rect>
                            <rect id="Rectangle-268" x="33" y="33" width="3" height="3"></rect>
                            <rect id="Rectangle-268" x="33" y="29" width="3" height="3"></rect>
                            <rect id="Rectangle-268" x="33" y="25" width="3" height="3"></rect>
                            <rect id="Rectangle-268" x="33" y="21" width="3" height="3"></rect>
                            <rect id="Rectangle-266" x="57" y="43" width="3" height="3"></rect>
                            <rect id="Rectangle-267" x="57" y="41" width="3" height="1"></rect>
                            <rect id="Rectangle-268" x="57" y="37" width="3" height="3"></rect>
                            <rect id="Rectangle-268" x="57" y="33" width="3" height="3"></rect>
                            <rect id="Rectangle-268" x="57" y="29" width="3" height="3"></rect>
                            <rect id="Rectangle-268" x="57" y="25" width="3" height="3"></rect>
                            <rect id="Rectangle-268" x="57" y="21" width="3" height="3"></rect>
                            <rect id="Rectangle-266" x="69" y="43" width="3" height="3"></rect>
                            <rect id="Rectangle-267" x="69" y="41" width="3" height="1"></rect>
                            <rect id="Rectangle-268" x="69" y="37" width="3" height="3"></rect>
                            <rect id="Rectangle-268" x="69" y="33" width="3" height="3"></rect>
                            <rect id="Rectangle-268" x="69" y="29" width="3" height="3"></rect>
                            <rect id="Rectangle-268" x="69" y="25" width="3" height="3"></rect>
                            <rect id="Rectangle-268" x="69" y="21" width="3" height="3"></rect>
                            <rect id="Rectangle-266" x="85" y="43" width="3" height="3"></rect>
                            <rect id="Rectangle-267" x="85" y="41" width="3" height="1"></rect>
                            <rect id="Rectangle-268" x="85" y="37" width="3" height="3"></rect>
                            <rect id="Rectangle-268" x="85" y="33" width="3" height="3"></rect>
                            <rect id="Rectangle-268" x="85" y="29" width="3" height="3"></rect>
                            <rect id="Rectangle-268" x="85" y="25" width="3" height="3"></rect>
                            <rect id="Rectangle-268" x="85" y="21" width="3" height="3"></rect>
                            <rect id="Rectangle-266" x="89" y="43" width="3" height="3"></rect>
                            <rect id="Rectangle-267" x="89" y="41" width="3" height="1"></rect>
                            <rect id="Rectangle-268" x="89" y="37" width="3" height="3"></rect>
                            <rect id="Rectangle-268" x="89" y="33" width="3" height="3"></rect>
                            <rect id="Rectangle-268" x="89" y="29" width="3" height="3"></rect>
                            <rect id="Rectangle-268" x="89" y="25" width="3" height="3"></rect>
                            <rect id="Rectangle-268" x="89" y="21" width="3" height="3"></rect>
                            <rect id="Rectangle-266" x="93" y="43" width="3" height="3"></rect>
                            <rect id="Rectangle-267" x="93" y="41" width="3" height="1"></rect>
                            <rect id="Rectangle-268" x="93" y="37" width="3" height="3"></rect>
                            <rect id="Rectangle-268" x="93" y="33" width="3" height="3"></rect>
                            <rect id="Rectangle-268" x="93" y="29" width="3" height="3"></rect>
                            <rect id="Rectangle-268" x="93" y="25" width="3" height="3"></rect>
                            <rect id="Rectangle-268" x="93" y="21" width="3" height="3"></rect>
                            <rect id="Rectangle-266" x="81" y="43" width="3" height="3"></rect>
                            <rect id="Rectangle-267" x="81" y="41" width="3" height="1"></rect>
                            <rect id="Rectangle-268" x="81" y="37" width="3" height="3"></rect>
                            <rect id="Rectangle-268" x="81" y="33" width="3" height="3"></rect>
                            <rect id="Rectangle-268" x="81" y="29" width="3" height="3"></rect>
                            <rect id="Rectangle-268" x="81" y="25" width="3" height="3"></rect>
                            <rect id="Rectangle-268" x="81" y="21" width="3" height="3"></rect>
                            <rect id="Rectangle-266" x="73" y="43" width="3" height="3"></rect>
                            <rect id="Rectangle-267" x="73" y="41" width="3" height="1"></rect>
                            <rect id="Rectangle-268" x="73" y="37" width="3" height="3"></rect>
                            <rect id="Rectangle-268" x="73" y="33" width="3" height="3"></rect>
                            <rect id="Rectangle-268" x="73" y="29" width="3" height="3"></rect>
                            <rect id="Rectangle-268" x="73" y="25" width="3" height="3"></rect>
                            <rect id="Rectangle-268" x="73" y="21" width="3" height="3"></rect>
                            <rect id="Rectangle-266" x="77" y="43" width="3" height="3"></rect>
                            <rect id="Rectangle-267" x="77" y="41" width="3" height="1"></rect>
                            <rect id="Rectangle-268" x="77" y="37" width="3" height="3"></rect>
                            <rect id="Rectangle-268" x="77" y="33" width="3" height="3"></rect>
                            <rect id="Rectangle-268" x="77" y="29" width="3" height="3"></rect>
                            <rect id="Rectangle-268" x="77" y="25" width="3" height="3"></rect>
                            <rect id="Rectangle-268" x="77" y="21" width="3" height="3"></rect>
                            <rect id="Rectangle-266" x="61" y="43" width="3" height="3"></rect>
                            <rect id="Rectangle-267" x="61" y="41" width="3" height="1"></rect>
                            <rect id="Rectangle-268" x="61" y="37" width="3" height="3"></rect>
                            <rect id="Rectangle-268" x="61" y="33" width="3" height="3"></rect>
                            <rect id="Rectangle-268" x="61" y="29" width="3" height="3"></rect>
                            <rect id="Rectangle-268" x="61" y="25" width="3" height="3"></rect>
                            <rect id="Rectangle-268" x="61" y="21" width="3" height="3"></rect>
                            <rect id="Rectangle-266" x="65" y="43" width="3" height="3"></rect>
                            <rect id="Rectangle-267" x="65" y="41" width="3" height="1"></rect>
                            <rect id="Rectangle-268" x="65" y="37" width="3" height="3"></rect>
                            <rect id="Rectangle-268" x="65" y="33" width="3" height="3"></rect>
                            <rect id="Rectangle-268" x="65" y="29" width="3" height="3"></rect>
                            <rect id="Rectangle-268" x="65" y="25" width="3" height="3"></rect>
                            <rect id="Rectangle-268" x="65" y="21" width="3" height="3"></rect>
                            <rect id="Rectangle-266" x="45" y="43" width="3" height="3"></rect>
                            <rect id="Rectangle-267" x="45" y="41" width="3" height="1"></rect>
                            <rect id="Rectangle-268" x="45" y="37" width="3" height="3"></rect>
                            <rect id="Rectangle-268" x="45" y="33" width="3" height="3"></rect>
                            <rect id="Rectangle-268" x="45" y="29" width="3" height="3"></rect>
                            <rect id="Rectangle-268" x="45" y="25" width="3" height="3"></rect>
                            <rect id="Rectangle-268" x="45" y="21" width="3" height="3"></rect>
                            <rect id="Rectangle-266" x="49" y="43" width="3" height="3"></rect>
                            <rect id="Rectangle-267" x="49" y="41" width="3" height="1"></rect>
                            <rect id="Rectangle-268" x="49" y="37" width="3" height="3"></rect>
                            <rect id="Rectangle-268" x="49" y="33" width="3" height="3"></rect>
                            <rect id="Rectangle-268" x="49" y="29" width="3" height="3"></rect>
                            <rect id="Rectangle-268" x="49" y="25" width="3" height="3"></rect>
                            <rect id="Rectangle-268" x="49" y="21" width="3" height="3"></rect>
                            <rect id="Rectangle-266" x="53" y="43" width="3" height="3"></rect>
                            <rect id="Rectangle-267" x="53" y="41" width="3" height="1"></rect>
                            <rect id="Rectangle-268" x="53" y="37" width="3" height="3"></rect>
                            <rect id="Rectangle-268" x="53" y="33" width="3" height="3"></rect>
                            <rect id="Rectangle-268" x="53" y="29" width="3" height="3"></rect>
                            <rect id="Rectangle-268" x="53" y="25" width="3" height="3"></rect>
                            <rect id="Rectangle-268" x="53" y="21" width="3" height="3"></rect>
                            <rect id="Rectangle-266" x="37" y="43" width="3" height="3"></rect>
                            <rect id="Rectangle-267" x="37" y="41" width="3" height="1"></rect>
                            <rect id="Rectangle-268" x="37" y="37" width="3" height="3"></rect>
                            <rect id="Rectangle-268" x="37" y="33" width="3" height="3"></rect>
                            <rect id="Rectangle-268" x="37" y="29" width="3" height="3"></rect>
                            <rect id="Rectangle-268" x="37" y="25" width="3" height="3"></rect>
                            <rect id="Rectangle-268" x="37" y="21" width="3" height="3"></rect>
                            <rect id="Rectangle-266" x="41" y="43" width="3" height="3"></rect>
                            <rect id="Rectangle-267" x="41" y="41" width="3" height="1"></rect>
                            <rect id="Rectangle-268" x="41" y="37" width="3" height="3"></rect>
                            <rect id="Rectangle-268" x="41" y="33" width="3" height="3"></rect>
                            <rect id="Rectangle-268" x="41" y="29" width="3" height="3"></rect>
                            <rect id="Rectangle-268" x="41" y="25" width="3" height="3"></rect>
                            <rect id="Rectangle-268" x="41" y="21" width="3" height="3"></rect>
                            <polygon id="Path-405" points="61 13 61 7 63 7 63 0 69 0 69 3 64 3 64 7 66 7 66 13 65 13 65 12 62 12 62 13"></polygon>
                        </g>
                        <rect id="size" opacity="0.5" x="0" y="0" width="132" height="100"></rect>
                    </g>
                </g>
            </g>
        </g>
    </g>
</svg>