<?xml version="1.0" encoding="UTF-8" standalone="no"?>
<svg width="60px" height="60px" viewBox="0 0 60 60" version="1.1" xmlns="http://www.w3.org/2000/svg" xmlns:xlink="http://www.w3.org/1999/xlink">
    <!-- Generator: sketchtool 3.7.2 (28276) - http://www.bohemiancoding.com/sketch -->
    <title>32DEA3A6-0262-438F-93E8-438BAA00D46E</title>
    <desc>Created with sketchtool.</desc>
    <defs></defs>
    <g id="news" stroke="none" stroke-width="1" fill="none" fill-rule="evenodd">
        <g id="1440_rsc_v2_041_news_article" transform="translate(-412.000000, -2790.000000)">
            <g id="content" transform="translate(382.000000, 264.000000)">
                <g id="spravka_rs" transform="translate(0.000000, 2488.000000)">
                    <g id="ic_info_outline" transform="translate(24.000000, 32.000000)">
                        <g id="Group">
                            <polygon id="Shape" points="0 0 72 0 72 72 0 72"></polygon>
                            <path d="M33,51 L39,51 L39,33 L33,33 L33,51 L33,51 Z M36,6 C19.44,6 6,19.44 6,36 C6,52.56 19.44,66 36,66 C52.56,66 66,52.56 66,36 C66,19.44 52.56,6 36,6 L36,6 Z M36,60 C22.77,60 12,49.23 12,36 C12,22.77 22.77,12 36,12 C49.23,12 60,22.77 60,36 C60,49.23 49.23,60 36,60 L36,60 Z M33,27 L39,27 L39,21 L33,21 L33,27 L33,27 Z" id="Shape" fill="#D4E157"></path>
                        </g>
                    </g>
                </g>
            </g>
        </g>
    </g>
</svg>