<?xml version="1.0" encoding="UTF-8" standalone="no"?>
<svg width="80px" height="89px" viewBox="0 0 80 89" version="1.1" xmlns="http://www.w3.org/2000/svg" xmlns:xlink="http://www.w3.org/1999/xlink">
    <!-- Generator: sketchtool 3.7.1 (28215) - http://www.bohemiancoding.com/sketch -->
    <title>E1D281B5-EB6C-4E5E-A1B9-50E37BFAB059</title>
    <desc>Created with sketchtool.</desc>
    <defs>
        <polygon id="path-1" points="0 0.00218181818 79.9992727 0.00218181818 79.9992727 88.7272727 0 88.7272727"></polygon>
    </defs>
    <g id="1440" stroke="none" stroke-width="1" fill="none" fill-rule="evenodd">
        <g id="1440_rsc_v2_000_main_page" transform="translate(-796.000000, -3516.000000)">
            <g id="full_footer_new" transform="translate(0.000000, 3000.000000)">
                <g id="sites" transform="translate(730.000000, 512.000000)">
                    <g id="kremlin_ru_logo" transform="translate(40.000000, 0.000000)">
                        <g transform="translate(26.000000, 4.000000)">
                            <mask id="mask-2" fill="white">
                                <use xlink:href="#path-1"></use>
                            </mask>
                            <g id="Clip-2"></g>
                            <path d="M5.13178182,58.6698182 L4.85541818,58.9650909 C4.85541818,58.9650909 5.42996364,59.7141818 5.89178182,59.4290909 C6.15578182,58.9418182 5.41032727,58.376 5.41032727,58.376 L5.13250909,58.6698182 L5.13178182,58.6698182 Z M13.5936,35.1694545 C12.1114182,35.2058182 9.50341818,35.5010909 8.17905455,35.9229091 C9.07941818,37.0065455 11.4299636,38.5643636 12.8394182,39.2247273 C11.7434182,39.6414545 9.7776,40.6981818 8.95869091,41.4610909 C10.0146909,42.1156364 12.3332364,42.8632727 13.4299636,43.1076364 C12.7921455,43.6261818 11.4779636,45.128 10.9957818,45.9367273 C11.9034182,46.2203636 13.7696,46.4676364 14.9543273,46.5381818 C14.5761455,47.3323636 14.1426909,48.7345455 14.0277818,49.6472727 C14.6154182,49.7076364 16.5776,49.6058182 17.5492364,49.3869091 C17.4663273,50.1825455 17.4983273,51.6312727 17.6292364,52.2552727 C18.5877818,52.1170909 19.9565091,51.7301818 20.5936,51.4843636 C20.7783273,52.1934545 21.4372364,53.7214545 21.6699636,54.0843636 C22.4372364,53.936 23.3536,53.6218182 24.0277818,53.2676364 C24.2408727,53.8363636 24.7245091,54.6872727 24.8583273,54.9018182 C27.1034182,52.6254545 30.3092364,54.4727273 30.3092364,56.8945455 C30.0786909,58.4894545 27.8321455,58.4 26.6496,59.1490909 C25.0954182,60.136 25.3645091,62.4218182 23.7637818,62.7738182 C25.2765091,63.7338182 25.7165091,61.9330909 27.2874182,61.8821818 C27.0765091,62.8530909 27.0983273,64.5767273 27.2546909,65.2989091 C27.9019636,64.7985455 28.8081455,64.416 29.4001455,64.3774545 C29.2546909,64.9447273 29.1405091,66.2683636 29.3521455,67.0945455 C29.7688727,66.7789091 31.3252364,65.4218182 35.0205091,66.2945455 C35.4685091,66.4 32.5143273,66.2836364 32.8823273,67.24 C33.1732364,67.9927273 33.2554182,68.5163636 32.9077818,69.5861818 C33.0648727,69.6421818 33.2466909,69.6690909 33.4423273,69.6690909 C34.2714182,69.6690909 35.3448727,69.1869091 35.7717818,68.4298182 C36.1019636,68.6756364 36.1019636,70.4269091 34.9965091,70.8618182 C36.1768727,70.9490909 37.0765091,69.9869091 37.2510545,69.3956364 C37.2510545,69.3956364 37.8270545,70.7716364 38.5114182,71.2232727 C38.9405091,71.072 39.7063273,70.3578182 40.0023273,69.616 C40.2976,70.3578182 41.0641455,71.072 41.4932364,71.2232727 C42.1768727,70.7723636 42.7543273,69.3956364 42.7543273,69.3956364 C42.9288727,69.9869091 43.8270545,70.9483636 45.0074182,70.8618182 C43.9019636,70.4269091 43.9019636,68.6756364 44.2321455,68.4298182 C44.6590545,69.1861818 45.7332364,69.6690909 46.5623273,69.6690909 C46.7586909,69.6690909 46.9405091,69.6421818 47.0968727,69.5861818 C46.7492364,68.5170909 46.8314182,67.9934545 47.1216,67.2392727 C47.4896,66.2829091 44.5354182,66.3992727 44.9834182,66.2938182 C48.6779636,65.4210909 50.2343273,66.7781818 50.6517818,67.0938182 C50.8626909,66.2690909 50.7492364,64.944 50.6030545,64.3774545 C51.1957818,64.416 52.1026909,64.7992727 52.7485091,65.2989091 C52.9063273,64.5767273 52.9266909,62.8530909 52.7165091,61.8821818 C54.2874182,61.9330909 54.7274182,63.7338182 56.2401455,62.7745455 C54.6401455,62.424 54.9092364,60.1374545 53.3528727,59.1512727 C52.1703273,58.4021818 49.9237818,58.4909091 49.6946909,56.8952727 C49.6946909,54.4734545 52.8997818,52.6276364 55.1448727,54.9025455 C55.2779636,54.6887273 55.7630545,53.8378182 55.9754182,53.2690909 C56.6488727,53.6232727 57.5659636,53.9381818 58.3339636,54.0858182 C58.5666909,53.7221818 59.2248727,52.1949091 59.4088727,51.4850909 C60.0459636,51.7323636 61.4161455,52.1178182 62.3739636,52.256 C62.5048727,51.6327273 62.5368727,50.1832727 62.4539636,49.3883636 C63.4248727,49.6065455 65.3870545,49.7083636 65.9739636,49.6487273 C65.8605091,48.736 65.4285091,47.3338182 65.0474182,46.5396364 C66.2328727,46.4698182 68.0990545,46.2225455 69.0066909,45.9389091 C68.5245091,45.1301818 67.2103273,43.6283636 66.5725091,43.1098182 C67.6685091,42.8647273 69.9870545,42.1170909 71.0430545,41.4625455 C70.2241455,40.6989091 68.2576,39.6429091 67.1630545,39.2269091 C68.5717818,38.5665455 70.9230545,37.0087273 71.8234182,35.9250909 C70.4983273,35.5032727 67.8903273,35.2072727 66.4096,35.1716364 C69.4757818,33.0734545 69.5703273,28.5243636 68.6874182,26.0516364 C68.0939636,27.5498182 66.1259636,30.0123636 64.8546909,31.3403636 C64.9681455,32.6036364 64.5579636,34.8458182 63.8554182,36.2130909 C64.8619636,36.5956364 66.0546909,37.1730909 66.8990545,37.8152727 C66.3390545,38.5207273 65.1317818,39.6152727 64.3754182,40.208 C65.0154182,40.8785455 66.0932364,42.1090909 66.5717818,42.8203636 C65.8634182,43.3512727 64.3208727,43.9607273 63.5296,44.2407273 C63.9186909,45.0392727 64.4845091,46.4952727 64.6306909,47.5018182 C63.7288727,47.6501818 62.4896,47.7505455 61.1928727,47.7345455 C61.2561455,48.6981818 61.1201455,50.1890909 60.9528727,51.0814545 C59.7506909,50.9854545 58.3317818,50.4923636 57.6997818,50.1745455 C57.3652364,51.5054545 56.5383273,52.7963636 56.5019636,52.8654545 C52.7434182,48.7672727 49.4110545,52.6327273 49.4110545,56.2450909 L49.4110545,61.1658182 C49.4110545,63.4930909 48.6786909,64.5570909 46.5674182,64.5570909 L43.8372364,64.5570909 C42.1376,64.5570909 40.7128727,65.2785455 40.0023273,66.6647273 C39.2917818,65.2792727 37.8670545,64.5578182 36.1666909,64.5578182 L33.4336,64.5578182 C31.3245091,64.5578182 30.5899636,63.4945455 30.5899636,61.1665455 L30.5899636,56.2443636 C30.5899636,52.6327273 27.2590545,48.7665455 23.5012364,52.8647273 C23.4648727,52.7956364 22.6379636,51.5047273 22.3034182,50.1738182 C21.6706909,50.4916364 20.2525091,50.9847273 19.0503273,51.0807273 C18.8830545,50.1883636 18.7470545,48.6974545 18.8103273,47.7352727 C17.5136,47.7498182 16.2736,47.6494545 15.3725091,47.5003636 C15.5179636,46.4938182 16.0837818,45.0370909 16.4736,44.2385455 C15.6823273,43.9585455 14.1390545,43.3490909 13.4299636,42.8181818 C13.9099636,42.1069091 14.9863273,40.8763636 15.6263273,40.2072727 C14.8699636,39.6130909 13.6641455,38.5178182 13.1026909,37.8123636 C13.9485091,37.1687273 15.1412364,36.592 16.1477818,36.2094545 C15.4445091,34.8421818 15.0350545,32.6 15.1477818,31.3367273 C13.8772364,30.0087273 11.9092364,27.5461818 11.3150545,26.0472727 C10.4321455,28.52 10.5266909,33.0698182 13.5928727,35.1672727 L13.5936,35.1694545 Z M50.8976,12.5403636 L51.6299636,12.5403636 L51.5383273,11.6 L52.4546909,11.6945455 L52.4546909,10.9410909 L51.5383273,11.0341818 L51.6299636,10.0930909 L50.8976,10.0930909 L50.9885091,11.0341818 L50.0736,10.9396364 L50.0736,11.6930909 L50.9899636,11.5985455 L50.8983273,12.5403636 L50.8976,12.5403636 Z M51.2641455,18.904 C51.6423273,18.904 51.9506909,16.9185455 51.9506909,15.9294545 C51.9506909,15.3898182 51.6430545,15.0349091 51.2634182,15.0349091 C50.8830545,15.0349091 50.5761455,15.3898182 50.5761455,15.9294545 C50.5761455,16.9185455 50.8830545,18.904 51.2626909,18.904 L51.2641455,18.904 Z M54.6845091,20.4792727 C54.9281455,19.7134545 55.2030545,18.5490909 55.2030545,17.9876364 C55.2030545,16.96 54.6343273,15.8225455 52.6357818,15.4734545 C52.6357818,16.7389091 52.0321455,19.7570909 51.3048727,19.7570909 L51.2234182,19.7570909 C50.4961455,19.7570909 49.8925091,16.7156364 49.8925091,15.4734545 C47.8997818,15.824 47.3485091,16.9614545 47.3485091,17.9883636 C47.3485091,18.5498182 47.6234182,19.7141818 47.8663273,20.48 L54.6845091,20.48 L54.6845091,20.4792727 Z M51.8139636,13.8581818 C51.8139636,13.5476364 51.5666909,13.2938182 51.2641455,13.2938182 C50.9601455,13.2938182 50.7136,13.5483636 50.7136,13.8589091 C50.7136,14.1716364 50.9608727,14.4247273 51.2634182,14.4247273 C51.5659636,14.4247273 51.8125091,14.1716364 51.8125091,13.8596364 L51.8139636,13.8581818 Z M54.1266909,21.9650909 C54.1266909,21.9650909 54.2677818,21.6181818 54.4466909,21.1178182 L48.1048727,21.1178182 C48.2837818,21.6181818 48.4248727,21.9650909 48.4248727,21.9650909 L54.1266909,21.9650909 Z M66.8903273,17.8007273 C66.4066909,17.1098182 65.3048727,17.3447273 64.2888727,17.3352727 C65.9528727,18.4589091 64.2561455,19.9345455 63.4248727,21.8589091 C62.5957818,23.7810909 63.6023273,25.5898182 63.6023273,25.5898182 C63.6023273,25.5898182 63.6801455,23.8836364 64.5216,23.0530909 C64.5216,23.0530909 64.7761455,23.8196364 65.7397818,23.9985455 C64.4219636,22.5076364 66.0306909,20.2676364 66.6736,19.3054545 C67.1797818,18.5490909 67.0408727,18.016 66.8903273,17.8 L66.8903273,17.8007273 Z M61.7426909,15.648 C63.4823273,17.2356364 64.4139636,16.7949091 65.7986909,16.8407273 C67.1826909,16.8858182 67.3405091,17.4807273 67.3405091,17.4807273 L67.3856,17.4807273 C67.3114182,16.4916364 65.6583273,16.7723636 64.0488727,15.7098182 C62.9070545,14.9563636 62.2270545,13.8974545 61.7252364,13.5032727 C61.2234182,13.1083636 59.7616,13.4123636 58.7128727,14.0952727 C58.7128727,14.0952727 59.6888727,13.7752727 61.7434182,15.6487273 L61.7426909,15.648 Z M54.6779636,21.9752727 C56.3506909,21.9752727 57.9841455,20.8567273 58.6343273,18.5178182 C59.2830545,16.1796364 60.9434182,15.7941818 60.9434182,15.7941818 C60.5834182,15.392 58.9361455,14.1927273 58.2794182,14.6465455 C58.2794182,14.6465455 57.6445091,14.9810909 57.3848727,17.5716364 C57.1288727,20.1461818 55.7543273,21.5352727 54.7797818,21.6567273 L54.6779636,21.9752727 Z M43.5216,17.2945455 L41.1972364,17.2945455 C41.9754182,20.9149091 44.8917818,21.9549091 47.9274182,21.9549091 L47.8256,21.6836364 C45.4663273,21.6836364 43.9346909,19.904 43.5223273,17.2952727 L43.5216,17.2945455 Z M28.3681455,12.5396364 L29.1005091,12.5396364 L29.0096,11.5992727 L29.9245091,11.6938182 L29.9245091,10.9403636 L29.0081455,11.0334545 L29.0997818,10.0923636 L28.3674182,10.0923636 L28.4590545,11.0334545 L27.5426909,10.9389091 L27.5426909,11.6923636 L28.4590545,11.5978182 L28.3674182,12.5396364 L28.3681455,12.5396364 Z M28.7354182,18.9032727 C29.1136,18.9032727 29.4212364,16.9178182 29.4212364,15.9287273 C29.4212364,15.3890909 29.1136,15.0341818 28.7346909,15.0341818 C28.3565091,15.0341818 28.0481455,15.3890909 28.0481455,15.9287273 C28.0481455,16.9178182 28.3557818,18.9032727 28.7354182,18.9032727 L28.7354182,18.9032727 Z M32.1317818,20.4785455 C32.3754182,19.7127273 32.6503273,18.5483636 32.6503273,17.9869091 C32.6503273,16.96 32.0976,15.8225455 30.1048727,15.4727273 C30.1048727,16.7149091 29.5034182,19.7563636 28.7754182,19.7563636 L28.6932364,19.7563636 C27.9659636,19.7563636 27.3623273,16.7381818 27.3623273,15.4727273 C25.3637818,15.8218182 24.7950545,16.96 24.7950545,17.9876364 C24.7950545,18.5490909 25.0714182,19.7134545 25.3143273,20.4792727 L32.1317818,20.4792727 L32.1317818,20.4785455 Z M29.2830545,13.8574545 C29.2830545,13.5469091 29.0379636,13.2930909 28.7346909,13.2930909 C28.4314182,13.2930909 28.1856,13.5476364 28.1856,13.8581818 C28.1856,14.1709091 28.4314182,14.424 28.7354182,14.424 C29.0394182,14.424 29.2852364,14.1709091 29.2852364,13.8589091 L29.2830545,13.8574545 Z M25.8721455,21.9643636 L31.5739636,21.9643636 C31.5739636,21.9643636 31.7150545,21.6174545 31.8939636,21.1170909 L25.5521455,21.1170909 C25.7310545,21.6174545 25.8721455,21.9643636 25.8721455,21.9643636 L25.8721455,21.9643636 Z M15.4772364,23.0523636 C16.3186909,23.8829091 16.3965091,25.5905455 16.3965091,25.5905455 C16.3965091,25.5905455 17.4037818,23.7796364 16.5732364,21.8574545 C15.7426909,19.9345455 14.0452364,18.4589091 15.7092364,17.336 C14.6925091,17.3447273 13.5914182,17.1105455 13.1077818,17.8 C12.9572364,18.016 12.8168727,18.5490909 13.3245091,19.3054545 C13.9681455,20.2683636 15.5761455,22.5076364 14.2583273,23.9985455 C15.2219636,23.8203636 15.4765091,23.0530909 15.4765091,23.0530909 L15.4772364,23.0523636 Z M14.2001455,16.84 C15.5848727,16.7941818 16.5165091,17.2349091 18.2561455,15.6472727 C20.3106909,13.7738182 21.2859636,14.0945455 21.2859636,14.0945455 C20.2365091,13.4109091 18.7746909,13.1076364 18.2728727,13.5025455 C17.7710545,13.8967273 17.0910545,14.9556364 15.9492364,15.7090909 C14.3397818,16.7709091 12.6866909,16.4909091 12.6125091,17.4807273 L12.6576,17.4807273 C12.6576,17.4807273 12.8154182,16.8843636 14.1994182,16.8392727 L14.2001455,16.84 Z M19.0554182,15.7927273 C19.0554182,15.7927273 20.7150545,16.1781818 21.3645091,18.5170909 C22.0146909,20.856 23.6466909,21.9745455 25.3208727,21.9745455 L25.2190545,21.656 C24.2445091,21.5345455 22.8699636,20.1447273 22.6132364,17.5709091 C22.3543273,14.9796364 21.7186909,14.6458182 21.7186909,14.6458182 C21.0641455,14.192 19.4146909,15.3912727 19.0554182,15.7934545 L19.0554182,15.7927273 Z M32.1754182,21.6836364 L32.0714182,21.9541818 C35.1041455,21.9541818 38.0226909,20.9141818 38.8008727,17.2938182 L36.4765091,17.2938182 C36.0641455,19.9025455 34.5325091,21.6829091 32.1739636,21.6829091 L32.1754182,21.6836364 Z M63.7390545,30.7090909 C62.5026909,33.5796364 59.3681455,36.1389091 57.3405091,37.4203636 C56.4168727,38.0043636 56.7536,39.1127273 57.0496,39.6043636 C59.8117818,44.1970909 54.7877818,47.6189091 50.2517818,45.344 C51.2408727,45.3549091 52.2408727,44.5127273 52.3790545,43.7629091 C52.0648727,44.0356364 50.7761455,43.8865455 50.3957818,43.5338182 C50.9805091,43.2283636 51.1194182,42.9178182 51.1492364,42.6276364 C50.4270545,43.0712727 48.9674182,43.1316364 48.5361455,42.3818182 C46.1390545,42.3163636 44.5434182,40.4450909 44.3688727,39.9047273 C44.1899636,40.4792727 43.9034182,41.4829091 43.8088727,42.4749091 C43.1586909,42.0341818 42.0488727,41.0370909 41.4699636,39.6850909 C40.8154182,40.6218182 40.3208727,41.6763636 40.0008727,42.7876364 C39.6808727,41.6763636 39.1863273,40.6218182 38.5317818,39.6850909 C37.9521455,41.0378182 36.8416,42.0341818 36.1921455,42.4749091 C36.0976,41.4836364 35.8110545,40.4792727 35.6321455,39.9047273 C35.4576,40.4450909 33.8619636,42.3170909 31.4648727,42.3818182 C31.0343273,43.1309091 29.5739636,43.0705455 28.8510545,42.6269091 C28.8801455,42.9163636 29.0183273,43.2261818 29.6037818,43.5323636 C29.2226909,43.8843636 27.9346909,44.0341818 27.6197818,43.7621818 C27.7579636,44.5127273 28.7579636,45.3549091 29.7477818,45.344 C25.2096,47.6203636 20.1877818,44.1970909 22.9499636,39.6043636 C23.2459636,39.1127273 23.5826909,38.0043636 22.6590545,37.4203636 C20.6299636,36.1389091 17.4954182,33.5803636 16.2590545,30.7090909 C16.1136,31.88 16.2248727,34.7847273 17.4808727,36.5927273 C16.5630545,36.9432727 15.3863273,37.5127273 14.5957818,38.0414545 C15.0954182,38.6109091 16.2612364,39.5941818 17.0430545,40.1287273 C16.4030545,40.6974545 15.4117818,41.7869091 14.8917818,42.4996364 C15.5506909,42.8923636 16.8801455,43.3687273 17.8954182,43.6901818 C17.4263273,44.4661818 16.7041455,45.8647273 16.5230545,46.6974545 C17.6597818,46.8632727 18.8212364,46.848 19.8452364,46.816 C19.7143273,47.7861818 19.8001455,49.0050909 19.9034182,49.8923636 C20.9579636,49.7410909 22.1186909,49.3127273 22.8888727,48.9061818 C23.0343273,49.5767273 23.4379636,50.8130909 23.7979636,51.4734545 C24.8001455,50.5229091 26.1208727,50.088 27.3426909,50.3389091 C29.8459636,50.8552727 30.5899636,53.3905455 30.5899636,53.3905455 L30.5936,45.6814545 L30.5936,44.8196364 C30.5936,44.3396364 30.8517818,44.0850909 31.3157818,44.0850909 L48.6830545,44.0850909 C49.1463273,44.0850909 49.4045091,44.3396364 49.4045091,44.8196364 L49.4045091,45.6807273 L49.4088727,53.3898182 C49.4088727,53.3898182 50.1528727,50.856 52.6554182,50.3396364 C53.8772364,50.088 55.1986909,50.5229091 56.1994182,51.4741818 C56.5608727,50.8123636 56.9630545,49.576 57.1085091,48.9069091 C57.8794182,49.3127273 59.0408727,49.7410909 60.0961455,49.8930909 C60.1979636,49.0043636 60.2852364,47.7854545 60.1543273,46.8152727 C61.1666909,46.92 62.3310545,46.92 63.4757818,46.6967273 C63.2939636,45.8647273 62.5725091,44.4654545 62.1034182,43.6901818 C63.1594182,43.4065455 64.4474182,42.8923636 65.1070545,42.4996364 C64.5870545,41.7869091 63.5943273,40.6981818 62.9557818,40.1287273 C63.7383273,39.5949091 64.9034182,38.6116364 65.4037818,38.0414545 C64.6132364,37.5134545 63.4365091,36.9432727 62.5194182,36.5927273 C63.7746909,34.7861818 63.8866909,31.8814545 63.7397818,30.7105455 L63.7390545,30.7090909 Z M72.6117818,35.264 C74.1303273,34.6167273 76.2699636,33.1621818 77.2590545,32.1527273 C77.3899636,32.3221818 77.7441455,33.1709091 76.6219636,34.112 C75.8052364,34.7985455 74.1477818,35.5592727 72.8656,36.0589091 C72.2983273,36.9069091 71.2343273,37.8509091 69.6997818,38.8690909 C72.6670545,38.4036364 76.2452364,37.2254545 77.9812364,35.5163636 C81.2786909,32.2727273 79.5194182,28.3163636 79.0866909,27.4756364 C76.9514182,30.1374545 72.8648727,32.9614545 69.0576,34.4661818 C70.3426909,34.624 71.6612364,34.8952727 72.6103273,35.2661818 L72.6117818,35.264 Z M74.5259636,23.3738182 C74.9521455,23.688 75.1732364,24.6007273 74.5725091,25.6429091 C73.5303273,27.4465455 71.7303273,29.0225455 70.1536,30.2610909 C70.0866909,31.4196364 69.5790545,32.7629091 69.0590545,33.7614545 C71.3812364,32.2218182 74.0452364,29.8596364 75.2554182,28.2749091 C76.8277818,26.2145455 77.4786909,24.1512727 77.1899636,22.144 C76.9012364,20.1498182 75.7303273,18.7345455 75.0517818,18.1716364 C74.4466909,19.7483636 71.9448727,23.7716364 69.7136,26.2007273 C69.9776,27.0807273 70.1485091,28.2487273 70.1645091,29.2647273 C72.0830545,27.6749091 74.2008727,24.5054545 74.5266909,23.3738182 L74.5259636,23.3738182 Z M79.9346909,36.9272727 C77.5150545,38.2072727 73.2103273,39.544 69.8379636,39.5141818 C70.6917818,40.0378182 71.5012364,40.6392727 72.0248727,41.1432727 C73.4459636,41.0589091 75.3681455,40.6247273 76.4976,40.1701818 C76.5216,40.3709091 76.5412364,41.2647273 75.2321455,41.6647273 C74.3448727,41.9374545 72.9601455,41.9665455 71.9405091,41.9869091 C71.1245091,42.5054545 69.8677818,43.0290909 68.8510545,43.376 C69.7936,43.5098182 70.9514182,43.6087273 72.0496,43.6087273 C73.8488727,43.6087273 75.4605091,43.4196364 76.4714182,43.0938182 C77.4314182,42.7832727 80.4859636,41.4283636 79.9332364,36.9265455 L79.9346909,36.9272727 Z M68.6823273,44.0072727 C69.1332364,44.5410909 69.6292364,45.1963636 69.9426909,45.7498182 C71.6954182,46.1389091 73.8830545,46.0465455 73.8830545,46.0465455 C73.8830545,46.0465455 73.7536,46.9803636 72.5376,47.0472727 C72.0016,47.0763636 70.3521455,46.8 69.6619636,46.6014545 C69.3696,46.7236364 68.0910545,47.0378182 66.7674182,47.2087273 C68.6241455,47.8676364 71.3230545,48.5541818 73.0197818,48.5541818 C73.1885091,48.5541818 73.3448727,48.5483636 73.4866909,48.5352727 C76.2066909,48.2909091 77.5856,45.7905455 77.6568727,44.3410909 C76.8532364,44.5025455 75.4510545,44.6043636 74.0081455,44.6043636 C72.7841455,44.6043636 70.4757818,44.5003636 68.6823273,44.0065455 L68.6823273,44.0072727 Z M66.8736,49.7105455 C67.9041455,50.1905455 68.9826909,50.5054545 69.9165091,50.6196364 C69.9165091,50.6196364 69.7623273,51.52 68.3077818,51.3352727 C67.5099636,51.2334545 66.5506909,50.6276364 66.3339636,50.4821818 C65.7048727,50.5709091 64.3797818,50.5403636 63.8757818,50.4385455 C65.4590545,51.568 67.9179636,52.8727273 69.9557818,53.0741818 C70.0576,53.0843636 70.1594182,53.0887273 70.2626909,53.0887273 C72.4008727,53.0887273 74.0859636,50.9265455 74.5208727,49.8930909 C72.3463273,49.864 68.6837818,48.984 66.4379636,47.7330909 C66.5921455,48.2436364 66.7710545,48.9345455 66.8743273,49.7112727 L66.8736,49.7105455 Z M63.1972364,52.5650909 C63.7717818,53.1803636 64.6765091,53.6138182 64.6765091,53.6138182 C64.6765091,53.6138182 64.4379636,54.0741818 63.8765091,54.0741818 C63.6917818,54.0741818 63.4961455,54.0203636 63.2997818,53.9090909 C62.9128727,53.6909091 62.4103273,53.104 62.4103273,53.104 C61.6925091,53.0312727 61.0452364,52.8989091 60.4045091,52.6967273 C61.5266909,54.1192727 63.4139636,55.8145455 65.3957818,56.304 C65.6917818,56.3767273 65.9936,56.4145455 66.2932364,56.4145455 C68.0939636,56.4145455 69.5332364,55.0865455 69.9383273,54.2421818 C67.8896,53.9469091 64.9565091,52.424 63.3950545,50.8552727 C63.3805091,51.4821818 63.3077818,52.1105455 63.1950545,52.5643636 L63.1972364,52.5650909 Z M56.1332364,54.8603636 C55.9572364,55.3127273 55.6459636,55.6676364 55.6459636,55.6676364 C55.8248727,56.3585455 55.5877818,56.6894545 55.1572364,56.6130909 C55.1281455,56.1650909 54.9754182,55.8203636 54.9754182,55.8203636 C54.9754182,55.8203636 53.9754182,55.0130909 53.3608727,54.8603636 C54.0750545,55.4967273 54.7441455,56.8938182 54.5739636,58.3789091 C56.6263273,58.3192727 56.7776,56.2218182 56.1332364,54.8610909 L56.1332364,54.8603636 Z M59.7805091,53.3912727 C59.6277818,53.7869091 59.3499636,54.4290909 59.1201455,54.8603636 C59.2612364,55.0952727 59.4503273,55.3658182 59.6146909,55.5490909 C59.5950545,55.6974545 58.8306909,56.1018182 58.2910545,55.0581818 C57.7368727,54.9432727 57.1841455,54.7723636 56.8030545,54.6145455 C57.4576,55.9323636 58.0321455,57.0101818 58.9426909,57.6036364 C60.2932364,58.4850909 62.4605091,58.2872727 63.1608727,57.3149091 C61.9717818,56.6698182 60.5521455,55.0167273 59.7790545,53.3905455 L59.7805091,53.3912727 Z M10.3005091,38.8676364 C8.76596364,37.8494545 7.70269091,36.9061818 7.13687273,36.0581818 C5.85396364,35.5592727 4.19578182,34.7978182 3.37905455,34.112 C2.25687273,33.1709091 2.61250909,32.3229091 2.74341818,32.1534545 C3.73250909,33.1629091 5.87069091,34.6174545 7.39069091,35.2647273 C8.34050909,34.8938182 9.65832727,34.6232727 10.9434182,34.4647273 C7.13614545,32.9607273 3.05032727,30.1374545 0.914327273,27.4756364 C0.480872727,28.3149091 -1.27912727,32.2712727 2.01905455,35.5149091 C3.75723636,37.224 7.33396364,38.4021818 10.3005091,38.8676364 L10.3005091,38.8676364 Z M10.9426909,33.7621818 C10.4219636,32.7636364 9.91432727,31.4203636 9.84741818,30.2625455 C8.26923636,29.0232727 6.46923636,27.4465455 5.42778182,25.6443636 C4.8256,24.6014545 5.04814545,23.688 5.47432727,23.3752727 C5.79941818,24.5061818 7.91796364,27.6756364 9.83796364,29.2661818 C9.85250909,28.2494545 10.0234182,27.0814545 10.2888727,26.2021818 C8.05614545,23.7730909 5.55432727,19.7490909 4.95069091,18.1730909 C4.27069091,18.7352727 3.09978182,20.1512727 2.81250909,22.1454545 C2.5216,24.1527273 3.17250909,26.2152727 4.74705455,28.2763636 C5.95578182,29.8603636 8.61978182,32.2225455 10.9419636,33.7621818 L10.9426909,33.7621818 Z M3.5296,43.0930909 C4.54050909,43.4203636 6.15141818,43.6072727 7.95141818,43.6072727 C9.0496,43.6072727 10.2074182,43.5083636 11.1492364,43.3745455 C10.1310545,43.0276364 8.87578182,42.504 8.05978182,41.9854545 C7.04014545,41.9650909 5.65541818,41.936 4.76669091,41.6632727 C3.45978182,41.2632727 3.47796364,40.3687273 3.50123636,40.1687273 C4.63141818,40.6232727 6.55432727,41.0574545 7.97541818,41.1432727 C8.49905455,40.6378182 9.30850909,40.0363636 10.1623273,39.5127273 C6.78996364,39.5418182 2.48523636,38.2065455 0.0663272727,36.9258182 C-0.4864,41.4261818 2.57032727,42.7818182 3.5296,43.0930909 L3.5296,43.0930909 Z M10.0590545,45.7512727 C10.3717818,45.1970909 10.8677818,44.5418182 11.3186909,44.008 C9.52596364,44.5025455 7.21687273,44.6043636 5.99505455,44.6043636 C4.55141818,44.6043636 3.14923636,44.5025455 2.3456,44.3425455 C2.41687273,45.7912727 3.79505455,48.2916364 6.51505455,48.536 C6.65687273,48.5490909 6.81323636,48.5549091 6.98196364,48.5549091 C8.67796364,48.5549091 11.3768727,47.8683636 13.2336,47.2094545 C11.9099636,47.0392727 10.6299636,46.7243636 10.3390545,46.6021818 C9.64814545,46.8007273 7.99869091,47.0770909 7.46341818,47.048 C6.24741818,46.9810909 6.11796364,46.0472727 6.11796364,46.0472727 C6.11796364,46.0472727 8.3056,46.1396364 10.0583273,45.7505455 L10.0590545,45.7512727 Z M9.73905455,53.0894545 C9.84087273,53.0894545 9.94487273,53.0843636 10.0466909,53.0749091 C12.0830545,52.8727273 14.5426909,51.568 16.1266909,50.4385455 C15.6219636,50.5403636 14.2961455,50.5709091 13.6685091,50.4821818 C13.4503273,50.6276364 12.4917818,51.2349091 11.6939636,51.336 C10.2394182,51.5207273 10.0852364,50.6203636 10.0852364,50.6203636 C11.0197818,50.5061818 12.0976,50.1912727 13.1274182,49.7112727 C13.2292364,48.9345455 13.4096,48.2436364 13.5637818,47.7330909 C11.3165091,48.984 7.65323636,49.864 5.48014545,49.8930909 C5.91505455,50.9258182 7.60087273,53.0894545 9.73832727,53.0894545 L9.73905455,53.0894545 Z M13.7077818,56.4152727 C14.0059636,56.4152727 14.3085091,56.3789091 14.6045091,56.3061818 C16.5870545,55.8152727 18.4736,54.12 19.5965091,52.6967273 C18.9565091,52.9003636 18.3092364,53.0312727 17.5906909,53.104 C17.5906909,53.104 17.0888727,53.6930909 16.7012364,53.9098182 C16.5048727,54.0210909 16.3085091,54.0741818 16.1230545,54.0741818 C15.5630545,54.0741818 15.3245091,53.6130909 15.3245091,53.6130909 C15.3245091,53.6130909 16.2292364,53.1796364 16.8045091,52.5643636 C16.6903273,52.1098182 16.6176,51.4807273 16.6045091,50.8552727 C15.0437818,52.4225455 12.1099636,53.9461818 10.0619636,54.2421818 C10.4670545,55.0872727 11.9056,56.4152727 13.7070545,56.4152727 L13.7077818,56.4152727 Z M23.8677818,54.8618182 C23.2234182,56.2218182 23.3746909,58.3192727 25.4277818,58.3789091 C25.2576,56.8938182 25.9259636,55.4967273 26.6423273,54.8610909 C26.0263273,55.0138182 25.0248727,55.8210909 25.0248727,55.8210909 C25.0248727,55.8210909 24.8743273,56.1658182 24.8430545,56.6138182 C24.4139636,56.6901818 24.1768727,56.3592727 24.3557818,55.6683636 C24.3557818,55.6683636 24.0445091,55.3134545 23.8685091,54.8610909 L23.8677818,54.8618182 Z M21.0576,57.6036364 C21.9666909,57.0101818 22.5426909,55.9323636 23.1979636,54.6145455 C22.8161455,54.7723636 22.2641455,54.9432727 21.7106909,55.0581818 C21.1710545,56.1025455 20.4059636,55.6981818 20.3870545,55.5490909 C20.5514182,55.3658182 20.7405091,55.0952727 20.8816,54.8596364 C20.6525091,54.4283636 20.3746909,53.7861818 20.2219636,53.3905455 C19.4496,55.0167273 18.0299636,56.6690909 16.8416,57.3141818 C17.5397818,58.2865455 19.7070545,58.4850909 21.0597818,57.6029091 L21.0576,57.6036364 Z M35.7339636,37.8058182 C36.2692364,38.6654545 36.7448727,39.7003636 36.9099636,40.6203636 C37.4226909,40.0007273 37.9645091,38.9214545 38.3317818,37.6327273 C38.7826909,38.1956364 39.5681455,39.3418182 40.0008727,40.2872727 C40.4336,39.3418182 41.2197818,38.1956364 41.6699636,37.6327273 C42.0372364,38.9214545 42.5790545,40.0007273 43.0917818,40.6218182 C43.2568727,39.7003636 43.7317818,38.6654545 44.2677818,37.8058182 C44.6750545,39.4785455 46.2437818,41.1076364 47.8634182,41.2312727 C46.8103273,39.8625455 46.7674182,37.4974545 46.8416,36.7098182 C46.1397818,35.6189091 45.6779636,34.6341818 45.4568727,33.9658182 C44.9819636,34.4363636 44.2459636,35.3505455 43.5856,36.408 C43.5856,36.3949091 43.5659636,35.0821818 43.3019636,33.4887273 C42.6219636,34.104 41.3892364,34.5490909 40.7303273,34.7221818 C40.3157818,35.4007273 40.2008727,35.9294545 40.0030545,36.7818182 C39.8052364,35.9309091 39.6903273,35.4 39.2757818,34.7221818 C38.6161455,34.5490909 37.3834182,34.104 36.7012364,33.4887273 C36.4394182,35.0814545 36.4197818,36.3949091 36.4197818,36.408 C35.7594182,35.3505455 35.0234182,34.4370909 34.5470545,33.9658182 C34.3266909,34.6349091 33.8634182,35.6189091 33.1623273,36.7098182 C33.2372364,37.4974545 33.1936,39.8625455 32.1397818,41.2305455 C33.7601455,41.1069091 35.3296,39.4778182 35.7361455,37.8050909 L35.7339636,37.8058182 Z M47.9281455,29.4421818 C47.2903273,30.2909091 46.2859636,30.7752727 44.8685091,30.6370909 C44.8685091,30.6370909 45.5303273,29.5316364 45.6481455,28.5694545 C44.9863273,29.2203636 43.5150545,29.4421818 42.6008727,29.3512727 C42.6008727,29.3512727 41.5245091,31.0436364 40.8954182,33.6981818 C41.8306909,33.4145455 43.2125091,32.6145455 43.8786909,31.9796364 C44.0023273,32.5650909 44.1426909,33.376 44.2226909,34.0341818 C44.6852364,33.4276364 45.3485091,32.6785455 45.8605091,32.1549091 C46.1150545,33.2749091 46.5114182,34.6734545 47.4023273,35.9178182 C47.2299636,34.6552727 47.5012364,32.3978182 48.0605091,31.1818182 C48.1528727,30.4763636 48.1012364,29.9338182 47.9281455,29.4421818 L47.9281455,29.4421818 Z M32.0736,29.4421818 C31.8990545,29.9338182 31.8481455,30.4763636 31.9412364,31.1818182 C32.5012364,32.3978182 32.7703273,34.6552727 32.5986909,35.9178182 C33.4903273,34.6741818 33.8859636,33.2749091 34.1405091,32.1549091 C34.6525091,32.6785455 35.3157818,33.4276364 35.7790545,34.0341818 C35.8590545,33.3767273 35.9994182,32.5650909 36.1230545,31.9796364 C36.7892364,32.6152727 38.1710545,33.4145455 39.1048727,33.6974545 C38.4765091,31.0429091 37.4001455,29.3498182 37.4001455,29.3498182 C36.4866909,29.4414545 35.0146909,29.2189091 34.3528727,28.568 C34.4714182,29.5301818 35.1332364,30.6363636 35.1332364,30.6363636 C33.7150545,30.7745455 32.7114182,30.2909091 32.0736,29.4421818 L32.0736,29.4421818 Z M51.9906909,23.8145455 C52.4357818,23.8145455 52.3943273,24.0836364 52.2626909,24.3018182 L51.7172364,25.1992727 C51.7172364,25.1992727 51.2852364,24.7374545 50.4248727,24.3956364 C49.5637818,24.0538182 49.3208727,23.9970909 49.3208727,23.8138182 L51.9899636,23.8138182 L51.9906909,23.8145455 Z M43.3361455,23.4392727 C42.8532364,23.696 42.1121455,23.9003636 41.6125091,23.7869091 C41.9688727,24.4523636 43.2154182,24.9243636 43.7899636,24.9650909 C43.4154182,25.3963636 42.7950545,25.8509091 42.2845091,25.976 C42.5136,26.2087273 43.6285091,26.4029091 44.4386909,26.216 C43.8583273,27.0909091 42.7056,28.0778182 41.8205091,28.0443636 C42.8605091,28.8392727 44.7979636,28.568 46.3688727,27.1905455 C46.5157818,28.08 46.3274182,29.4014545 46.1681455,29.7374545 C46.8336,29.5890909 47.8576,28.424 48.2350545,27.8029091 C48.7906909,29.0116364 48.7819636,29.5192727 48.7819636,29.5192727 C49.9797818,27.8916364 53.0117818,27.0007273 54.1237818,23.2429091 C54.2285091,22.888 54.1077818,22.6829091 53.7863273,22.6829091 L48.2343273,22.6683636 C45.1870545,22.6683636 43.1317818,22.0305455 41.8285091,21.3898182 C42.0488727,22.2552727 42.9666909,23.2407273 43.3339636,23.4407273 L43.3361455,23.4392727 Z M59.5383273,30.5083636 C59.5877818,30.4429091 59.5310545,30.4356364 59.4925091,30.4596364 C59.4539636,30.4850909 58.5085091,31.0414545 56.4568727,29.7076364 C54.4059636,28.3723636 52.8190545,27.8116364 52.0008727,27.6785455 C52.0008727,27.6785455 51.2299636,28.2276364 50.5274182,28.8421818 C52.4430545,29.0043636 53.9456,30.1767273 54.1172364,30.5818182 C54.1332364,30.6181818 54.1732364,30.6203636 54.1848727,30.584 C54.3899636,29.9585455 54.1194182,29.4349091 54.1194182,29.4349091 C54.1194182,29.4349091 55.0117818,29.9861818 56.7412364,30.9985455 C58.4706909,32.0094545 59.2590545,30.8778182 59.5376,30.5076364 L59.5383273,30.5083636 Z M55.0125091,24.8625455 C55.1761455,24.6247273 55.3397818,24.1949091 55.3397818,24.1949091 C55.7106909,24.1949091 56.3579636,24.3185455 56.3579636,24.7621818 C55.9128727,24.6763636 55.3892364,24.6938182 55.0125091,24.8625455 L55.0125091,24.8625455 Z M54.8466909,23.6072727 C54.5048727,24.8872727 53.4430545,26.48 52.5485091,27.1905455 C52.4517818,27.2909091 52.5150545,27.2887273 52.6190545,27.2610909 C57.4590545,25.9665455 58.2990545,28.4247273 58.2917818,28.5069091 C58.2808727,28.6014545 58.3405091,28.6407273 58.4103273,28.5556364 C58.5092364,28.4349091 60.1085091,26.6901818 58.9514182,25.096 C57.7950545,23.5018182 54.8459636,23.6072727 54.8459636,23.6072727 L54.8466909,23.6072727 Z M45.7252364,54.6370909 C45.5579636,54.4581818 45.3921455,54.2778182 45.2306909,54.096 C45.0561455,53.9025455 44.9325091,53.8269091 44.7543273,53.8269091 C44.3557818,53.8269091 43.9288727,54.0450909 43.6997818,54.1978182 C43.6852364,54.2036364 43.6743273,54.2181818 43.6685091,54.2574545 C43.9106909,54.2356364 44.1543273,54.2181818 44.3957818,54.1905455 C44.6081455,54.1665455 44.8059636,54.1745455 44.9892364,54.3112727 C45.1332364,54.4181818 45.2146909,54.5512727 45.2219636,54.7236364 C45.2452364,55.2763636 45.6852364,56.44 45.7128727,56.7876364 C45.7470545,56.9258182 45.5819636,56.9650909 45.3543273,57.6072727 C45.1856,57.7963636 44.7303273,57.1963636 44.7965091,57.0567273 C45.0612364,56.7098182 45.1346909,56.4938182 45.0677818,56.2349091 C45.0132364,56.0283636 44.9121455,55.6574545 44.8379636,55.4567273 C44.7376,55.1876364 44.5121455,55.0872727 44.2321455,55.1832727 C43.1339636,55.5483636 42.9645091,55.0618182 41.8757818,55.52 L43.1296,57.4618182 C43.1259636,57.3221818 43.0583273,57.0676364 42.8554182,56.8850909 C42.8917818,56.6887273 43.2874182,56.6087273 43.4357818,56.7905455 C43.6176,57.0247273 43.9710545,57.3563636 44.2626909,57.4087273 C44.8226909,57.5134545 44.7790545,58.3643636 46.2743273,58.6487273 C46.0888727,58.8414545 45.6743273,58.776 45.4932364,58.6894545 C45.6023273,58.8581818 45.7274182,59.0167273 45.9528727,59.0749091 C45.7201455,59.3076364 45.0561455,58.7621818 45.1237818,59.3112727 C45.2386909,59.2443636 45.3979636,59.2334545 45.5325091,59.2676364 C45.8306909,59.3418182 46.3208727,61.0407273 45.2896,61.784 C45.5092364,61.8494545 45.7448727,61.7330909 45.9674182,61.7330909 C46.0983273,61.7330909 46.2197818,61.8596364 46.2328727,62.0007273 C46.3288727,62.0749091 46.3928727,62.1658182 46.4481455,62.2821818 C46.3710545,62.3076364 46.2212364,62.2836364 46.1376,62.2283636 C46.1710545,62.3214545 46.1630545,62.5483636 46.1281455,62.5527273 C46.0350545,62.5650909 45.9630545,62.512 45.8677818,62.4545455 C45.7354182,62.5236364 45.2990545,62.496 45.1754182,62.3854545 C44.8466909,62.4654545 44.5208727,62.5730909 44.1790545,62.5730909 C43.9936,62.5730909 43.7499636,62.5614545 43.7572364,62.3345455 C43.7623273,62.224 43.8168727,62.1672727 43.8590545,62.0465455 C43.7019636,61.8829091 43.4394182,62.0392727 43.1245091,62.0705455 C42.7005091,62.1112727 42.5252364,62.0458182 42.4336,61.9585455 C42.8336,61.5854545 42.5921455,60.6785455 41.9717818,60.5985455 C42.4823273,61.088 42.4154182,61.88 41.8445091,62.0581818 C42.0096,62.1112727 42.0917818,62.1861818 42.1543273,62.3032727 C42.3543273,62.3869091 42.3579636,62.5330909 42.3419636,62.5985455 C42.2328727,62.52 42.0343273,62.4429091 41.8765091,62.464 C41.8656,62.5330909 41.8365091,62.6625455 41.7768727,62.7112727 C41.7099636,62.6967273 41.6205091,62.6349091 41.5863273,62.5847273 C41.4045091,62.4465455 40.2677818,62.7127273 40.1986909,62.5265455 C40.1550545,62.352 40.4583273,62.2065455 40.7383273,62.144 C40.0183273,61.8792727 39.3943273,60.5221818 38.2874182,60.2916364 C37.7732364,60.1847273 37.0772364,60.4167273 37.0772364,61.0865455 C37.0772364,61.4152727 37.3412364,61.6683636 37.6263273,61.6683636 C37.8896,61.6683636 38.0205091,61.4865455 38.0205091,61.3025455 C37.9783273,61.3345455 37.9521455,61.3534545 37.9259636,61.3752727 C37.7659636,61.5076364 37.5608727,61.4989091 37.4125091,61.3534545 C37.2816,61.2269091 37.2816,61.0043636 37.4081455,60.8552727 C37.5121455,60.7316364 37.6372364,60.6603636 37.8045091,60.6356364 C38.2372364,60.5723636 38.5921455,60.7112727 38.8314182,61.0603636 C38.9448727,61.2276364 39.0081455,61.4050909 39.0081455,61.5767273 C39.0081455,62.3490909 38.2372364,62.5243636 37.8096,62.5243636 C36.7354182,62.5243636 36.1026909,61.7534545 36.1026909,60.8610909 C36.1026909,60.7570909 36.1077818,60.6516364 36.1245091,60.5454545 C36.2932364,59.5418182 37.1877818,59.1214545 37.9616,58.9963636 C37.8634182,58.6472727 37.6721455,58.3636364 37.3986909,58.1330909 C37.2626909,58.0181818 37.2488727,57.9243636 37.3346909,57.7781818 C37.4510545,57.5781818 37.5746909,57.3810909 37.6256,57.1556364 C37.6379636,57.1047273 37.6430545,57.0516364 37.6474182,56.9970909 C37.2619636,57.3432727 36.7237818,57.6603636 35.9776,57.8865455 C35.7426909,57.9956364 35.6183273,58.2116364 35.5885091,58.4581818 C35.5543273,58.7447273 35.5463273,59.0356364 35.5412364,59.3236364 C35.5397818,59.3912727 35.5877818,59.464 35.6248727,59.5272727 C35.7630545,59.7672727 35.9157818,59.9985455 35.9506909,60.296 C35.9506909,60.44 35.2277818,60.456 35.2277818,60.3396364 C35.2205091,59.816 34.8714182,59.6123636 34.9099636,59.2676364 C35.0045091,58.7294545 35.0263273,58.1912727 34.9390545,57.6516364 C34.9172364,57.5156364 34.9899636,57.4261818 35.0859636,57.3534545 C35.2386909,57.2370909 35.4030545,57.1309091 35.5565091,57.0145455 C35.9179636,56.7381818 36.0677818,56.3745455 35.9826909,55.9272727 C35.9717818,55.8690909 35.9463273,55.8130909 35.9208727,55.7578182 C35.7412364,55.3592727 35.6096,54.9549091 35.6096,54.5054545 C35.6096,54.0123636 35.0001455,54.04 35.0394182,54.5250909 C35.0525091,54.6756364 35.1652364,54.8872727 35.2285091,55.0327273 C35.8539636,56.4749091 34.7296,57.5127273 33.5666909,57.5127273 C34.7885091,57.088 33.2808727,55.52 33.2808727,54.3490909 C33.2808727,53.632 33.8336,53.1018182 34.4939636,53.1018182 C35.2554182,53.1018182 35.7376,53.5934545 35.8757818,53.6778182 C36.2445091,53.0923636 37.3725091,52.9869091 37.7957818,52.9192727 C37.7637818,52.6043636 37.8081455,52.3243636 38.0008727,52.0829091 C38.0132364,52.0654545 38.0212364,52.0356364 38.0154182,52.0174545 C37.9543273,51.8690909 37.8903273,51.7214545 37.8074182,51.5774545 C37.4597818,51.9701818 37.3768727,52.4909091 37.3768727,52.7607273 C36.0910545,52.7418182 35.5237818,52.1774545 35.1441455,51.9549091 C35.1456,51.8567273 35.4874182,51.24 35.7914182,50.8327273 C35.4583273,51.1178182 35.1848727,51.44 34.9841455,51.8254545 C34.8001455,51.6923636 34.6074182,51.5723636 34.4183273,51.4930909 C34.7077818,50.872 35.0917818,50.3876364 35.5819636,49.8814545 C34.8925091,50.136 34.2925091,50.9178182 34.0648727,51.4087273 C33.8685091,51.3854545 33.5776,51.3781818 33.4161455,51.4087273 C34.1674182,50.4894545 34.5099636,48.6756364 36.1608727,48.2690909 C35.7477818,49.9505455 36.7761455,50.6341818 37.4845091,50.1949091 C37.3921455,50.1949091 37.3288727,50.2094545 37.2692364,50.1949091 C35.8888727,49.8443636 36.7070545,47.928 36.3725091,47.5287273 C36.2466909,47.376 36.1812364,47.2378182 36.2016,47.0472727 C36.2088727,46.9796364 36.1892364,46.9018182 36.1579636,46.8392727 L35.4234182,45.6101818 C35.3317818,45.456 35.6176,45.3461818 35.6779636,45.4174545 L36.4270545,46.6465455 C36.4474182,46.6756364 36.4706909,46.7214545 36.4997818,46.7265455 C36.7725091,46.7752727 36.8576,47.0029091 36.9681455,47.2036364 C37.0023273,47.2690909 37.0299636,47.3432727 37.0365091,47.416 C37.0416,47.4727273 37.0263273,47.5505455 36.9892364,47.5883636 C36.8692364,47.7098182 36.8925091,47.8283636 36.9848727,47.9847273 C37.1325091,48.2363636 41.5681455,55.6334545 41.5681455,55.6334545 C40.6045091,56.0283636 38.8626909,56.0603636 38.3572364,56.0116364 C38.2532364,56.2676364 38.0896,56.5389091 37.8481455,56.8 C38.0881455,56.6421818 38.2757818,56.4421818 38.4488727,56.2254545 C38.6437818,56.2472727 38.9361455,56.3258182 39.2343273,56.3476364 C39.0576,56.7258182 38.7921455,57.1025455 38.4517818,57.4167273 C38.2917818,57.5767273 38.0925091,57.7149091 38.1659636,57.9694545 C38.2481455,58.2545455 38.7768727,58.7985455 38.9710545,59.1498182 C39.1623273,59.1898182 39.4859636,59.2589091 39.7237818,59.3534545 C39.8583273,59.6443636 40.3165091,60.0101818 40.8685091,59.8210909 C39.7586909,59.8065455 39.8401455,58.6683636 40.1848727,58.0661818 C40.1485091,58.6261818 40.4176,59.0901818 40.7594182,59.1425455 C40.2466909,58.6749091 40.2983273,57.6116364 40.7972364,57.0283636 C40.8685091,57.9752727 41.1550545,58.4734545 41.5652364,58.5847273 C41.0234182,58.0858182 40.6976,56.9301818 41.5165091,56.088 C41.5797818,58.2494545 43.5565091,57.8596364 43.7361455,60.3614545 C44.4685091,60.3614545 44.5099636,59.3745455 44.1019636,59.1927273 C43.8634182,59.1025455 43.6481455,58.9454545 43.5274182,58.7316364 C43.4765091,58.6421818 43.4234182,58.4814545 43.3819636,58.3869091 C43.1637818,57.744 42.5499636,57.7847273 42.5645091,57.6305455 C42.5790545,57.5796364 42.6757818,57.5549091 42.8117818,57.5549091 L41.6539636,55.7636364 L41.5928727,55.6705455 C41.7332364,55.6414545 41.7637818,55.5614545 41.6205091,55.3345455 C41.6205091,55.3345455 37.2757818,48.1010909 37.2554182,48.0596364 C37.6590545,47.9890909 38.0481455,48.0989091 38.4248727,48.2450909 C38.3230545,48.1505455 38.2416,48.0210909 38.2241455,47.8858182 C38.2096,47.7767273 38.2139636,47.7141818 38.3012364,47.6458182 C38.3936,47.5694545 38.4830545,47.4821818 38.5470545,47.384 C38.7623273,47.0552727 39.1579636,46.8952727 39.5186909,46.9985455 C40.0626909,47.1527273 40.2546909,47.7672727 39.8554182,48.0909091 C39.6430545,48.5607273 39.3797818,48.5010909 39.3245091,48.712 C39.4321455,48.76 40.1754182,49.3352727 40.2248727,49.5774545 C40.0030545,50.0385455 39.8932364,50.7607273 40.0852364,51.1629091 C40.2292364,49.2443636 41.3834182,48.3047273 42.5070545,48.3047273 C42.7739636,48.3047273 43.0394182,48.352 43.3056,48.4429091 C43.4510545,48.4923636 43.5965091,48.5629091 43.7179636,48.6552727 C43.8939636,48.7890909 44.0597818,48.9410909 44.2066909,49.104 C44.4263273,49.344 44.6270545,49.6021818 44.9994182,49.6189091 C44.8903273,49.7738182 44.7666909,49.888 44.6394182,50 C44.5477818,50.0821818 44.5012364,50.1818182 44.4910545,50.3054545 C44.4648727,50.5709091 44.3776,50.8145455 44.1812364,51.0109091 C44.1557818,51.0370909 44.1339636,51.072 44.1216,51.1054545 C43.9979636,51.4676364 43.8706909,51.8283636 43.7536,52.1934545 C43.7245091,52.2821818 43.7303273,52.4043636 43.6103273,52.4029091 C43.5063273,52.4014545 43.3812364,52.3709091 43.3034182,52.3083636 C43.1390545,52.1745455 43.0801455,51.9796364 43.1390545,51.7745455 C43.1972364,51.5709091 43.1390545,51.3949091 43.0750545,51.2050909 C43.0096,51.0145455 42.9856,50.8094545 42.9412364,50.5927273 C42.6343273,50.4850909 42.0583273,51.1454545 42.4976,51.6981818 C42.7834182,52.1054545 43.0401455,52.8567273 43.0845091,53.1643636 C43.0932364,53.1934545 42.8241455,53.3643636 42.4532364,53.3170909 C41.2001455,53.1570909 40.4081455,52.2843636 40.1666909,51.5498182 C40.1477818,52.7956364 41.1797818,53.7170909 42.7085091,53.6283636 C42.7710545,53.9192727 43.0081455,54.1156364 43.2830545,54.1243636 C43.3412364,53.9374545 43.3390545,53.5447273 43.2925091,53.2952727 C43.2721455,53.1861818 43.3288727,53.128 43.4306909,53.1025455 C43.7652364,53.0167273 44.2016,53.0501818 44.5725091,52.9170909 C44.9034182,52.7985455 45.0597818,52.8676364 45.2648727,53.2676364 C45.4205091,53.5694545 45.6866909,53.8930909 45.9376,54.1185455 C46.0430545,54.2109091 46.1485091,54.3061818 46.2481455,54.4058182 C46.3746909,54.5330909 46.4408727,54.6821818 46.4517818,54.8683636 C46.4183273,55.1592727 46.4568727,55.7410909 46.4568727,55.7512727 C46.3841455,55.9425455 45.8554182,55.7403636 45.7703273,55.5345455 C45.7383273,55.4581818 45.9957818,54.92 45.7252364,54.6312727 L45.7252364,54.6370909 Z M34.6779636,60.0087273 C34.6503273,60.368 35.0670545,61.0210909 35.7543273,60.816 C35.7339636,60.9498182 35.7725091,61.312 35.9259636,61.584 C34.7077818,61.8603636 34.1819636,60.8567273 34.6786909,60.0087273 L34.6779636,60.0087273 Z M31.7441455,44.8261818 C31.4845091,44.8261818 31.3237818,44.992 31.3237818,45.2596364 L31.3237818,61.4858182 C31.3237818,63.0349091 31.9317818,63.8203636 33.1325091,63.8203636 L36.1361455,63.8305455 C38.1943273,63.8305455 39.4088727,64.5403636 40.0001455,65.4203636 C40.5034182,64.6 41.9165091,63.8305455 43.8641455,63.8305455 L46.8677818,63.8196364 C48.0677818,63.8196364 48.6765091,63.0341818 48.6765091,61.4850909 L48.6765091,45.2603636 C48.6765091,44.9927273 48.5150545,44.8269091 48.2561455,44.8269091 L31.7441455,44.8269091 L31.7441455,44.8261818 Z M44.9696,73.1294545 C45.2656,73.0349091 45.5121455,72.8850909 45.6386909,72.7149091 C44.3150545,72.6581818 43.2205091,71.512 42.8197818,70.8043636 C42.3797818,71.5345455 41.5943273,72.104 41.5943273,72.104 C41.0343273,71.9563636 40.2706909,71.3454545 40.0016,70.8785455 C39.7325091,71.3454545 38.9674182,71.9563636 38.4088727,72.104 C38.4088727,72.104 37.6219636,71.5345455 37.1819636,70.8043636 C36.7819636,71.512 35.6874182,72.6589091 34.3623273,72.7156364 C34.4896,72.8858182 34.7368727,73.0356364 35.0314182,73.1301818 C35.2299636,73.1941818 35.4488727,73.2334545 35.6699636,73.2334545 C35.9026909,73.2334545 36.1376,73.1912727 36.3477818,73.0923636 C36.2154182,73.5745455 36.1710545,74.1687273 36.2677818,74.576 C36.2677818,74.576 36.9732364,74.6327273 37.7005091,74.3578182 C37.7528727,74.7978182 37.9536,75.3309091 38.2823273,75.6916364 C38.3477818,75.7621818 38.4154182,75.8298182 38.4896,75.8843636 C38.8808727,75.8843636 39.8248727,75.4276364 40.0023273,75.1469091 C40.1797818,75.4276364 41.1223273,75.8843636 41.5150545,75.8843636 C41.5877818,75.8290909 41.6561455,75.7621818 41.7208727,75.6916364 C42.0503273,75.3309091 42.2517818,74.7970909 42.3026909,74.3570909 C42.6299636,74.5221818 43.0110545,74.5876364 43.4314182,74.5876364 C43.5303273,74.5876364 43.6321455,74.584 43.7354182,74.5767273 C43.8328727,74.1694545 43.7885091,73.5730909 43.6554182,73.0916364 C43.8663273,73.1905455 44.1005091,73.2327273 44.3339636,73.2327273 C44.5550545,73.2327273 44.7732364,73.1934545 44.9710545,73.1309091 L44.9696,73.1294545 Z M20.4641455,30.5069091 C20.7426909,30.8778182 21.5310545,32.008 23.2605091,30.9970909 C24.9892364,29.9847273 25.8816,29.4334545 25.8816,29.4334545 C25.8816,29.4334545 25.6110545,29.9570909 25.8161455,30.5825455 C25.8285091,30.6189091 25.8685091,30.6167273 25.8845091,30.5796364 C26.0568727,30.1745455 27.5586909,29.0014545 29.4736,28.84 C28.7717818,28.2254545 28.0008727,27.6763636 28.0008727,27.6763636 C27.1826909,27.8094545 25.5972364,28.3701818 23.5456,29.7054545 C21.4946909,31.04 20.5492364,30.4836364 20.5092364,30.4574545 C20.4692364,30.4327273 20.4146909,30.4407273 20.4634182,30.5061818 L20.4641455,30.5069091 Z M29.5768727,24.3941818 C28.7157818,24.736 28.2845091,25.1970909 28.2845091,25.1970909 L27.7390545,24.2989091 C27.6081455,24.0807273 27.5659636,23.8116364 28.0110545,23.8116364 L30.6801455,23.8116364 C30.6801455,23.9949091 30.4379636,24.0516364 29.5768727,24.3934545 L29.5768727,24.3941818 Z M26.2146909,22.6821818 C25.8925091,22.6821818 25.7725091,22.8872727 25.8772364,23.2421818 C26.9899636,27 30.0226909,27.8909091 31.2190545,29.5185455 C31.2190545,29.5185455 31.2117818,29.0109091 31.7659636,27.8021818 C32.1441455,28.4232727 33.1681455,29.5883636 33.8336,29.7367273 C33.6736,29.4021818 33.4845091,28.0785455 33.6328727,27.1898182 C35.2037818,28.5672727 37.1412364,28.8385455 38.1805091,28.0436364 C37.2954182,28.0778182 36.1441455,27.0909091 35.5623273,26.2145455 C36.3732364,26.4021818 37.4881455,26.2087273 37.7179636,25.9745455 C37.2074182,25.8509091 36.5863273,25.3956364 36.2125091,24.9636364 C36.7870545,24.9236364 38.0343273,24.4516364 38.3914182,23.7854545 C37.8910545,23.8996364 37.1499636,23.6952727 36.6677818,23.4392727 C37.0350545,23.24 37.9521455,22.2538182 38.1732364,21.3883636 C36.8692364,22.0298182 34.8132364,22.6669091 31.7674182,22.6669091 L26.2154182,22.6814545 L26.2146909,22.6821818 Z M23.6459636,24.7621818 C23.6459636,24.3170909 24.2917818,24.1949091 24.6641455,24.1949091 C24.6641455,24.1949091 24.8263273,24.624 24.9899636,24.8618182 C24.6117818,24.6930909 24.0881455,24.6756364 23.6445091,24.7621818 L23.6459636,24.7621818 Z M21.0496,25.0952727 C19.8932364,26.6894545 21.4932364,28.4334545 21.5914182,28.5549091 C21.6612364,28.64 21.7208727,28.6014545 21.7099636,28.5061818 C21.7012364,28.424 22.5426909,25.9658182 27.3826909,27.2603636 C27.4866909,27.288 27.5499636,27.2894545 27.4532364,27.1898182 C26.5586909,26.4792727 25.4983273,24.8872727 25.1550545,23.6065455 C25.1550545,23.6065455 22.2066909,23.5010909 21.0496,25.0952727 L21.0496,25.0952727 Z M40.0008727,12.3912727 C40.5972364,12.3912727 41.3681455,9.90254545 41.5645091,7.54763636 C41.5645091,7.07054545 40.9681455,6.34036364 40.0008727,6.32218182 C39.0336,6.34181818 38.4372364,7.07127273 38.4372364,7.54836364 C38.6103273,9.74472727 39.4139636,12.392 40.0008727,12.392 L40.0008727,12.3912727 Z M44.6946909,14.0858182 C44.8946909,13.8363636 45.8874182,11.9112727 45.8874182,9.96727273 C45.8874182,8.21818182 43.6939636,7.25454545 42.3892364,7.21090909 C42.2379636,9.70981818 41.2670545,13.6327273 40.0008727,13.6327273 C38.8030545,13.6327273 37.7608727,9.73236364 37.6125091,7.21090909 C36.3077818,7.25454545 34.1143273,8.21818182 34.1143273,9.96727273 C34.1143273,11.9112727 35.1070545,13.8363636 35.3070545,14.0850909 L44.6946909,14.0850909 L44.6946909,14.0858182 Z M44.2306909,15.0312727 C44.2306909,14.8109091 44.0576,14.6312727 43.8452364,14.6312727 C43.6321455,14.6312727 43.4597818,14.8109091 43.4597818,15.0312727 C43.4597818,15.2509091 43.6321455,15.4298182 43.8452364,15.4298182 C44.0576,15.4298182 44.2306909,15.2509091 44.2306909,15.0298182 L44.2306909,15.0312727 Z M36.4779636,15.0312727 C36.4779636,14.8109091 36.3048727,14.6312727 36.0925091,14.6312727 C35.8794182,14.6312727 35.7056,14.8109091 35.7056,15.0312727 C35.7056,15.2509091 35.8801455,15.4298182 36.0910545,15.4298182 C36.3048727,15.4298182 36.4779636,15.2509091 36.4779636,15.0298182 L36.4779636,15.0312727 Z M36.0881455,16.5076364 C36.1928727,16.5461818 36.3136,16.5658182 36.4561455,16.5658182 L43.5448727,16.5658182 C43.6881455,16.5658182 43.8088727,16.5461818 43.9128727,16.5076364 C44.1405091,16.4261818 44.2801455,16.2530909 44.3346909,15.9789091 L35.6663273,15.9789091 C35.7201455,16.2530909 35.8590545,16.4254545 36.0881455,16.5076364 L36.0881455,16.5076364 Z M38.4066909,15.0312727 C38.4066909,14.8109091 38.2336,14.6312727 38.0212364,14.6312727 C37.8074182,14.6312727 37.6343273,14.8109091 37.6343273,15.0312727 C37.6343273,15.2509091 37.8074182,15.4298182 38.0197818,15.4298182 C38.2336,15.4298182 38.4066909,15.2509091 38.4066909,15.0298182 L38.4066909,15.0312727 Z M39.5092364,3.09672727 L40.4925091,3.09672727 L40.3863273,1.90763636 L41.4554182,2.02036364 L41.4554182,1.07854545 L40.3863273,1.19272727 L40.4925091,0.00218181818 L39.5085091,0.00218181818 L39.6146909,1.19272727 L38.5463273,1.07854545 L38.5463273,2.02036364 L39.6154182,1.90690909 L39.5085091,3.09672727 L39.5092364,3.09672727 Z M39.2765091,4.68363636 C39.2765091,5.09527273 39.6001455,5.43127273 39.9986909,5.43127273 C40.3972364,5.43127273 40.7216,5.09527273 40.7216,4.68363636 C40.7216,4.272 40.3979636,3.93672727 39.9994182,3.93672727 C39.6008727,3.93672727 39.2772364,4.27272727 39.2772364,4.68436364 L39.2765091,4.68363636 Z M42.3019636,15.0312727 C42.3019636,14.8109091 42.1296,14.6312727 41.9165091,14.6312727 C41.7034182,14.6312727 41.5310545,14.8109091 41.5310545,15.0312727 C41.5310545,15.2509091 41.7034182,15.4298182 41.9165091,15.4298182 C42.1296,15.4298182 42.3019636,15.2509091 42.3019636,15.0298182 L42.3019636,15.0312727 Z M40.3543273,15.0312727 C40.3543273,14.8109091 40.1812364,14.6312727 39.9688727,14.6312727 C39.7550545,14.6312727 39.5834182,14.8109091 39.5834182,15.0312727 C39.5834182,15.2509091 39.7550545,15.4298182 39.9688727,15.4298182 C40.1812364,15.4298182 40.3543273,15.2509091 40.3543273,15.0298182 L40.3543273,15.0312727 Z M50.6772364,76.6821818 C51.3099636,76.3912727 51.7659636,75.6087273 51.8859636,74.8421818 C51.4845091,75.0385455 51.0328727,75.1345455 50.5114182,75.1345455 C49.0765091,75.1345455 47.2750545,74.3367273 45.6408727,73.6145455 C45.6408727,73.6145455 45.2888727,73.9098182 44.7048727,73.9709091 C46.3528727,74.4785455 49.5921455,76.2763636 49.8299636,77.4290909 C49.9899636,78.2 49.4866909,78.4952727 49.4866909,78.4952727 C48.7666909,77.3185455 46.9085091,75.4916364 44.4299636,74.5789091 C44.4350545,75.008 44.3528727,75.3105455 44.3528727,75.3105455 C44.3528727,75.3105455 43.8496,75.4341818 42.7819636,75.2494545 C43.7157818,76.0290909 46.1696,78.7825455 46.4357818,80.8712727 C46.6132364,82.2661818 45.6386909,82.3301818 45.6386909,82.3301818 C45.5005091,80.2327273 44.3994182,78.0610909 42.4139636,75.8829091 C42.4139636,75.8829091 42.0888727,76.392 41.6561455,76.6509091 C41.6561455,76.6509091 40.9216,76.52 40.3143273,76.1178182 C40.5492364,78.8858182 40.6874182,82.4814545 40.5419636,83.5694545 C40.4401455,84.3258182 40.0016,84.6443636 40.0016,84.6443636 C40.0016,84.6443636 39.5608727,84.3265455 39.4590545,83.5694545 C39.3136,82.4807273 39.4517818,78.8858182 39.6866909,76.1178182 C39.0786909,76.5207273 38.3448727,76.6509091 38.3448727,76.6509091 C37.9121455,76.3927273 37.5870545,75.8829091 37.5870545,75.8829091 C35.6016,78.0618182 34.5012364,80.232 34.3623273,82.3301818 C34.3623273,82.3301818 33.3877818,82.2661818 33.5652364,80.8712727 C33.8314182,78.7825455 36.2852364,76.0290909 37.2197818,75.2494545 C36.1506909,75.4349091 35.6488727,75.3112727 35.6488727,75.3112727 C35.6488727,75.3112727 35.5659636,75.0101818 35.5710545,74.5803636 C33.0925091,75.4938182 31.2350545,77.32 30.5143273,78.496 C30.5143273,78.496 30.0125091,78.2007273 30.1710545,77.4290909 C30.4088727,76.2763636 33.6474182,74.4785455 35.2961455,73.9716364 C34.7121455,73.9090909 34.3601455,73.6130909 34.3601455,73.6130909 C32.7266909,74.336 30.9245091,75.1330909 29.4896,75.1330909 C28.9681455,75.1330909 28.5150545,75.0385455 28.1150545,74.8407273 C28.2350545,75.608 28.6917818,76.3912727 29.3245091,76.6807273 C27.1077818,78.24 28.4765091,81.8952727 25.5041455,81.2072727 C27.1623273,84.2836364 30.5136,84.5927273 30.5136,84.5927273 C29.7717818,82.9650909 30.6968727,77.9992727 35.1463273,75.7418182 C32.4074182,78.4727273 31.1594182,81.7832727 31.8859636,84.12 C32.5528727,86.2625455 34.7201455,87.1309091 36.3514182,87.1687273 C35.1979636,83.6247273 35.9092364,79.5650909 38.3041455,77.0087273 C37.2772364,79.8123636 35.8350545,87.2923636 40.0008727,88.7272727 C44.1666909,87.2923636 42.7230545,79.8123636 41.6954182,77.0094545 C44.0910545,79.5650909 44.8023273,83.6247273 43.6481455,87.1694545 C45.2801455,87.1316364 47.4474182,86.2625455 48.1136,84.1192727 C48.8408727,81.7832727 47.5928727,78.4727273 44.8539636,75.7425455 C49.3034182,77.9992727 50.2285091,82.9643636 49.4866909,84.5934545 C49.4866909,84.5934545 52.8394182,84.2836364 54.4961455,81.2065455 C51.5245091,81.8930909 52.8932364,78.2392727 50.6779636,76.6792727 L50.6772364,76.6821818 Z M17.0866909,70.5512727 C17.0816,70.5563636 16.9572364,70.6792727 16.8772364,70.8450909 C17.0859636,70.8450909 17.3296,70.8814545 17.5485091,70.9410909 C17.5339636,70.7469091 17.5194182,70.4829091 17.5390545,70.256 C17.3536,70.2981818 17.1550545,70.4763636 17.0866909,70.5512727 L17.0866909,70.5512727 Z M21.9492364,75.4050909 C22.2852364,75.0472727 22.4030545,74.7869091 22.3201455,74.5832727 C22.1994182,74.2909091 21.4365091,73.4385455 20.4365091,72.4770909 C20.4074182,72.688 20.3514182,72.912 20.3041455,73.064 C20.9776,73.9570909 21.2277818,74.9149091 21.0023273,75.72 C21.0837818,75.7745455 21.1346909,75.8 21.1645091,75.8116364 C21.4226909,75.9134545 21.7463273,75.6225455 21.9485091,75.4043636 L21.9492364,75.4050909 Z M19.5725091,70.8283636 C19.5819636,70.8465455 21.5048727,72.5425455 22.1506909,73.1570909 C22.3034182,73.3025455 22.5121455,73.3352727 22.7252364,73.2269091 C22.8466909,73.1643636 22.9979636,73.0930909 23.1543273,73.0210909 C25.0772364,72.3403636 28.2408727,72.2632727 29.4016,72.3156364 C30.0997818,72.3447273 30.3470545,71.9301818 30.2765091,71.5956364 C30.0488727,70.5010909 29.9986909,68.5396364 30.9143273,67.208 C29.9216,67.5403636 28.9652364,68.4298182 28.9652364,68.4298182 C28.6357818,67.7352727 28.4983273,66.2116364 28.5666909,65.4749091 C27.6626909,65.8 26.8576,66.6625455 26.8576,66.6625455 C26.5026909,65.7207273 26.3921455,63.9381818 26.5041455,62.9243636 C24.2568727,63.6778182 26.3586909,67.6443636 23.6183273,67.5192727 C24.3877818,68.6363636 25.3128727,68.1825455 26.1492364,68.1825455 C26.7354182,68.1825455 27.4641455,68.568 27.3463273,69.448 C27.2605091,70.0850909 23.5848727,70.8792727 22.1063273,70.8792727 C21.0736,70.8792727 20.3812364,70.5592727 19.8626909,69.8392727 C19.6132364,69.4938182 19.3586909,69.3374545 19.0736,69.3810909 C18.7201455,69.4356364 18.3063273,69.7985455 18.3063273,70.6392727 C18.3063273,71.2327273 18.5463273,72.5374545 19.2590545,72.5374545 C19.7586909,72.5374545 19.7805091,71.5069091 19.5739636,70.8283636 L19.5725091,70.8283636 Z M19.7783273,73.7825455 C19.6154182,73.9352727 19.2386909,74.9985455 19.4030545,75.6458182 C19.4736,75.9236364 19.6263273,76.0421818 19.8845091,76.0283636 C20.1514182,76.0109091 20.2968727,75.8712727 20.3426909,75.5876364 C20.4445091,74.9403636 19.9557818,73.9134545 19.7783273,73.7825455 L19.7783273,73.7825455 Z M23.2430545,76.6952727 C23.0176,76.9330909 22.7906909,77.1025455 22.6656,77.1898182 C22.7543273,77.28 23.0074182,77.4407273 23.3252364,77.4407273 C23.5070545,77.4407273 23.6757818,77.3869091 23.8299636,77.2807273 C24.1463273,76.7570909 23.8416,76.2225455 23.7041455,76.0858182 C23.6241455,76.2181818 23.4670545,76.4581818 23.2437818,76.6952727 L23.2430545,76.6952727 Z M23.2357818,75.4734545 C23.2706909,75.3207273 23.2466909,75.1970909 23.1666909,75.1170909 C23.1412364,75.0923636 23.1194182,75.0778182 23.1056,75.0778182 C23.0474182,75.0778182 22.9179636,75.2378182 22.7943273,75.392 C22.6910545,75.52 22.5616,75.6792727 22.3979636,75.8530909 C22.2343273,76.0276364 22.0830545,76.1658182 21.9616,76.2749091 C21.8176,76.4058182 21.6685091,76.5425455 21.6670545,76.6036364 C21.6670545,76.6181818 21.6816,76.64 21.7077818,76.6669091 C21.7608727,76.72 21.8314182,76.7469091 21.9186909,76.7469091 C22.0496,76.7469091 22.3361455,76.6785455 22.7659636,76.2210909 C23.0932364,75.8741818 23.2023273,75.6225455 23.2350545,75.472 L23.2357818,75.4734545 Z M6.22996364,59.7861818 C6.04087273,59.8101818 5.5936,60.2101818 5.36887273,59.9861818 L4.34269091,58.9621818 L4.85614545,58.4167273 L5.37105455,57.8712727 L6.39650909,58.8952727 C6.62050909,59.1185455 6.24669091,59.592 6.22923636,59.7861818 L6.22996364,59.7861818 Z M3.21905455,57.4567273 C3.21905455,57.4567273 2.91505455,57.24 3.27941818,56.8421818 C3.65323636,56.4538182 3.87432727,56.7607273 3.87432727,56.7607273 C3.87432727,56.7607273 4.21614545,57.5265455 4.31796364,57.8792727 C3.97250909,57.7869091 3.21978182,57.4574545 3.21978182,57.4574545 L3.21905455,57.4567273 Z M8.09323636,59.5323636 C7.79869091,59.2392727 7.19869091,59.6763636 6.83869091,59.4727273 C6.99869091,58.5781818 7.62923636,59.5178182 8.23941818,58.8705455 C8.4816,58.6116364 8.35141818,58.2072727 8.21178182,58.0850909 C7.94850909,58.3541818 7.54269091,58.2596364 7.51069091,58.112 C8.20305455,56.4683636 6.85032727,54.6356364 5.55069091,54.8647273 C5.80523636,55.2065455 5.8816,56.3992727 5.77105455,56.7192727 C6.2656,57.0770909 5.91214545,57.9170909 5.36596364,57.672 C4.99941818,57.5229091 4.35287273,56.6029091 5.09687273,55.9556364 C5.07505455,55.7229091 4.66632727,55.6661818 4.23141818,56.2283636 C4.54996364,55.1956364 2.60014545,55.52 2.19941818,55.768 C1.97178182,56.1876364 1.71941818,58.2043636 2.71069091,57.8443636 C2.17832727,58.3098182 2.24523636,58.7272727 2.47287273,58.7425455 C3.07869091,57.9570909 3.98996364,58.5941818 4.14778182,58.9665455 C4.40232727,59.5214545 3.59650909,59.9105455 3.23505455,59.4130909 C2.92596364,59.5367273 1.76814545,59.496 1.42778182,59.2443636 C1.24596364,60.5883636 3.06705455,61.9229091 4.64087273,61.1592727 C4.78632727,61.1883636 4.88814545,61.6029091 4.63723636,61.8821818 C4.76087273,62.0225455 5.15578182,62.144 5.40087273,61.8850909 C6.00887273,61.2378182 5.07650909,60.6167273 5.94123636,60.4232727 C6.15069091,60.7869091 5.74487273,61.4196364 6.03941818,61.7134545 C6.50996364,62.1825455 7.10123636,61.2727273 7.68087273,61.2363636 C7.6976,60.6378182 8.56232727,60.0021818 8.09250909,59.5323636 L8.09323636,59.5323636 Z M17.2226909,74.0385455 C16.9463273,74.3949091 16.8423273,74.7418182 16.9136,75.0712727 C17.0008727,75.4698182 17.3936,75.6487273 17.7426909,75.6487273 C18.1136,75.6487273 18.4437818,75.4741818 18.6299636,75.1796364 C19.0263273,74.5498182 19.0445091,73.1563636 18.9099636,73.0036364 C18.5768727,73.0036364 17.6910545,73.4356364 17.2226909,74.0385455 L17.2226909,74.0385455 Z M18.1172364,72.4530909 C18.1150545,72.1403636 17.5245091,71.6152727 16.8248727,71.6152727 C15.7848727,71.6152727 15.3339636,72.2770909 15.3339636,72.6145455 C15.3339636,73.2501818 15.9448727,73.3316364 16.1325091,73.3418182 C16.8656,73.3876364 18.0452364,72.6363636 18.1179636,72.4530909 L18.1172364,72.4530909 Z M8.36305455,61.4589091 C8.26996364,61.4589091 8.1376,61.4807273 8.04087273,61.5847273 C7.94269091,61.6887273 7.90850909,61.8501818 7.94414545,62.0378182 C7.98341818,62.2414545 8.09905455,62.448 8.27141818,62.6196364 C8.47505455,62.8232727 8.73396364,62.9469091 8.96087273,62.9469091 C9.05396364,62.9469091 9.18487273,62.9250909 9.28232727,62.8218182 C9.49323636,62.5963636 9.38923636,62.1236364 9.05323636,61.7869091 C8.84741818,61.5832727 8.58996364,61.4596364 8.36232727,61.4596364 L8.36305455,61.4589091 Z M15.9026909,70.2225455 C15.9870545,70.2516364 16.0728727,70.2298182 16.1572364,70.1861818 C15.8852364,70.5643636 15.8954182,70.8152727 16.0139636,70.9323636 C16.1979636,71.1141818 16.3339636,70.7796364 16.7994182,70.2836364 C17.2648727,69.7890909 17.5877818,69.6385455 17.4030545,69.4545455 C17.2866909,69.3381818 17.0408727,69.3338182 16.6757818,69.6327273 C16.7150545,69.5454545 16.7303273,69.4581818 16.7012364,69.3738182 C16.5470545,68.9272727 15.8306909,68.3338182 15.4357818,68.3316364 C15.3746909,68.3316364 15.3194182,68.3461818 15.2699636,68.368 C15.4445091,68.0872727 15.3986909,67.8763636 15.2823273,67.7607273 C15.1543273,67.6334545 15.0808727,67.7221818 14.9376,67.9061818 C14.9565091,67.7781818 14.9230545,67.6269091 14.8030545,67.4429091 C14.2096,66.5432727 11.0721455,63.5810909 10.3608727,63.2829091 C9.93541818,63.1054545 9.79650909,63.352 9.79650909,63.352 C9.79650909,63.352 9.56014545,63.5047273 9.7456,63.936 C10.0583273,64.6596364 13.0714182,67.752 13.9637818,68.3345455 C14.1456,68.4530909 14.2932364,68.4821818 14.4168727,68.4581818 C14.2437818,68.6109091 14.1608727,68.6887273 14.2881455,68.816 C14.4045091,68.9323636 14.6117818,68.9709091 14.8772364,68.7825455 C14.8597818,68.8349091 14.8481455,68.8916364 14.8503273,68.9541818 C14.8626909,69.3614545 15.4612364,70.0792727 15.9012364,70.224 L15.9026909,70.2225455 Z M63.5536,66.8101818 L63.5536,70.9541818 L67.5928727,70.9541818 C67.2408727,68.8414545 65.6146909,67.1738182 63.5536,66.8109091 L63.5536,66.8101818 Z M57.7572364,71.7585455 C57.7572364,71.3352727 57.8299636,70.9534545 57.8299636,70.9534545 L61.8648727,70.9534545 L61.8648727,66.8094545 C59.9172364,67.1512727 58.3594182,68.6567273 57.8954182,70.6021818 C57.7826909,70.7636364 57.4168727,70.8465455 57.1586909,70.8174545 C55.6699636,70.6356364 52.6568727,70.0901818 52.6568727,69.448 C52.6568727,68.544 53.2677818,68.1825455 53.8539636,68.1825455 C54.6903273,68.1825455 55.6139636,68.6363636 56.3848727,67.5192727 C53.6452364,67.6450909 55.7448727,63.6778182 53.4976,62.9250909 C53.6096,63.9381818 53.4990545,65.7207273 53.1448727,66.6632727 C53.1448727,66.6632727 52.3397818,65.8 51.4357818,65.4749091 C51.5034182,66.2109091 51.3659636,67.7352727 51.0379636,68.4290909 C51.0379636,68.4290909 50.0808727,67.5403636 49.0874182,67.2072727 C50.0037818,68.5396364 49.9725091,70.4392727 49.7259636,71.5949091 C49.6546909,71.9294545 49.9026909,72.344 50.6016,72.3149091 C51.6939636,72.2654545 55.4256,72.4312727 57.0452364,73.0930909 C57.5470545,73.3003636 57.9790545,73.5367273 58.1892364,73.8967273 C58.3601455,74.3810909 58.7841455,75.1316364 59.3063273,75.5163636 C59.5412364,74.6785455 60.5405091,73.7818182 61.1914182,73.8145455 C61.3856,73.824 61.6008727,74.1490909 61.6452364,74.4690909 C61.7034182,74.1709091 62.1834182,73.352 62.7092364,73.352 C63.1950545,73.352 63.6619636,74.0378182 63.8234182,74.6043636 C63.8721455,74.2407273 64.0866909,73.8516364 64.2816,73.8516364 C64.9346909,73.8516364 65.7579636,74.4334545 66.0670545,75.3934545 C66.3179636,75.0792727 67.4706909,73.5949091 67.6001455,72.6210909 L57.8306909,72.6210909 C57.8306909,72.6210909 57.7579636,72.2007273 57.7579636,71.7592727 L57.7572364,71.7585455 Z M58.2357818,71.7585455 C58.2357818,72.0334545 58.4539636,72.256 58.7216,72.256 C58.9906909,72.256 59.2088727,72.0327273 59.2088727,71.7578182 C59.2088727,71.4836364 58.9906909,71.2610909 58.7216,71.2610909 C58.4539636,71.2610909 58.2365091,71.4836364 58.2365091,71.7578182 L58.2357818,71.7585455 Z M60.2212364,71.7585455 C60.2212364,72.0334545 60.4379636,72.256 60.7063273,72.256 C60.9754182,72.256 61.1921455,72.0327273 61.1921455,71.7578182 C61.1921455,71.4836364 60.9739636,71.2610909 60.7063273,71.2610909 C60.4372364,71.2610909 60.2212364,71.4836364 60.2212364,71.7578182 L60.2212364,71.7585455 Z M61.0117818,74.5476364 C60.4954182,74.5476364 59.7826909,75.3134545 59.8139636,76.1272727 C59.8226909,76.3687273 59.9179636,76.68 60.2445091,76.7890909 C60.5754182,76.8996364 60.9717818,76.7323636 61.1405091,76.3381818 C61.4568727,75.5949091 61.1492364,74.5490909 61.0110545,74.5490909 L61.0117818,74.5476364 Z M62.7106909,73.9949091 C62.2961455,73.9949091 61.2706909,76.1069091 62.0343273,77.1752727 C62.1797818,77.3789091 62.4365091,77.4952727 62.7106909,77.4952727 C62.9848727,77.4952727 63.2416,77.3789091 63.3870545,77.1752727 C64.1506909,76.1061818 63.1252364,73.9949091 62.7106909,73.9949091 L62.7106909,73.9949091 Z M66.3143273,71.7585455 C66.3143273,72.0334545 66.5310545,72.256 66.7994182,72.256 C67.0670545,72.256 67.2845091,72.0327273 67.2845091,71.7578182 C67.2845091,71.4836364 67.0663273,71.2610909 66.7994182,71.2610909 C66.5303273,71.2610909 66.3136,71.4836364 66.3136,71.7578182 L66.3143273,71.7585455 Z M64.2779636,71.7585455 C64.2779636,72.0334545 64.4961455,72.256 64.7637818,72.256 C65.0328727,72.256 65.2496,72.0327273 65.2496,71.7578182 C65.2496,71.4836364 65.0314182,71.2610909 64.7637818,71.2610909 C64.4961455,71.2610909 64.2786909,71.4836364 64.2786909,71.7578182 L64.2779636,71.7585455 Z M62.7099636,71.2618182 C62.4408727,71.2618182 62.2241455,71.4843636 62.2241455,71.7585455 C62.2241455,72.0334545 62.4423273,72.256 62.7099636,72.256 C62.9790545,72.256 63.1957818,72.0327273 63.1957818,71.7578182 C63.1957818,71.4836364 62.9776,71.2610909 62.7099636,71.2610909 L62.7099636,71.2618182 Z M62.7099636,69.2203636 C62.4408727,69.2203636 62.2241455,69.4429091 62.2241455,69.7170909 C62.2241455,69.992 62.4423273,70.2145455 62.7099636,70.2145455 C62.9790545,70.2145455 63.1957818,69.992 63.1957818,69.7170909 C63.1957818,69.4429091 62.9776,69.2203636 62.7099636,69.2203636 L62.7099636,69.2203636 Z M62.7099636,67.2072727 C62.4408727,67.2072727 62.2241455,67.4298182 62.2241455,67.7047273 C62.2241455,67.9796364 62.4423273,68.2021818 62.7099636,68.2021818 C62.9790545,68.2021818 63.1957818,67.9796364 63.1957818,67.7054545 C63.1957818,67.4312727 62.9776,67.2087273 62.7099636,67.2087273 L62.7099636,67.2072727 Z M62.0350545,62.6785455 L62.1390545,63.8276364 L61.1477818,63.7170909 L61.1477818,65.0261818 L62.1390545,64.9149091 L62.0350545,66.1149091 L63.3805091,66.1149091 L63.2772364,64.9149091 L64.2685091,65.0254545 L64.2685091,63.7163636 L63.2772364,63.8276364 L63.3812364,62.6785455 L62.0357818,62.6785455 L62.0350545,62.6785455 Z M64.4081455,74.5476364 C64.2699636,74.5476364 63.9630545,75.5949091 64.2794182,76.3367273 C64.4481455,76.7323636 64.8437818,76.8996364 65.1754182,76.7890909 C65.5026909,76.68 65.5972364,76.3687273 65.6059636,76.1272727 C65.6365091,75.3127273 64.9237818,74.5490909 64.4088727,74.5490909 L64.4081455,74.5476364 Z" id="Fill-1" fill-opacity="0.54" fill="#FFFFFF" mask="url(#mask-2)"></path>
                        </g>
                        <rect id="size" opacity="0.5" x="0" y="0" width="132" height="100"></rect>
                    </g>
                </g>
            </g>
        </g>
    </g>
</svg>