<?xml version="1.0" encoding="UTF-8" standalone="no"?>
<svg width="80px" height="94px" viewBox="0 0 80 94" version="1.1" xmlns="http://www.w3.org/2000/svg" xmlns:xlink="http://www.w3.org/1999/xlink">
    <!-- Generator: sketchtool 3.7.1 (28215) - http://www.bohemiancoding.com/sketch -->
    <title>B2CA994A-92E9-46E7-BA32-380F32219DBF</title>
    <desc>Created with sketchtool.</desc>
    <defs></defs>
    <g id="1440" stroke="none" stroke-width="1" fill="none" fill-rule="evenodd">
        <g id="1440_rsc_v2_000_main_page" transform="translate(-1260.000000, -3516.000000)">
            <g id="full_footer_new" transform="translate(0.000000, 3000.000000)">
                <g id="sites" transform="translate(730.000000, 512.000000)">
                    <g id="mid_logo" transform="translate(504.000000, 0.000000)">
                        <g opacity="0.54" transform="translate(26.000000, 4.000000)" fill="#FFFFFF">
                            <path d="M56.3210297,78.0134277 C56.3210297,78.0134277 54.8315277,78.7473145 54.3138275,78.2596436 C53.7961273,77.7719727 52.9075775,76.5257568 51.7794037,77.2148438 C50.6512299,77.9039307 50.9965668,80.6728516 52.3343353,81.6813965 C52.5671234,80.8656006 53.4765473,81.3105469 53.6015473,80.3262939 C53.7265473,79.342041 52.7745209,78.9222412 52.7745209,78.9222412 C52.7745209,78.9222412 54.0405121,78.9912109 54.3116303,79.7950439 C55.3008881,79.0133057 56.3210297,78.0134277 56.3210297,78.0134277 Z" id="Path-379" transform="translate(53.711357, 79.346597) scale(-1, 1) translate(-53.711357, -79.346597) "></path>
                            <path d="M58.003179,78.2650146 C58.003179,78.2650146 56.3929496,77.7681885 56.1612601,79.5844727 C55.9295706,81.4007568 56.5540824,82.6206055 58.0922904,83.3780518 C57.7862601,82.7142334 58.8129935,82.1915283 58.8361869,81.9669189 C57.3282523,80.1195068 58.003179,78.2650146 58.003179,78.2650146 Z" id="Path-380" transform="translate(57.475283, 80.790470) scale(-1, 1) translate(-57.475283, -80.790470) "></path>
                            <path d="M59.3753186,80.6490479 C58.8339367,80.7664795 58.0683728,81.6403198 58.0683728,82.8250122 C58.0683728,84.0097046 58.5563489,85.1154785 59.926344,85.4980469 C59.7307873,84.8956299 60.2777844,84.5515137 60.254591,84.2723389 C59.513258,83.4975586 58.9652844,82.1894531 59.3753186,80.6490479 Z" id="Path-381" transform="translate(59.161841, 83.073547) scale(-1, 1) rotate(-12.000000) translate(-59.161841, -83.073547) "></path>
                            <path d="M52.3421359,82.6459961 C51.5301242,83.4046631 51.3489719,84.6518555 51.8052707,85.6420898 C52.2615695,86.6323242 54.2683444,86.892334 54.941196,85.3945312 C55.6140476,83.8967285 55.3647189,82.5597534 56.1777072,81.350769 C54.8067966,82.3203125 54.3358493,82.7529297 54.3358493,82.7529297 C54.3358493,82.7529297 54.6761203,83.8800049 54.069736,84.8002319 C54.4422946,83.862793 54.1255222,83.2981567 53.5885959,83.1400146 C53.0516696,82.9818726 52.574802,83.1567383 52.3421359,82.6459961 Z" id="Path-382" transform="translate(53.868852, 83.901050) scale(-1, 1) translate(-53.868852, -83.901050) "></path>
                            <path d="M21.1542486,71.8434973 C24.6007739,71.1607019 28.7518919,70.7897549 33.8734839,70.9156494 C28.6339467,70.2848972 24.2212991,70.4668071 20.4189453,71.1595095 C20.6722194,71.3843689 20.917405,71.6130013 21.1542486,71.8434973 Z" id="Path-395" transform="translate(27.146215, 71.186046) scale(-1, 1) translate(-27.146215, -71.186046) "></path>
                            <path d="M47.5464737,80.9002686 C47.5464737,80.9002686 49.7214004,80.2402344 50.185878,79.9379883 C50.9686738,79.4024672 51.7608638,78.8299657 52.5944824,78.2427726 C52.0566666,78.2575684 51.7161514,78.1220703 51.3923599,77.9477539 C51.4941055,77.7454224 51.4436905,77.6875 51.6904556,77.2160645 C50.9240069,77.710457 50.3792412,78.1181246 49.6596329,78.6090088 C48.9104874,79.7064209 47.5464737,80.9002686 47.5464737,80.9002686 Z" id="Path-395" transform="translate(50.070478, 79.058167) scale(-1, 1) translate(-50.070478, -79.058167) "></path>
                            <path d="M7.84277344,68.6001507 C8.67378956,68.1287425 11.342882,66.6757005 13.5706322,66.1414795 C13.629348,66.5552979 13.2079613,67.3693848 13.2079613,67.3693848 C13.2079613,67.3693848 16.1765893,65.6258545 18.6959984,65.3861084 C18.6367943,65.8564453 18.3867943,66.4367676 18.3867943,66.4367676 C18.3867943,66.4367676 19.8308861,65.6768799 23.3776391,65.9527588 C23.4552758,66.3896484 23.238601,67.0474854 23.238601,67.0474854 C23.238601,67.0474854 25.5553734,66.6325684 28.7998803,67.4030762 C28.3596947,67.9095459 27.4772484,68.5905762 27.4772484,68.5905762 C27.4772484,68.5905762 29.6920922,68.0253906 33.4705346,69.2926025 C33.1946557,69.8626709 32.5066674,70.6573486 32.5066674,70.6573486 C32.5066674,70.6573486 35.2754662,70.9804688 37.6094506,73.1824951 C35.1129906,73.7288818 32.4385521,73.2574463 32.4385521,73.2574463 C32.4385521,73.2574463 33.2666771,73.4768066 33.9859154,74.6453857 C32.5263207,75.2427979 29.7876732,75.2972412 28.348098,75.1188965 C28.9542992,75.645874 28.9230492,76.3419189 28.9230492,76.3419189 C28.9230492,76.3419189 25.8971703,76.5472412 22.9258568,75.130249 C23.6682885,75.8376465 23.4447777,76.4179688 23.4447777,76.4179688 C23.4447777,76.4179688 20.8721459,76.7132568 17.7725365,75.5375977 C18.2968285,76.0227051 18.4892113,76.8126221 18.4892113,76.8126221 C18.4892113,76.8126221 17.5628909,76.8529881 16.2952844,76.8007118 C15.64582,75.7665621 14.387462,73.9346715 12.6337811,72.1607719 C16.6018832,71.3604651 21.5089788,70.9575195 27.6938012,71.2518311 C21.1786803,69.8717571 15.6888856,69.9493266 11.1029197,70.7498628 C10.1220707,69.9315881 9.03097895,69.1820456 7.84277344,68.6001507 Z" id="Path-396" transform="translate(22.726112, 71.106801) scale(-1, 1) translate(-22.726112, -71.106801) "></path>
                            <path d="M47.2561035,78.5200195 C46.6327515,78.8727417 46.5185547,79.0539551 46.2567139,79.3934326 C48.3670654,79.7026367 49.4549561,80.9147949 49.4549561,80.9147949 C49.4549561,80.9147949 48.135376,81.708374 45.973877,81.3851318 C43.8123779,81.0618896 43.5493164,80.2280273 41.7250977,80.3669434 C42.3209997,79.9373214 43.3937988,79.1120605 43.9851074,78.7987671 C45.5292358,78.8994751 45.5661621,78.8443604 47.2561035,78.5200195 Z" id="Path-396" transform="translate(45.590027, 79.991282) scale(-1, 1) translate(-45.590027, -79.991282) "></path>
                            <path d="M58.9298005,85.2227783 C59.5009675,86.1424561 60.8535338,86.3639566 61.2999177,86.4517822 C60.100699,87.6236572 58.0877595,89.7657471 58.0877595,89.7657471 C58.0877595,89.7657471 57.7319246,86.6026611 57.7631746,86.2993164 C58.3283601,85.7633057 58.388907,85.7104492 58.9298005,85.2227783 Z" id="Path-397" transform="translate(59.530574, 87.494263) scale(-1, 1) translate(-59.530574, -87.494263) "></path>
                            <path d="M40,45 L49,45 L49,62 C49,65 48,66 45,66 C42,66 41,66 40,68 C39,66 38,66 35,66 C32,66 31,65 31,62 L31,45 L40,45 L40,45 Z M45.9443636,55.2418537 C45.7770909,55.0629446 45.6112727,54.882581 45.4498182,54.7007628 C45.2752727,54.5073083 45.1516364,54.4316719 44.9734545,54.4316719 C44.5749091,54.4316719 44.148,54.6498537 43.9189091,54.802581 C43.9043636,54.8083992 43.8934545,54.8229446 43.8876364,54.8622174 C44.1298182,54.8403992 44.3734545,54.8229446 44.6149091,54.7953083 C44.8272727,54.7713083 45.0250909,54.7793083 45.2083636,54.9160355 C45.3523636,55.0229446 45.4338182,55.1560355 45.4410909,55.3283992 C45.4643636,55.8811264 45.9043636,57.0447628 45.932,57.3923992 C45.9661818,57.530581 45.8010909,57.5698537 45.5734545,58.2120355 C45.4047273,58.4011264 44.9494545,57.8011264 45.0156364,57.6614901 C45.2803636,57.314581 45.3538182,57.098581 45.2869091,56.8396719 C45.2323636,56.6331264 45.1312727,56.2622174 45.0570909,56.0614901 C44.9567273,55.7923992 44.7312727,55.6920355 44.4512727,55.7880355 C43.3530909,56.1531264 43.1836364,55.666581 42.0949091,56.1247628 L43.3487273,58.066581 C43.3450909,57.9269446 43.2774545,57.6723992 43.0745455,57.4898537 C43.1109091,57.2934901 43.5065455,57.2134901 43.6549091,57.3953083 C43.8367273,57.6294901 44.1901818,57.9611264 44.4818182,58.0134901 C45.0418182,58.1182174 44.9981818,58.9691264 46.4934545,59.2534901 C46.308,59.4462174 45.8934545,59.3807628 45.7123636,59.2942174 C45.8214545,59.4629446 45.9465455,59.6214901 46.172,59.6796719 C45.9392727,59.9123992 45.2752727,59.3669446 45.3429091,59.9160355 C45.4578182,59.8491264 45.6170909,59.8382174 45.7516364,59.8723992 C46.0498182,59.946581 46.54,61.6454901 45.5087273,62.3887628 C45.7283636,62.4542174 45.964,62.3378537 46.1865455,62.3378537 C46.3174545,62.3378537 46.4389091,62.4643992 46.452,62.6054901 C46.548,62.6796719 46.612,62.770581 46.6672727,62.8869446 C46.5901818,62.9123992 46.4403636,62.8883992 46.3567273,62.8331264 C46.3901818,62.9262174 46.3821818,63.1531264 46.3472727,63.1574901 C46.2541818,63.1698537 46.1821818,63.1167628 46.0869091,63.0593083 C45.9545455,63.1283992 45.5181818,63.1007628 45.3945455,62.9902174 C45.0658182,63.0702174 44.74,63.1778537 44.3981818,63.1778537 C44.2127273,63.1778537 43.9690909,63.1662174 43.9763636,62.9393083 C43.9814545,62.8287628 44.036,62.7720355 44.0781818,62.6513083 C43.9210909,62.4876719 43.6585455,62.6440355 43.3436364,62.6753083 C42.9196364,62.7160355 42.7443636,62.650581 42.6527273,62.5633083 C43.0527273,62.1902174 42.8112727,61.2833083 42.1909091,61.2033083 C42.7014545,61.6927628 42.6345455,62.4847628 42.0636364,62.6629446 C42.2287273,62.7160355 42.3109091,62.7909446 42.3734545,62.9080355 C42.5734545,62.9916719 42.5770909,63.1378537 42.5610909,63.2033083 C42.452,63.1247628 42.2534545,63.0476719 42.0956364,63.0687628 C42.0847273,63.1378537 42.0556364,63.2673083 41.996,63.3160355 C41.9290909,63.3014901 41.8396364,63.2396719 41.8054545,63.1894901 C41.6236364,63.0513083 40.4869091,63.3174901 40.4178182,63.1313083 C40.3741818,62.9567628 40.6774545,62.8113083 40.9574545,62.7487628 C40.2374545,62.4840355 39.6134545,61.1269446 38.5065455,60.8963992 C37.9923636,60.7894901 37.2963636,61.0214901 37.2963636,61.6913083 C37.2963636,62.0200355 37.5603636,62.2731264 37.8454545,62.2731264 C38.1087273,62.2731264 38.2396364,62.0913083 38.2396364,61.9073083 C38.1974545,61.9393083 38.1712727,61.9582174 38.1450909,61.9800355 C37.9850909,62.1123992 37.78,62.1036719 37.6316364,61.9582174 C37.5007273,61.8316719 37.5007273,61.6091264 37.6272727,61.4600355 C37.7312727,61.3363992 37.8563636,61.2651264 38.0236364,61.2403992 C38.4563636,61.1771264 38.8112727,61.3160355 39.0505455,61.6651264 C39.164,61.8323992 39.2272727,62.0098537 39.2272727,62.1814901 C39.2272727,62.9538537 38.4563636,63.1291264 38.0287273,63.1291264 C36.9545455,63.1291264 36.3218182,62.3582174 36.3218182,61.4658537 C36.3218182,61.3618537 36.3269091,61.2563992 36.3436364,61.1502174 C36.5123636,60.146581 37.4069091,59.7262174 38.1807273,59.6011264 C38.0825455,59.2520355 37.8912727,58.9683992 37.6178182,58.7378537 C37.4818182,58.6229446 37.468,58.5291264 37.5538182,58.3829446 C37.6701818,58.1829446 37.7938182,57.9858537 37.8447273,57.7603992 C37.8570909,57.7094901 37.8621818,57.6563992 37.8665455,57.6018537 C37.4810909,57.9480355 36.9429091,58.2651264 36.1967273,58.4913083 C35.9618182,58.6003992 35.8374545,58.8163992 35.8076364,59.0629446 C35.7734545,59.3494901 35.7654545,59.6403992 35.7603636,59.9283992 C35.7589091,59.9960355 35.8069091,60.0687628 35.844,60.1320355 C35.9821818,60.3720355 36.1349091,60.6033083 36.1698182,60.9007628 C36.1698182,61.0447628 35.4469091,61.0607628 35.4469091,60.9443992 C35.4396364,60.4207628 35.0905455,60.2171264 35.1290909,59.8723992 C35.2236364,59.3342174 35.2454545,58.7960355 35.1581818,58.2563992 C35.1363636,58.1203992 35.2090909,58.0309446 35.3050909,57.9582174 C35.4578182,57.8418537 35.6221818,57.7356719 35.7756364,57.6193083 C36.1370909,57.3429446 36.2869091,56.9793083 36.2018182,56.5320355 C36.1909091,56.4738537 36.1654545,56.4178537 36.14,56.362581 C35.9603636,55.9640355 35.8287273,55.5596719 35.8287273,55.1102174 C35.8287273,54.6171264 35.2192727,54.6447628 35.2585455,55.1298537 C35.2716364,55.2803992 35.3843636,55.4920355 35.4476364,55.6374901 C36.0730909,57.0796719 34.9487273,58.1174901 33.7858182,58.1174901 C35.0076364,57.6927628 33.5,56.1247628 33.5,54.9538537 C33.5,54.2367628 34.0527273,53.706581 34.7130909,53.706581 C35.4745455,53.706581 35.9567273,54.1982174 36.0949091,54.282581 C36.4636364,53.6971264 37.5916364,53.5916719 38.0149091,53.5240355 C37.9829091,53.2091264 38.0272727,52.9291264 38.22,52.6876719 C38.2323636,52.6702174 38.2403636,52.6403992 38.2345455,52.6222174 C38.1734545,52.4738537 38.1094545,52.3262174 38.0265455,52.1822174 C37.6789091,52.5749446 37.596,53.0956719 37.596,53.3654901 C36.3101818,53.346581 35.7429091,52.7822174 35.3632727,52.5596719 C35.3647273,52.4614901 35.7065455,51.8447628 36.0105455,51.4374901 C35.6774545,51.722581 35.404,52.0447628 35.2032727,52.4302174 C35.0192727,52.2971264 34.8265455,52.1771264 34.6374545,52.0978537 C34.9269091,51.4767628 35.3109091,50.9923992 35.8010909,50.4862174 C35.1116364,50.7407628 34.5116364,51.522581 34.284,52.0134901 C34.0876364,51.9902174 33.7967273,51.9829446 33.6352727,52.0134901 C34.3865455,51.0942174 34.7290909,49.2803992 36.38,48.8738537 C35.9669091,50.5553083 36.9952727,51.2389446 37.7036364,50.7996719 C37.6112727,50.7996719 37.548,50.8142174 37.4883636,50.7996719 C36.108,50.4491264 36.9261818,48.5327628 36.5916364,48.1334901 C36.4658182,47.9807628 36.4003636,47.842581 36.4207273,47.6520355 C36.428,47.5843992 36.4083636,47.506581 36.3770909,47.4440355 L35.6425455,46.2149446 C35.5509091,46.0607628 35.8367273,45.9509446 35.8970909,46.0222174 L36.6461818,47.2513083 C36.6665455,47.2803992 36.6898182,47.3262174 36.7189091,47.3313083 C36.9916364,47.3800355 37.0767273,47.6076719 37.1872727,47.8083992 C37.2214545,47.8738537 37.2490909,47.9480355 37.2556364,48.0207628 C37.2607273,48.0774901 37.2454545,48.1553083 37.2083636,48.1931264 C37.0883636,48.314581 37.1116364,48.4331264 37.204,48.5894901 C37.3516364,48.8411264 41.7872727,56.2382174 41.7872727,56.2382174 C40.8236364,56.6331264 39.0818182,56.6651264 38.5763636,56.6163992 C38.4723636,56.8723992 38.3087273,57.1436719 38.0672727,57.4047628 C38.3072727,57.2469446 38.4949091,57.0469446 38.668,56.8302174 C38.8629091,56.8520355 39.1552727,56.930581 39.4534545,56.9523992 C39.2767273,57.330581 39.0112727,57.7073083 38.6709091,58.0214901 C38.5109091,58.1814901 38.3116364,58.3196719 38.3850909,58.5742174 C38.4672727,58.8593083 38.996,59.4033083 39.1901818,59.754581 C39.3814545,59.794581 39.7050909,59.8636719 39.9429091,59.9582174 C40.0774545,60.2491264 40.5356364,60.6149446 41.0876364,60.4258537 C39.9778182,60.4113083 40.0592727,59.2731264 40.404,58.6709446 C40.3676364,59.2309446 40.6367273,59.6949446 40.9785455,59.7473083 C40.4658182,59.2796719 40.5174545,58.2163992 41.0163636,57.6331264 C41.0876364,58.5800355 41.3741818,59.0782174 41.7843636,59.1894901 C41.2425455,58.690581 40.9167273,57.5349446 41.7356364,56.6927628 C41.7989091,58.8542174 43.7756364,58.4643992 43.9552727,60.9662174 C44.6876364,60.9662174 44.7290909,59.9793083 44.3210909,59.7974901 C44.0825455,59.7073083 43.8672727,59.5502174 43.7465455,59.3363992 C43.6956364,59.2469446 43.6425455,59.0862174 43.6010909,58.9916719 C43.3829091,58.3487628 42.7690909,58.3894901 42.7836364,58.2353083 C42.7981818,58.1843992 42.8949091,58.1596719 43.0309091,58.1596719 L41.8730909,56.3683992 L41.812,56.2753083 C41.9523636,56.2462174 41.9829091,56.1662174 41.8396364,55.9393083 C41.8396364,55.9393083 37.4949091,48.7058537 37.4745455,48.6643992 C37.8781818,48.5938537 38.2672727,48.7036719 38.644,48.8498537 C38.5421818,48.7553083 38.4607273,48.6258537 38.4432727,48.490581 C38.4287273,48.3814901 38.4330909,48.3189446 38.5203636,48.250581 C38.6127273,48.1742174 38.7021818,48.0869446 38.7661818,47.9887628 C38.9814545,47.6600355 39.3770909,47.5000355 39.7378182,47.6033083 C40.2818182,47.7574901 40.4738182,48.3720355 40.0745455,48.6956719 C39.8621818,49.1654901 39.5989091,49.1058537 39.5436364,49.3167628 C39.6512727,49.3647628 40.3945455,49.9400355 40.444,50.1822174 C40.2221818,50.6433083 40.1123636,51.3654901 40.3043636,51.7676719 C40.4483636,49.8491264 41.6025455,48.9094901 42.7261818,48.9094901 C42.9930909,48.9094901 43.2585455,48.9567628 43.5247273,49.0476719 C43.6701818,49.0971264 43.8156364,49.1676719 43.9370909,49.2600355 C44.1130909,49.3938537 44.2789091,49.5458537 44.4258182,49.7087628 C44.6454545,49.9487628 44.8461818,50.2069446 45.2185455,50.2236719 C45.1094545,50.378581 44.9858182,50.4927628 44.8585455,50.6047628 C44.7669091,50.6869446 44.7203636,50.786581 44.7101818,50.9102174 C44.684,51.1756719 44.5967273,51.4193083 44.4003636,51.6156719 C44.3749091,51.6418537 44.3530909,51.6767628 44.3407273,51.7102174 C44.2170909,52.0723992 44.0898182,52.4331264 43.9727273,52.7982174 C43.9436364,52.8869446 43.9494545,53.0091264 43.8294545,53.0076719 C43.7254545,53.0062174 43.6003636,52.9756719 43.5225455,52.9131264 C43.3581818,52.7793083 43.2992727,52.5843992 43.3581818,52.3793083 C43.4163636,52.1756719 43.3581818,51.9996719 43.2941818,51.8098537 C43.2287273,51.6193083 43.2047273,51.4142174 43.1603636,51.1974901 C42.8534545,51.0898537 42.2774545,51.7502174 42.7167273,52.3029446 C43.0025455,52.7102174 43.2592727,53.4614901 43.3036364,53.7691264 C43.3123636,53.7982174 43.0432727,53.9691264 42.6723636,53.9218537 C41.4192727,53.7618537 40.6272727,52.8891264 40.3858182,52.154581 C40.3669091,53.4003992 41.3989091,54.3218537 42.9276364,54.2331264 C42.9901818,54.5240355 43.2272727,54.7203992 43.5021818,54.7291264 C43.5603636,54.5422174 43.5581818,54.1494901 43.5116364,53.9000355 C43.4912727,53.7909446 43.548,53.7327628 43.6498182,53.7073083 C43.9843636,53.6214901 44.4207273,53.6549446 44.7916364,53.5218537 C45.1225455,53.4033083 45.2789091,53.4723992 45.484,53.8723992 C45.6396364,54.1742174 45.9058182,54.4978537 46.1567273,54.7233083 C46.2621818,54.8156719 46.3676364,54.9109446 46.4672727,55.010581 C46.5938182,55.1378537 46.66,55.2869446 46.6709091,55.4731264 C46.6374545,55.7640355 46.676,56.3458537 46.676,56.3560355 C46.6032727,56.5473083 46.0745455,56.3451264 45.9894545,56.1393083 C45.9574545,56.0629446 46.2149091,55.5247628 45.9443636,55.2360355 L45.9443636,55.2418537 Z M34.6852796,61 C34.6576432,61.3592727 35.0743705,62.0123636 35.7616432,61.8072727 C35.7412796,61.9410909 35.7798251,62.3032727 35.9332796,62.5752727 C34.7150978,62.8516364 34.1892796,61.848 34.6860069,61 L34.6852796,61 Z" id="Path"></path>
                            <path d="M43.3165592,24.4377441 C43.3165592,24.4377441 43.2659001,22.6116943 47.2659001,22.6116943 C51.2659001,22.6116943 52.3149723,24.7454834 54.3819889,23.9748535 C54.0455631,24.9249268 53.5149235,25.1247559 53.0770573,25.1132812 C54.0549626,25.5545654 54.3399967,26.5577393 55.8782047,26.6967773 C54.6654362,27.8491211 52.9299626,27.477417 52.9299626,27.477417 C52.9299626,27.477417 53.255402,28.2862549 53.224152,29.2301025 C51.9488835,29.4929199 51.0975651,29.0959473 50.5508122,28.6669922 C51.1832585,29.3900146 51.2355045,30.6422119 51.2355045,30.6422119 C51.2355045,30.6422119 47.4726872,30.1713867 45.4177555,27.9371338 C43.3628239,25.7028809 43.3165592,24.4377441 43.3165592,24.4377441 Z M47.2402653,24.6385498 C47.2402653,24.6385498 45.9751286,23.9807129 45.0846256,24.1439209 C44.1941227,24.3071289 44.7916569,25.9832764 45.5632633,25.3868408 C46.3348698,24.7904053 46.2130436,24.7381592 47.2402653,24.6385498 Z" id="Path-372" transform="translate(49.597367, 26.626953) scale(-1, 1) translate(-49.597367, -26.626953) "></path>
                            <path d="M59.5193852,28.0205078 C59.5193852,28.0205078 58.0506352,26.6768799 57.7262944,24.543335 C56.0350102,24.3256836 54.0685795,25.3833008 55.4849614,28.0028076 C56.1341313,26.5878906 57.5070561,28.2219238 59.5193852,28.0205078 Z" id="Path-373" transform="translate(57.259265, 26.276823) scale(-1, 1) translate(-57.259265, -26.276823) "></path>
                            <path d="M56.984436,28.1860352 C54.7716675,27.9960938 53.2142944,29.2910156 52.0270386,28.6019287 C52.795166,29.6193848 53.9118042,29.3249512 54.9971313,29.0741577 C54.7331543,29.4459229 55.0302734,29.7446899 55.0302734,29.7446899 C55.0302734,29.7446899 55.7305298,29.1213379 57.1176147,29.3807373 C58.5046997,29.6401367 58.5892944,29.9830933 59.8127441,30.093811 C58.5528564,29.5852051 57.7915039,28.9852905 56.984436,28.1860352 Z" id="Path-374" transform="translate(55.919891, 29.130298) scale(-1, 1) translate(-55.919891, -29.130298) "></path>
                            <path d="M40.2633057,31.3956299 C40.2633057,31.3956299 41.1879883,31.8955078 41.7460938,31.9187012 C41.6394043,30.9597168 41.5144043,30.1558838 41.5144043,30.1558838 C41.5144043,30.1558838 42.3171387,30.4420166 43.5633545,30.4420166 C43.619873,29.1375732 43.487915,28.3779297 43.487915,28.3779297 C43.487915,28.3779297 44.2006836,28.3083496 45.2696533,28.0212402 C47.0217285,29.2685547 47.0821533,31.7532959 48.3170166,32.532959 C46.7578125,32.8686523 45.9873047,32.3162842 45.614502,32.0070801 C46.0584717,32.8227539 46.3962402,34.2591553 46.2480469,35.5408936 C44.4538574,35.1082764 43.8903809,33.9030762 43.8903809,33.9030762 C43.8903809,33.9030762 44.4675293,36.1491699 42.0117188,37.2310791 C42.1507568,36.1131592 42.1280518,34.2495117 40.2633057,31.3956299 Z" id="Path-375" transform="translate(44.290161, 32.626160) scale(-1, 1) translate(-44.290161, -32.626160) "></path>
                            <path d="M46.0429688,35.9193115 C46.0429688,35.9193115 45.5939941,37.4008789 44.1867676,38.2370605 C44.1728516,40.2310791 43.1286621,43.4007568 40,43.2213135 C41.8415527,44.7260742 44.6297607,44.1793213 45.3144531,42.4105225 C45.2030029,43.9072266 46.2072754,44.277832 46.2072754,44.277832 C46.2072754,44.277832 47.7050781,44.0936279 47.864502,42.013916 C47.9367676,43.9001465 48.9954834,44.1965332 48.9954834,44.1965332 C48.9954834,44.1965332 50.1224365,44 50.1224365,42 L50.1224365,35 C50.1224365,34 49.885498,33.6014404 49.885498,33.6014404 C49.885498,33.6014404 49.3930664,33.7022705 48.6263428,33.5632324 C48.9506836,34.9230957 48.9852295,35.9898682 48.5810547,36.8028564 C47.2200928,36.9058838 46.0429688,35.9193115 46.0429688,35.9193115 Z" id="Path-376" transform="translate(45.061218, 38.920532) scale(-1, 1) translate(-45.061218, -38.920532) "></path>
                            <path d="M64.819509,47 C64.819509,47 62.9570822,48.5360107 59.9291281,46.6502686 C56.901174,44.7645264 56.9301047,42.2714844 57.9124045,41.4504395 C58.8947043,40.6293945 59.7195334,40.6827393 60.6715597,40.189209 C61.6235861,39.6956787 62.6918234,37.3146973 59.654714,33.8050537 C56.6176047,30.2954102 54.0632834,29.7264404 52.4717306,28.2728271 C50.8801779,26.8192139 50.6113791,25.4130859 50.6113791,25.4130859 C50.6113791,25.4130859 48.7095236,28.1757812 51.6145529,30.9117432 C51.6469015,33.3626709 53.1521506,34.9208984 55.5184836,35.4709473 C54.4943136,35.3551025 54.1769308,36.0118408 54.1769308,36.0118408 C54.1769308,36.0118408 53.909841,36.8022461 55.07134,37.9730225 C53.819509,37.9035645 53.1213888,38.6087646 53.1213888,38.6087646 C53.1213888,38.6087646 53.1584982,39.7160645 54.6289572,40.1032715 C53.3347677,40.1330566 52.7303976,40.8323975 52.7303976,40.8323975 C52.7303976,40.8323975 53.2495627,41.559082 54.583547,41.9724121 C53.2913107,41.9110107 52.7837424,42.8076172 52.7837424,42.8076172 C52.7837424,42.8076172 53.2739767,44.0214844 54.7971701,43.9659424 C53.3494162,44.0909424 53.0137228,45.1043701 53.0137228,45.1043701 C53.0137228,45.1043701 53.819509,45.9373779 55.2048849,45.7611084 C54.3860373,46.1247559 54.2090353,47.0316162 54.2090353,47.0316162 C54.2090353,47.0316162 55.232717,47.7740479 56.3250021,47.3839111 C55.687673,48.0789795 56.0181174,49.0262451 56.0181174,49.0262451 C56.0181174,49.0262451 57.5249533,49.1757812 58.4225363,48.6812744 C57.8535666,49.2685547 58.5787863,50.2971191 58.5787863,50.2971191 C58.5787863,50.2971191 59.9240011,50.5551758 61.3496603,49.4468994 C60.8303732,50.2614746 61.8668722,51.2344971 61.8668722,51.2344971 C61.8668722,51.2344971 64.819509,51 64.819509,49 C64.819509,47 64.819509,47 64.819509,47 Z" id="Path-377" transform="translate(57.409754, 38.323792) scale(-1, 1) translate(-57.409754, -38.323792) "></path>
                            <path d="M56.4512939,35.6799316 C56.4512939,35.6799316 53.9577637,34.5129395 53.8188477,31.0032959 C52.2504883,30.4984131 50.8814697,30.7775879 50.8814697,30.7775879 C50.8814697,30.7775879 50.7935791,32.6728516 53.0360107,34.2989502 C51.5797119,34.0241699 50.142334,34.4261475 50.142334,34.4261475 C50.142334,34.4261475 50.3739014,36.7288818 52.6906738,38.3726807 C50.890625,38.1619873 50,38.7110596 50,38.7110596 C50,38.7110596 50.5339355,40.5100098 52.4638672,40.8354492 C50.7855225,40.9038086 50.2736816,42.0924072 50.2736816,42.0924072 C50.2736816,42.0924072 50.6098633,43.3978271 52.8070068,43.5681152 C51.2386475,43.6768799 50.7337646,45.0206299 50.7337646,45.0206299 C50.7337646,45.0206299 51.5426025,46.3400879 53.7677002,46.3945312 C52.1055908,46.5889893 51.9573975,47.407959 51.9573975,47.407959 C51.9573975,47.407959 52.5898438,48.901001 55.6177979,48.6137695 C54.1340332,49.1289062 54.1943359,50.626709 54.1943359,50.626709 C54.1943359,50.626709 55.6700439,51.7247314 57.755127,50.6881104 C56.6269531,51.480835 56.9997559,52.8848877 56.9997559,52.8848877 C56.9997559,52.8848877 58.5731201,53.7362061 60.605835,52.0056152 C60.0357666,53.2113037 60.4447021,54.8179932 60.4447021,54.8179932 C60.4447021,54.8179932 62.6676025,55.0457764 63.9499512,52.479126 C63.4251709,54.189209 64.7177734,55.9854736 64.7177734,55.9854736 C64.7177734,55.9854736 68.1044922,55 68.1044922,52 L68.1044922,51 C68.1044922,51 66.9963379,52.284668 64.9715576,52.3380127 C64.0275879,51.5491943 63.9187012,50.760498 63.9187012,50.760498 C63.9187012,50.760498 63.2537842,51.2539062 61.5313721,51.2226562 C60.8768311,50.5357666 60.8605957,49.706543 60.8605957,49.706543 C60.8605957,49.706543 60.2753906,50.0007324 58.6899414,49.9000244 C58.3504639,48.8493652 58.6053467,48.2459717 58.6053467,48.2459717 C58.6053467,48.2459717 57.1865234,48.2912598 56.4742432,47.4329834 C56.7744141,46.4205322 57.1309814,46.2271729 57.1309814,46.2271729 C57.1309814,46.2271729 56.1154785,46.3903809 55.1737061,45.4615479 C55.5906982,44.5327148 56.3793945,44.045166 56.3793945,44.045166 C56.3793945,44.045166 55.6387939,43.7669678 55.1037598,42.7767334 C55.8208008,41.9335938 56.3165283,41.786499 56.3165283,41.786499 C56.3165283,41.786499 55.5880127,41.6092529 55.0460205,40.7811279 C55.8288574,39.8835449 56.4705811,39.8371582 56.4705811,39.8371582 C56.4705811,39.8371582 55.7293701,39.4083252 55.3041992,38.4018555 C56.081665,37.6071777 57.1484375,37.5366211 57.1484375,37.5366211 C57.1484375,37.5366211 56.2832031,36.6308594 56.4512939,35.6799316 Z" id="Path-378" transform="translate(59.052246, 43.343036) scale(-1, 1) translate(-59.052246, -43.343036) "></path>
                            <path d="M74.3742139,25.7353516 C70.9975049,22.1730957 67.8410107,17.1269531 67.454292,12.0559082 C64.2345654,15.4221191 65.374458,19.9973145 67.0145947,21.6352539 C66.6300732,24.4919434 67.0705029,27.0942383 69.919624,28.3840332 C70.0004346,29.9033203 70.7838818,31.1779785 72.0231397,31.9538574 C71.5457227,31.1451416 71.6153027,30.1014404 71.6153027,30.1014404 C71.6153027,30.1014404 72.3616406,29.3968506 74.5947949,29.791748 C73.6579053,27.8354492 73.9854199,26.8483887 74.3742139,25.7353516 Z" id="Path-383" transform="translate(69.998752, 22.004883) scale(-1, 1) translate(-69.998752, -22.004883) "></path>
                            <path d="M69.2334438,18.9471436 C69.2334438,18.9471436 68.5175015,18.4110107 67.6742397,18.2790527 C67.0939175,20.3942871 66.3456265,23.6502686 69.5276333,26.9307861 C69.2253872,30.2355957 70.3513638,31.9500732 72.7386929,33.0550537 C73.2574917,35.6357422 75.0936733,36.6842041 76.7557827,37.0397949 C75.9535366,35.8511353 75.6786343,34.7781372 75.7097622,33.9223022 C76.7946011,33.3757324 77.5831142,33.2785034 77.5831142,33.2785034 C77.5831142,33.2785034 73.6446377,31.6845093 73.7211147,28.9140625 C71.4049526,27.6358643 70.150375,25.1309204 70.7104336,21.954834 C69.4391933,20.6765747 69.2334438,18.9471436 69.2334438,18.9471436 Z" id="Path-384" transform="translate(72.370445, 27.659424) scale(-1, 1) translate(-72.370445, -27.659424) "></path>
                            <path d="M69.3104551,25.4244385 C69.3104551,25.4244385 68.7173155,24.8825684 67.6494444,24.6578369 C67.2972715,27.277832 67.0958555,30.7055664 70.317169,33.2399902 C70.3402403,36.3083496 72.416046,37.720459 74.6111143,38.0528564 C76.095001,40.3092041 78.7973936,40.6799316 78.7973936,40.6799316 C78.7973936,40.6799316 77.7165831,39.8400879 77.438629,38.5081787 C78.1708067,37.8955078 79.1692198,37.734375 79.1692198,37.734375 C79.1692198,37.734375 74.4780577,37.4666748 73.8768614,33.5281982 C71.5600889,32.3768311 70.2938536,30.1381836 70.4862364,27.1776123 C69.8908995,26.3554688 69.3104551,25.4244385 69.3104551,25.4244385 Z" id="Path-385" transform="translate(73.315018, 32.668884) scale(-1, 1) translate(-73.315018, -32.668884) "></path>
                            <path d="M70.7423706,33.4761963 C69.9697876,32.7227173 69.3071289,32.6290283 68.2322998,32.3267822 C68.2521973,35.9489746 69.6540527,38.2150879 72.1674805,39.0615234 C73.4761963,41.2133789 75.1048584,41.0037842 76.1555176,41.0662842 C77.0358887,42.5893555 78.4549561,42.967041 79.7545166,42.9902344 C79.1247559,42.6125488 78.9541016,41.9732666 78.9541016,41.9732666 C78.9541016,41.9732666 79.3927612,41.4082031 79.8924561,41.2420044 C78.1716309,41.0335083 76.428833,40.1425171 75.4870605,38.7559204 C72.5019531,38.0719604 71.0324707,36.2221069 70.7423706,33.4761963 Z" id="Path-386" transform="translate(74.062378, 37.658508) scale(-1, 1) translate(-74.062378, -37.658508) "></path>
                            <path d="M70.3309326,39.5377197 C69.4797363,39.5457764 67.9737549,39.9558105 67.3762207,41.0112305 C70.2327881,44.9039307 76.5390625,44.9108887 78.7421875,44.934082 C78.7666016,44.5979004 79.0601807,43.9934082 79.8026123,43.7121582 C77.3851318,43.6162109 75.859375,43.5058594 74.6875,41.8205566 C72.6311035,41.7661133 71.6789551,41.1362305 70.3309326,39.5377197 Z" id="Path-387" transform="translate(73.589417, 42.235901) scale(-1, 1) translate(-73.589417, -42.235901) "></path>
                            <path d="M77.1263428,45.53125 C77.1263428,45.53125 72.2088623,45.9239502 68.7478027,44.3798828 C67.3265381,45.1213379 66.5845947,46.4536133 66.5845947,46.4536133 C66.5845947,46.4536133 68.2827148,48.9093018 78.3778076,47.4799805 C78.4715576,46.9946289 78.682251,46.8345947 79.0206299,46.6158447 C78.0152588,46.5323486 77.1263428,45.53125 77.1263428,45.53125 Z" id="Path-388" transform="translate(72.802612, 46.153423) scale(-1, 1) translate(-72.802612, -46.153423) "></path>
                            <path d="M74.6397705,47.914917 C74.6397705,47.914917 71.7045898,48.9746094 66.5301514,48.6955566 C65.2004395,49.5484619 64.5981445,51.1502686 64.5981445,51.1502686 C64.5981445,51.1502686 69.2451172,53.0396729 77.0583496,49.3199463 C75.3510742,49.0397949 74.6397705,47.914917 74.6397705,47.914917 Z" id="Path-389" transform="translate(70.828247, 49.772505) scale(-1, 1) translate(-70.828247, -49.772505) "></path>
                            <path d="M71.9656372,49.9508057 C70.107666,51.0361938 67.3366699,52.3297119 63.939209,52.5614014 C62.6116943,53.5634766 62.2321167,54.8410034 62.1585693,55.2771606 C63.3678589,55.7259521 67.6430054,56.3515015 74.380127,51.6959229 C72.5256958,52.039917 71.5386963,51.3419189 71.5386963,51.3419189 C71.5386963,51.3419189 71.5386963,50.5687866 71.9656372,49.9508057 Z" id="Path-390" transform="translate(68.269348, 52.767133) scale(-1, 1) translate(-68.269348, -52.767133) "></path>
                            <path d="M69.9025879,53.9580078 C69.9025879,53.9580078 68.5437012,54.2973633 67.3067627,54.0263672 C67.135498,53.1218262 67.3380127,52.4407959 67.3380127,52.4407959 C67.3380127,52.4407959 64.4822998,54.8232422 61.0855713,55.8577881 C59.8658447,57.5581055 59.5797119,59.7438965 59.5797119,59.7438965 C59.5797119,59.7438965 61.6768799,60.0068359 64.4822998,58.4304199 C67.2877197,56.8540039 69.9025879,53.9580078 69.9025879,53.9580078 Z" id="Path-391" transform="translate(64.741150, 56.100573) scale(-1, 1) translate(-64.741150, -56.100573) "></path>
                            <path d="M61.841625,53.8374023 C61.841625,53.8374023 59.0138662,57.5263672 56.8861806,58.7041016 C56.3500478,60.8306885 56.5121572,63.2723389 56.5121572,63.2723389 C56.5121572,63.2723389 60.7829091,63.3520508 63.9881093,55.3432617 C63.0263173,55.7382812 62.1347158,55.8631592 62.1347158,55.8631592 C62.1347158,55.8631592 61.817333,55.0350342 61.841625,53.8374023 Z" id="Path-392" transform="translate(60.238623, 58.554886) scale(-1, 1) translate(-60.238623, -58.554886) "></path>
                            <path d="M56.6927999,55.0834961 C56.6927999,55.0834961 55.7698263,58.225708 53.76238,60.902832 C53.4207052,63.777832 54.2358907,64.9549561 54.2358907,64.9549561 C54.2358907,64.9549561 57.8801779,64.2287598 58.7546896,57.1524658 C57.9890646,56.1190186 57.7341818,55.428833 57.6415304,54.3087158 C57.3322042,54.7349854 56.6927999,55.0834961 56.6927999,55.0834961 Z" id="Path-393" transform="translate(56.216700, 59.631836) scale(-1, 1) translate(-56.216700, -59.631836) "></path>
                            <path d="M50.1438196,57.1270752 C50.1438196,57.1270752 49.3830774,60.0887451 51.3608607,61.3446045 C52.7762659,60.4550781 53.3272913,59 53.3272913,57 C53.3272913,55 53.3272913,55 53.3272913,54 C52.7240198,56.1114502 50.1438196,57.1270752 50.1438196,57.1270752 Z" id="Path-394" transform="translate(51.663646, 57.672302) scale(-1, 1) translate(-51.663646, -57.672302) "></path>
                            <path d="M55.3673096,60 C55.3673096,62 52.6490479,63.1280518 51.2347412,62.6416016 C51.5170898,63.0898438 51.6188965,62.9777832 51.8494873,63.1674805 C50.0251465,63.6900635 49.2052002,64.9874268 49.2052002,64.9874268 C49.2052002,64.9874268 50.4471436,64.9943848 51.0585938,65.1959229 C50.9124756,64.3829346 51.0214233,64.331604 51.0214233,64.331604 C51.0214233,64.331604 52.1773682,64.0510864 56.1621094,65.7040405 C55.3270264,64.7426147 55.3773804,63.3948975 55.3673096,60 Z" id="Path-410" transform="translate(52.683655, 62.852020) scale(-1, 1) translate(-52.683655, -62.852020) "></path>
                            <path d="M42.5355993,81 C42.5355993,81 41.7915807,81.9433594 40.5858922,82.1217041 C39.6488805,86.0671387 39.5355993,91 42.5355993,94 C42.5355993,94 42.5355993,81 42.5355993,81 Z" id="Path-411" transform="translate(41.267800, 87.500000) scale(-1, 1) translate(-41.267800, -87.500000) "></path>
                            <path d="M45.9476186,82.2806396 C45.9476186,82.2806396 44.3809682,88.2686768 46.3825551,91.8768311 C45.8776723,92.4732666 44.9106313,92.9396973 44.5431996,93.0615234 C41.6811391,90.1967773 41.9073354,87.5999756 43.0506459,82.2354736 C44.5171986,82.5738525 45.9476186,82.2806396 45.9476186,82.2806396 Z" id="Path-412" transform="translate(44.319390, 87.648499) scale(-1, 1) translate(-44.319390, -87.648499) "></path>
                            <path d="M49.9803105,82.0834961 C49.4081669,84.7757568 48.6657353,86.3699951 49.4394169,89.5321045 C48.7768193,90.2093506 47.9485722,90.30896 47.9485722,90.30896 C47.9485722,90.30896 44.5096074,87.0096436 47.2896367,80.8782959 C48.5132695,81.1848145 48.9270878,81.7850342 49.9803105,82.0834961 Z" id="Path-413" transform="translate(48.092389, 85.593628) scale(-1, 1) translate(-48.092389, -85.593628) "></path>
                            <path d="M24.1218262,24.4377441 C24.1218262,24.4377441 24.071167,22.6116943 28.071167,22.6116943 C32.071167,22.6116943 33.1202393,24.7454834 35.1872559,23.9748535 C34.8508301,24.9249268 34.3201904,25.1247559 33.8823242,25.1132812 C34.8602295,25.5545654 35.1452637,26.5577393 36.6834717,26.6967773 C35.4707031,27.8491211 33.7352295,27.477417 33.7352295,27.477417 C33.7352295,27.477417 34.0606689,28.2862549 34.0294189,29.2301025 C32.7541504,29.4929199 31.902832,29.0959473 31.3560791,28.6669922 C31.9885254,29.3900146 32.0407715,30.6422119 32.0407715,30.6422119 C32.0407715,30.6422119 28.2779541,30.1713867 26.2230225,27.9371338 C24.1680908,25.7028809 24.1218262,24.4377441 24.1218262,24.4377441 Z M28.0455322,24.6385498 C28.0455322,24.6385498 26.7803955,23.9807129 25.8898926,24.1439209 C24.9993896,24.3071289 25.5969238,25.9832764 26.3685303,25.3868408 C27.1401367,24.7904053 27.0183105,24.7381592 28.0455322,24.6385498 Z" id="Path-372"></path>
                            <path d="M25.0008545,28.0205078 C25.0008545,28.0205078 23.5321045,26.6768799 23.2077637,24.543335 C21.5164795,24.3256836 19.5500488,25.3833008 20.9664307,28.0028076 C21.6156006,26.5878906 22.9885254,28.2219238 25.0008545,28.0205078 Z" id="Path-373"></path>
                            <path d="M25.1446533,28.1860352 C22.9318848,27.9960938 21.3745117,29.2910156 20.1872559,28.6019287 C20.9553833,29.6193848 22.0720215,29.3249512 23.1573486,29.0741577 C22.8933716,29.4459229 23.1904907,29.7446899 23.1904907,29.7446899 C23.1904907,29.7446899 23.8907471,29.1213379 25.277832,29.3807373 C26.664917,29.6401367 26.7495117,29.9830933 27.9729614,30.093811 C26.7130737,29.5852051 25.9517212,28.9852905 25.1446533,28.1860352 Z" id="Path-374"></path>
                            <path d="M31.6829834,31.3956299 C31.6829834,31.3956299 32.607666,31.8955078 33.1657715,31.9187012 C33.059082,30.9597168 32.934082,30.1558838 32.934082,30.1558838 C32.934082,30.1558838 33.7368164,30.4420166 34.9830322,30.4420166 C35.0395508,29.1375732 34.9075928,28.3779297 34.9075928,28.3779297 C34.9075928,28.3779297 35.6203613,28.3083496 36.6893311,28.0212402 C38.4414062,29.2685547 38.5018311,31.7532959 39.7366943,32.532959 C38.1774902,32.8686523 37.4069824,32.3162842 37.0341797,32.0070801 C37.4781494,32.8227539 37.815918,34.2591553 37.6677246,35.5408936 C35.8735352,35.1082764 35.3100586,33.9030762 35.3100586,33.9030762 C35.3100586,33.9030762 35.887207,36.1491699 33.4313965,37.2310791 C33.5704346,36.1131592 33.5477295,34.2495117 31.6829834,31.3956299 Z" id="Path-375"></path>
                            <path d="M35.9205322,35.9193115 C35.9205322,35.9193115 35.4715576,37.4008789 34.0643311,38.2370605 C34.050415,40.2310791 33.0062256,43.4007568 29.8775635,43.2213135 C31.7191162,44.7260742 34.5073242,44.1793213 35.1920166,42.4105225 C35.0805664,43.9072266 36.0848389,44.277832 36.0848389,44.277832 C36.0848389,44.277832 37.5826416,44.0936279 37.7420654,42.013916 C37.8143311,43.9001465 38.8730469,44.1965332 38.8730469,44.1965332 C38.8730469,44.1965332 40,44 40,42 L40,35 C40,34 39.7630615,33.6014404 39.7630615,33.6014404 C39.7630615,33.6014404 39.2706299,33.7022705 38.5039062,33.5632324 C38.8282471,34.9230957 38.862793,35.9898682 38.4586182,36.8028564 C37.0976562,36.9058838 35.9205322,35.9193115 35.9205322,35.9193115 Z" id="Path-376"></path>
                            <path d="M30,47 C30,47 28.1375732,48.5360107 25.1096191,46.6502686 C22.081665,44.7645264 22.1105957,42.2714844 23.0928955,41.4504395 C24.0751953,40.6293945 24.9000244,40.6827393 25.8520508,40.189209 C26.8040771,39.6956787 27.8723145,37.3146973 24.8352051,33.8050537 C21.7980957,30.2954102 19.2437744,29.7264404 17.6522217,28.2728271 C16.0606689,26.8192139 15.7918701,25.4130859 15.7918701,25.4130859 C15.7918701,25.4130859 13.8900146,28.1757812 16.7950439,30.9117432 C16.8273926,33.3626709 18.3326416,34.9208984 20.6989746,35.4709473 C19.6748047,35.3551025 19.3574219,36.0118408 19.3574219,36.0118408 C19.3574219,36.0118408 19.090332,36.8022461 20.2518311,37.9730225 C19,37.9035645 18.3018799,38.6087646 18.3018799,38.6087646 C18.3018799,38.6087646 18.3389893,39.7160645 19.8094482,40.1032715 C18.5152588,40.1330566 17.9108887,40.8323975 17.9108887,40.8323975 C17.9108887,40.8323975 18.4300537,41.559082 19.7640381,41.9724121 C18.4718018,41.9110107 17.9642334,42.8076172 17.9642334,42.8076172 C17.9642334,42.8076172 18.4544678,44.0214844 19.9776611,43.9659424 C18.5299072,44.0909424 18.1942139,45.1043701 18.1942139,45.1043701 C18.1942139,45.1043701 19,45.9373779 20.385376,45.7611084 C19.5665283,46.1247559 19.3895264,47.0316162 19.3895264,47.0316162 C19.3895264,47.0316162 20.413208,47.7740479 21.5054932,47.3839111 C20.8681641,48.0789795 21.1986084,49.0262451 21.1986084,49.0262451 C21.1986084,49.0262451 22.7054443,49.1757812 23.6030273,48.6812744 C23.0340576,49.2685547 23.7592773,50.2971191 23.7592773,50.2971191 C23.7592773,50.2971191 25.1044922,50.5551758 26.5301514,49.4468994 C26.0108643,50.2614746 27.0473633,51.2344971 27.0473633,51.2344971 C27.0473633,51.2344971 30,51 30,49 C30,47 30,47 30,47 Z" id="Path-377"></path>
                            <path d="M18.3468018,35.6799316 C18.3468018,35.6799316 15.8532715,34.5129395 15.7143555,31.0032959 C14.1459961,30.4984131 12.7769775,30.7775879 12.7769775,30.7775879 C12.7769775,30.7775879 12.6890869,32.6728516 14.9315186,34.2989502 C13.4752197,34.0241699 12.0378418,34.4261475 12.0378418,34.4261475 C12.0378418,34.4261475 12.2694092,36.7288818 14.5861816,38.3726807 C12.7861328,38.1619873 11.8955078,38.7110596 11.8955078,38.7110596 C11.8955078,38.7110596 12.4294434,40.5100098 14.359375,40.8354492 C12.6810303,40.9038086 12.1691895,42.0924072 12.1691895,42.0924072 C12.1691895,42.0924072 12.5053711,43.3978271 14.7025146,43.5681152 C13.1341553,43.6768799 12.6292725,45.0206299 12.6292725,45.0206299 C12.6292725,45.0206299 13.4381104,46.3400879 15.663208,46.3945312 C14.0010986,46.5889893 13.8529053,47.407959 13.8529053,47.407959 C13.8529053,47.407959 14.4853516,48.901001 17.5133057,48.6137695 C16.029541,49.1289062 16.0898438,50.626709 16.0898438,50.626709 C16.0898438,50.626709 17.5655518,51.7247314 19.6506348,50.6881104 C18.5224609,51.480835 18.8952637,52.8848877 18.8952637,52.8848877 C18.8952637,52.8848877 20.4686279,53.7362061 22.5013428,52.0056152 C21.9312744,53.2113037 22.34021,54.8179932 22.34021,54.8179932 C22.34021,54.8179932 24.5631104,55.0457764 25.845459,52.479126 C25.3206787,54.189209 26.6132812,55.9854736 26.6132812,55.9854736 C26.6132812,55.9854736 30,55 30,52 L30,51 C30,51 28.8918457,52.284668 26.8670654,52.3380127 C25.9230957,51.5491943 25.814209,50.760498 25.814209,50.760498 C25.814209,50.760498 25.149292,51.2539062 23.4268799,51.2226562 C22.7723389,50.5357666 22.7561035,49.706543 22.7561035,49.706543 C22.7561035,49.706543 22.1708984,50.0007324 20.5854492,49.9000244 C20.2459717,48.8493652 20.5008545,48.2459717 20.5008545,48.2459717 C20.5008545,48.2459717 19.0820312,48.2912598 18.369751,47.4329834 C18.6699219,46.4205322 19.0264893,46.2271729 19.0264893,46.2271729 C19.0264893,46.2271729 18.0109863,46.3903809 17.0692139,45.4615479 C17.4862061,44.5327148 18.2749023,44.045166 18.2749023,44.045166 C18.2749023,44.045166 17.5343018,43.7669678 16.9992676,42.7767334 C17.7163086,41.9335938 18.2120361,41.786499 18.2120361,41.786499 C18.2120361,41.786499 17.4835205,41.6092529 16.9415283,40.7811279 C17.7243652,39.8835449 18.3660889,39.8371582 18.3660889,39.8371582 C18.3660889,39.8371582 17.6248779,39.4083252 17.199707,38.4018555 C17.9771729,37.6071777 19.0439453,37.5366211 19.0439453,37.5366211 C19.0439453,37.5366211 18.1787109,36.6308594 18.3468018,35.6799316 Z" id="Path-378"></path>
                            <path d="M28.9044189,78.0134277 C28.9044189,78.0134277 27.414917,78.7473145 26.8972168,78.2596436 C26.3795166,77.7719727 25.4909668,76.5257568 24.362793,77.2148438 C23.2346191,77.9039307 23.5799561,80.6728516 24.9177246,81.6813965 C25.1505127,80.8656006 26.0599365,81.3105469 26.1849365,80.3262939 C26.3099365,79.342041 25.3579102,78.9222412 25.3579102,78.9222412 C25.3579102,78.9222412 26.6239014,78.9912109 26.8950195,79.7950439 C27.8842773,79.0133057 28.9044189,78.0134277 28.9044189,78.0134277 Z" id="Path-379"></path>
                            <path d="M23.0587158,78.2650146 C23.0587158,78.2650146 21.4484863,77.7681885 21.2167969,79.5844727 C20.9851074,81.4007568 21.6096191,82.6206055 23.1478271,83.3780518 C22.8417969,82.7142334 23.8685303,82.1915283 23.8917236,81.9669189 C22.3837891,80.1195068 23.0587158,78.2650146 23.0587158,78.2650146 Z" id="Path-380"></path>
                            <path d="M21.0577393,80.6490479 C20.5163574,80.7664795 19.7507935,81.6403198 19.7507935,82.8250122 C19.7507935,84.0097046 20.2387695,85.1154785 21.6087646,85.4980469 C21.413208,84.8956299 21.9602051,84.5515137 21.9370117,84.2723389 C21.1956787,83.4975586 20.6477051,82.1894531 21.0577393,80.6490479 Z" id="Path-381" transform="translate(20.844262, 83.073547) rotate(-12.000000) translate(-20.844262, -83.073547) "></path>
                            <path d="M24.6105347,82.6459961 C23.7985229,83.4046631 23.6173706,84.6518555 24.0736694,85.6420898 C24.5299683,86.6323242 26.5367432,86.892334 27.2095947,85.3945312 C27.8824463,83.8967285 27.6331177,82.5597534 28.446106,81.350769 C27.0751953,82.3203125 26.604248,82.7529297 26.604248,82.7529297 C26.604248,82.7529297 26.944519,83.8800049 26.3381348,84.8002319 C26.7106934,83.862793 26.3939209,83.2981567 25.8569946,83.1400146 C25.3200684,82.9818726 24.8432007,83.1567383 24.6105347,82.6459961 Z" id="Path-382"></path>
                            <path d="M14.376709,25.7353516 C11,22.1730957 7.84350586,17.1269531 7.45678711,12.0559082 C4.23706055,15.4221191 5.37695313,19.9973145 7.01708984,21.6352539 C6.63256836,24.4919434 7.07299805,27.0942383 9.92211914,28.3840332 C10.0029297,29.9033203 10.786377,31.1779785 12.0256348,31.9538574 C11.5482178,31.1451416 11.6177979,30.1014404 11.6177979,30.1014404 C11.6177979,30.1014404 12.3641357,29.3968506 14.59729,29.791748 C13.6604004,27.8354492 13.987915,26.8483887 14.376709,25.7353516 Z" id="Path-383"></path>
                            <path d="M4.49255371,18.9471436 C4.49255371,18.9471436 3.77661133,18.4110107 2.93334961,18.2790527 C2.35302734,20.3942871 1.60473633,23.6502686 4.78674316,26.9307861 C4.48449707,30.2355957 5.61047363,31.9500732 7.99780273,33.0550537 C8.51660156,35.6357422 10.3527832,36.6842041 12.0148926,37.0397949 C11.2126465,35.8511353 10.9377441,34.7781372 10.9688721,33.9223022 C12.0537109,33.3757324 12.8422241,33.2785034 12.8422241,33.2785034 C12.8422241,33.2785034 8.90374756,31.6845093 8.98022461,28.9140625 C6.6640625,27.6358643 5.40948486,25.1309204 5.96954346,21.954834 C4.69830322,20.6765747 4.49255371,18.9471436 4.49255371,18.9471436 Z" id="Path-384"></path>
                            <path d="M2.68041992,25.4244385 C2.68041992,25.4244385 2.08728027,24.8825684 1.01940918,24.6578369 C0.667236328,27.277832 0.465820313,30.7055664 3.68713379,33.2399902 C3.71020508,36.3083496 5.78601074,37.720459 7.9810791,38.0528564 C9.46496582,40.3092041 12.1673584,40.6799316 12.1673584,40.6799316 C12.1673584,40.6799316 11.0865479,39.8400879 10.8085938,38.5081787 C11.5407715,37.8955078 12.5391846,37.734375 12.5391846,37.734375 C12.5391846,37.734375 7.84802246,37.4666748 7.24682617,33.5281982 C4.93005371,32.3768311 3.66381836,30.1381836 3.85620117,27.1776123 C3.26086426,26.3554688 2.68041992,25.4244385 2.68041992,25.4244385 Z" id="Path-385"></path>
                            <path d="M2.61761475,33.4761963 C1.84503174,32.7227173 1.18237305,32.6290283 0.107543945,32.3267822 C0.127441406,35.9489746 1.52929687,38.2150879 4.04272461,39.0615234 C5.35144043,41.2133789 6.98010254,41.0037842 8.03076172,41.0662842 C8.91113281,42.5893555 10.3302002,42.967041 11.6297607,42.9902344 C11,42.6125488 10.8293457,41.9732666 10.8293457,41.9732666 C10.8293457,41.9732666 11.2680054,41.4082031 11.7677002,41.2420044 C10.046875,41.0335083 8.30407715,40.1425171 7.36230469,38.7559204 C4.37719727,38.0719604 2.90771484,36.2221069 2.61761475,33.4761963 Z" id="Path-386"></path>
                            <path d="M3.15209961,39.5377197 C2.30090332,39.5457764 0.794921875,39.9558105 0.197387695,41.0112305 C3.05395508,44.9039307 9.36022949,44.9108887 11.5633545,44.934082 C11.5877686,44.5979004 11.8813477,43.9934082 12.6237793,43.7121582 C10.2062988,43.6162109 8.68054199,43.5058594 7.50866699,41.8205566 C5.45227051,41.7661133 4.50012207,41.1362305 3.15209961,39.5377197 Z" id="Path-387"></path>
                            <path d="M11.5211182,45.53125 C11.5211182,45.53125 6.6036377,45.9239502 3.14257812,44.3798828 C1.72131348,45.1213379 0.979370117,46.4536133 0.979370117,46.4536133 C0.979370117,46.4536133 2.67749023,48.9093018 12.772583,47.4799805 C12.866333,46.9946289 13.0770264,46.8345947 13.4154053,46.6158447 C12.4100342,46.5323486 11.5211182,45.53125 11.5211182,45.53125 Z" id="Path-388"></path>
                            <path d="M12.9832764,47.914917 C12.9832764,47.914917 10.0480957,48.9746094 4.87365723,48.6955566 C3.54394531,49.5484619 2.94165039,51.1502686 2.94165039,51.1502686 C2.94165039,51.1502686 7.58862305,53.0396729 15.4018555,49.3199463 C13.6945801,49.0397949 12.9832764,47.914917 12.9832764,47.914917 Z" id="Path-389"></path>
                            <path d="M15.4269409,49.9508057 C13.5689697,51.0361938 10.7979736,52.3297119 7.4005127,52.5614014 C6.07299805,53.5634766 5.69342041,54.8410034 5.61987305,55.2771606 C6.8291626,55.7259521 11.1043091,56.3515015 17.8414307,51.6959229 C15.9869995,52.039917 15,51.3419189 15,51.3419189 C15,51.3419189 15,50.5687866 15.4269409,49.9508057 Z" id="Path-390"></path>
                            <path d="M20.4202881,53.9580078 C20.4202881,53.9580078 19.0614014,54.2973633 17.8244629,54.0263672 C17.6531982,53.1218262 17.8557129,52.4407959 17.8557129,52.4407959 C17.8557129,52.4407959 15,54.8232422 11.6032715,55.8577881 C10.3835449,57.5581055 10.0974121,59.7438965 10.0974121,59.7438965 C10.0974121,59.7438965 12.1945801,60.0068359 15,58.4304199 C17.8054199,56.8540039 20.4202881,53.9580078 20.4202881,53.9580078 Z" id="Path-391"></path>
                            <path d="M21.3643799,53.8374023 C21.3643799,53.8374023 18.5366211,57.5263672 16.4089355,58.7041016 C15.8728027,60.8306885 16.0349121,63.2723389 16.0349121,63.2723389 C16.0349121,63.2723389 20.3056641,63.3520508 23.5108643,55.3432617 C22.5490723,55.7382812 21.6574707,55.8631592 21.6574707,55.8631592 C21.6574707,55.8631592 21.3400879,55.0350342 21.3643799,53.8374023 Z" id="Path-392"></path>
                            <path d="M24.2593994,55.0834961 C24.2593994,55.0834961 23.3364258,58.225708 21.3289795,60.902832 C20.9873047,63.777832 21.8024902,64.9549561 21.8024902,64.9549561 C21.8024902,64.9549561 25.4467773,64.2287598 26.3212891,57.1524658 C25.5556641,56.1190186 25.3007812,55.428833 25.2081299,54.3087158 C24.8988037,54.7349854 24.2593994,55.0834961 24.2593994,55.0834961 Z" id="Path-393"></path>
                            <path d="M26.8165283,57.1270752 C26.8165283,57.1270752 26.0557861,60.0887451 28.0335693,61.3446045 C29.4489746,60.4550781 30,59 30,57 C30,55 30,55 30,54 C29.3967285,56.1114502 26.8165283,57.1270752 26.8165283,57.1270752 Z" id="Path-394"></path>
                            <path d="M27.4116211,80.9002686 C27.4116211,80.9002686 29.5865479,80.2402344 30.0510254,79.9379883 C35.6064453,76.1374512 41.6350098,70.4743652 59.5871582,70.9156494 C44.3475342,69.0810547 36.1032715,74.12146 29.5247803,78.6090088 C28.7756348,79.7064209 27.4116211,80.9002686 27.4116211,80.9002686 Z" id="Path-395"></path>
                            <path d="M29.697998,77.375 C30.9760742,75.6621094 32.4190674,72.6516113 36.916748,70.2098389 C36.9748535,70.5136719 36.8995361,71.1817627 36.729248,71.5384521 C37.9118652,69.84021 41.5228271,68.1010742 42.807251,67.7142334 C42.8929443,68.2841797 42.2722168,69.1748047 42.2722168,69.1748047 C42.2722168,69.1748047 45.4489746,66.7830811 48.1245117,66.1414795 C48.1832275,66.5552979 47.7618408,67.3693848 47.7618408,67.3693848 C47.7618408,67.3693848 50.7304688,65.6258545 53.2498779,65.3861084 C53.1906738,65.8564453 52.9406738,66.4367676 52.9406738,66.4367676 C52.9406738,66.4367676 54.3847656,65.6768799 57.9315186,65.9527588 C58.0091553,66.3896484 57.7924805,67.0474854 57.7924805,67.0474854 C57.7924805,67.0474854 60.1092529,66.6325684 63.3537598,67.4030762 C62.9135742,67.9095459 62.0311279,68.5905762 62.0311279,68.5905762 C62.0311279,68.5905762 64.2459717,68.0253906 68.0244141,69.2926025 C67.7485352,69.8626709 67.0605469,70.6573486 67.0605469,70.6573486 C67.0605469,70.6573486 69.8293457,70.9804688 72.1633301,73.1824951 C69.6668701,73.7288818 66.9924316,73.2574463 66.9924316,73.2574463 C66.9924316,73.2574463 67.8205566,73.4768066 68.5397949,74.6453857 C67.0802002,75.2427979 64.3415527,75.2972412 62.9019775,75.1188965 C63.5081787,75.645874 63.4769287,76.3419189 63.4769287,76.3419189 C63.4769287,76.3419189 60.4510498,76.5472412 57.4797363,75.130249 C58.222168,75.8376465 57.9986572,76.4179688 57.9986572,76.4179688 C57.9986572,76.4179688 55.4260254,76.7132568 52.326416,75.5375977 C52.850708,76.0227051 53.0430908,76.8126221 53.0430908,76.8126221 C53.0430908,76.8126221 49.0540771,76.9864502 46.3040771,76.1455078 C47.1585693,76.4418945 47.4210815,77.5738525 47.4210815,77.5738525 C47.4210815,77.5738525 45.1768799,78.2047119 41.4770508,77.703125 C42.604126,78.1606445 42.9376221,78.8948975 42.9376221,78.8948975 C42.9376221,78.8948975 39.9329834,79.8388672 36.7972412,79.5064697 C37.862915,79.9698486 38.2810059,80.9147949 38.2810059,80.9147949 C38.2810059,80.9147949 36.9614258,81.708374 34.7999268,81.3851318 C32.6384277,81.0618896 32.3753662,80.2280273 30.5511475,80.3669434 C35.3085938,76.9370117 41.784668,70.2780762 62.2476807,71.2518311 C44.8758545,67.5720215 34.7937012,74.2554932 29.697998,77.375 Z" id="Path-396"></path>
                            <path d="M19.8309326,84.984375 C20.3789062,85.8905029 21.104126,86.1604004 22.0028076,86.2229004 C20.8035889,87.3947754 18.8308105,89.4691162 18.8308105,89.4691162 C18.8308105,89.4691162 18.4139404,86.5543213 18.4451904,86.2509766 C19.010376,85.7149658 19.3826904,85.3867188 19.8309326,84.984375 Z" id="Path-397"></path>
                            <path d="M30,60 C30,62 27.2817383,63.1280518 25.8674316,62.6416016 C26.1497803,63.0898438 26.2515869,62.9777832 26.4821777,63.1674805 C24.6578369,63.6900635 23.8378906,64.9874268 23.8378906,64.9874268 C23.8378906,64.9874268 25.079834,64.9943848 25.6912842,65.1959229 C25.545166,64.3829346 25.6541138,64.331604 25.6541138,64.331604 C25.6541138,64.331604 26.8100586,64.0510864 30.7947998,65.7040405 C29.9597168,64.7426147 30.0100708,63.3948975 30,60 Z" id="Path-410"></path>
                            <path d="M40,81 C40,81 39.2559814,81.9433594 38.050293,82.1217041 C37.1132812,86.0671387 37,91 40,94 C40,94 40,81 40,81 Z" id="Path-411"></path>
                            <path d="M37.3088379,82.2806396 C37.3088379,82.2806396 35.7421875,88.2686768 37.7437744,91.8768311 C37.2388916,92.4732666 36.2718506,92.9396973 35.9044189,93.0615234 C33.0423584,90.1967773 33.2685547,87.5999756 34.4118652,82.2354736 C35.878418,82.5738525 37.3088379,82.2806396 37.3088379,82.2806396 Z" id="Path-412"></path>
                            <path d="M33.7955322,82.0834961 C33.2233887,84.7757568 32.480957,86.3699951 33.2546387,89.5321045 C32.592041,90.2093506 31.7637939,90.30896 31.7637939,90.30896 C31.7637939,90.30896 28.3248291,87.0096436 31.1048584,80.8782959 C32.3284912,81.1848145 32.7423096,81.7850342 33.7955322,82.0834961 Z" id="Path-413"></path>
                            <g id="crowns" transform="translate(10.700012, 0.000000)">
                                <polygon id="Path" points="40.2850909 12.5381818 41.0174545 12.5381818 40.9258182 11.5978182 41.8421818 11.6923636 41.8421818 10.9389091 40.9258182 11.032 41.0174545 10.0909091 40.2850909 10.0909091 40.376 11.032 39.4610909 10.9374545 39.4610909 11.6909091 40.3774545 11.5963636 40.2858182 12.5381818"></polygon>
                                <path d="M40.6516364,18.9018182 C41.0298182,18.9018182 41.3381818,16.9163636 41.3381818,15.9272727 C41.3381818,15.3876364 41.0305455,15.0327273 40.6509091,15.0327273 C40.2705455,15.0327273 39.9636364,15.3876364 39.9636364,15.9272727 C39.9636364,16.9163636 40.2705455,18.9018182 40.6501818,18.9018182 L40.6516364,18.9018182 Z" id="Path"></path>
                                <path d="M44.072,20.4770909 C44.3156364,19.7112727 44.5905455,18.5469091 44.5905455,17.9854545 C44.5905455,16.9578182 44.0218182,15.8203636 42.0232727,15.4712727 C42.0232727,16.7367273 41.4196364,19.7549091 40.6923636,19.7549091 L40.6109091,19.7549091 C39.8836364,19.7549091 39.28,16.7134545 39.28,15.4712727 C37.2872727,15.8218182 36.736,16.9592727 36.736,17.9861818 C36.736,18.5476364 37.0109091,19.712 37.2538182,20.4778182 L44.072,20.4778182 L44.072,20.4770909 Z" id="Path"></path>
                                <path d="M41.2014545,13.856 C41.2014545,13.5454545 40.9541818,13.2916364 40.6516364,13.2916364 C40.3476364,13.2916364 40.1010909,13.5461818 40.1010909,13.8567273 C40.1010909,14.1694545 40.3483636,14.4225455 40.6509091,14.4225455 C40.9534545,14.4225455 41.2,14.1694545 41.2,13.8574545 L41.2014545,13.856 Z" id="Path"></path>
                                <path d="M43.5141818,21.9629091 C43.5141818,21.9629091 43.6552727,21.616 43.8341818,21.1156364 L37.4923636,21.1156364 C37.6712727,21.616 37.8123636,21.9629091 37.8123636,21.9629091 L43.5141818,21.9629091 Z" id="Path"></path>
                                <path d="M32.9090909,17.2923636 L30.5847273,17.2923636 C31.3629091,20.9127273 34.2792727,21.9527273 37.3149091,21.9527273 L37.2130909,21.6814545 C34.8538182,21.6814545 33.3221818,19.9018182 32.9098182,17.2930909 L32.9090909,17.2923636 Z" id="Path"></path>
                                <polygon id="Path" points="17.7556364 12.5374545 18.488 12.5374545 18.3970909 11.5970909 19.312 11.6916364 19.312 10.9381818 18.3956364 11.0312727 18.4872727 10.0901818 17.7549091 10.0901818 17.8465455 11.0312727 16.9301818 10.9367273 16.9301818 11.6901818 17.8465455 11.5956364 17.7549091 12.5374545"></polygon>
                                <path d="M18.1229091,18.9010909 C18.5010909,18.9010909 18.8087273,16.9156364 18.8087273,15.9265455 C18.8087273,15.3869091 18.5010909,15.032 18.1221818,15.032 C17.744,15.032 17.4356364,15.3869091 17.4356364,15.9265455 C17.4356364,16.9156364 17.7432727,18.9010909 18.1229091,18.9010909 L18.1229091,18.9010909 Z" id="Path"></path>
                                <path d="M21.5192727,20.4763636 C21.7629091,19.7105455 22.0378182,18.5461818 22.0378182,17.9847273 C22.0378182,16.9578182 21.4850909,15.8203636 19.4923636,15.4705455 C19.4923636,16.7127273 18.8909091,19.7541818 18.1629091,19.7541818 L18.0807273,19.7541818 C17.3534545,19.7541818 16.7498182,16.736 16.7498182,15.4705455 C14.7512727,15.8196364 14.1825455,16.9578182 14.1825455,17.9854545 C14.1825455,18.5469091 14.4589091,19.7112727 14.7018182,20.4770909 L21.5192727,20.4770909 L21.5192727,20.4763636 Z" id="Path"></path>
                                <path d="M18.6705455,13.8552727 C18.6705455,13.5447273 18.4254545,13.2909091 18.1221818,13.2909091 C17.8189091,13.2909091 17.5730909,13.5454545 17.5730909,13.856 C17.5730909,14.1687273 17.8189091,14.4218182 18.1229091,14.4218182 C18.4269091,14.4218182 18.6727273,14.1687273 18.6727273,13.8567273 L18.6705455,13.8552727 Z" id="Path"></path>
                                <path d="M15.2596364,21.9621818 L20.9614545,21.9621818 C20.9614545,21.9621818 21.1025455,21.6152727 21.2814545,21.1149091 L14.9396364,21.1149091 C15.1185455,21.6152727 15.2596364,21.9621818 15.2596364,21.9621818 L15.2596364,21.9621818 Z" id="Path"></path>
                                <path d="M21.5629091,21.6814545 L21.4589091,21.952 C24.4916364,21.952 27.4101818,20.912 28.1883636,17.2916364 L25.864,17.2916364 C25.4516364,19.9003636 23.92,21.6807273 21.5614545,21.6807273 L21.5629091,21.6814545 Z" id="Path"></path>
                                <path d="M29.3883636,12.3890909 C29.9847273,12.3890909 30.7556364,9.90036364 30.952,7.54545455 C30.952,7.06836364 30.3556364,6.33818182 29.3883636,6.32 C28.4210909,6.33963636 27.8247273,7.06909091 27.8247273,7.54618182 C27.9978182,9.74254545 28.8014545,12.3898182 29.3883636,12.3898182 L29.3883636,12.3890909 Z" id="Path"></path>
                                <path d="M34.0821818,14.0836364 C34.2821818,13.8341818 35.2749091,11.9090909 35.2749091,9.96509091 C35.2749091,8.216 33.0814545,7.25236364 31.7767273,7.20872727 C31.6254545,9.70763636 30.6545455,13.6305455 29.3883636,13.6305455 C28.1905455,13.6305455 27.1483636,9.73018182 27,7.20872727 C25.6952727,7.25236364 23.5018182,8.216 23.5018182,9.96509091 C23.5018182,11.9090909 24.4945455,13.8341818 24.6945455,14.0829091 L34.0821818,14.0829091 L34.0821818,14.0836364 Z" id="Path"></path>
                                <path d="M33.6181818,15.0290909 C33.6181818,14.8087273 33.4450909,14.6290909 33.2327273,14.6290909 C33.0196364,14.6290909 32.8472727,14.8087273 32.8472727,15.0290909 C32.8472727,15.2487273 33.0196364,15.4276364 33.2327273,15.4276364 C33.4450909,15.4276364 33.6181818,15.2487273 33.6181818,15.0276364 L33.6181818,15.0290909 Z" id="Path"></path>
                                <path d="M25.8654545,15.0290909 C25.8654545,14.8087273 25.6923636,14.6290909 25.48,14.6290909 C25.2669091,14.6290909 25.0930909,14.8087273 25.0930909,15.0290909 C25.0930909,15.2487273 25.2676364,15.4276364 25.4785455,15.4276364 C25.6923636,15.4276364 25.8654545,15.2487273 25.8654545,15.0276364 L25.8654545,15.0290909 Z" id="Path"></path>
                                <path d="M25.4756364,16.5054545 C25.5803636,16.544 25.7010909,16.5636364 25.8436364,16.5636364 L32.9323636,16.5636364 C33.0756364,16.5636364 33.1963636,16.544 33.3003636,16.5054545 C33.528,16.424 33.6676364,16.2509091 33.7221818,15.9767273 L25.0538182,15.9767273 C25.1076364,16.2509091 25.2465455,16.4232727 25.4756364,16.5054545 L25.4756364,16.5054545 Z" id="Path"></path>
                                <path d="M27.7941818,15.0290909 C27.7941818,14.8087273 27.6210909,14.6290909 27.4087273,14.6290909 C27.1949091,14.6290909 27.0218182,14.8087273 27.0218182,15.0290909 C27.0218182,15.2487273 27.1949091,15.4276364 27.4072727,15.4276364 C27.6210909,15.4276364 27.7941818,15.2487273 27.7941818,15.0276364 L27.7941818,15.0290909 Z" id="Path"></path>
                                <polygon id="Path" points="28.8967273 3.09454545 29.88 3.09454545 29.7738182 1.90545455 30.8429091 2.01818182 30.8429091 1.07636364 29.7738182 1.19054545 29.88 0 28.896 0 29.0021818 1.19054545 27.9338182 1.07636364 27.9338182 2.01818182 29.0029091 1.90472727 28.896 3.09454545"></polygon>
                                <path d="M28.664,4.68145455 C28.664,5.09309091 28.9876364,5.42909091 29.3861818,5.42909091 C29.7847273,5.42909091 30.1090909,5.09309091 30.1090909,4.68145455 C30.1090909,4.26981818 29.7854545,3.93454545 29.3869091,3.93454545 C28.9883636,3.93454545 28.6647273,4.27054545 28.6647273,4.68218182 L28.664,4.68145455 Z" id="Path"></path>
                                <path d="M31.6894545,15.0290909 C31.6894545,14.8087273 31.5170909,14.6290909 31.304,14.6290909 C31.0909091,14.6290909 30.9185455,14.8087273 30.9185455,15.0290909 C30.9185455,15.2487273 31.0909091,15.4276364 31.304,15.4276364 C31.5170909,15.4276364 31.6894545,15.2487273 31.6894545,15.0276364 L31.6894545,15.0290909 Z" id="Path"></path>
                                <path d="M29.7418182,15.0290909 C29.7418182,14.8087273 29.5687273,14.6290909 29.3563636,14.6290909 C29.1425455,14.6290909 28.9709091,14.8087273 28.9709091,15.0290909 C28.9709091,15.2487273 29.1425455,15.4276364 29.3563636,15.4276364 C29.5687273,15.4276364 29.7418182,15.2487273 29.7418182,15.0276364 L29.7418182,15.0290909 Z" id="Path"></path>
                                <path d="M12.9115601,17.6420898 C12.9115601,17.6420898 12.2843628,16.3937988 10.0409546,16.4018555 C7.79754639,16.4099121 7.35736084,17.6032715 7.35736084,17.6032715 L5.72747803,15.1917725 C5.72747803,15.1917725 7.0178833,13.3594971 10.1465454,13.4370117 C13.2752075,13.5145264 14.2180786,15.1018066 14.2180786,15.1018066 L12.9115601,17.6420898 Z" id="Path-462"></path>
                                <path d="M51.9334106,17.6420898 C51.9334106,17.6420898 51.3062134,16.3937988 49.0628052,16.4018555 C46.819397,16.4099121 46.3792114,17.6032715 46.3792114,17.6032715 L44.7493286,15.1917725 C44.7493286,15.1917725 46.0397339,13.3594971 49.168396,13.4370117 C52.2970581,13.5145264 53.2399292,15.1018066 53.2399292,15.1018066 L51.9334106,17.6420898 Z" id="Path-462" transform="translate(48.994629, 15.538355) scale(-1, 1) translate(-48.994629, -15.538355) "></path>
                                <path d="M47.975368,21.973999 C45.4571795,21.9211426 44.1587176,19.5596924 44.3440204,17.1400146 C45.2647967,17.4471436 45.9516864,18.1744385 45.9516864,18.1744385 C45.9516864,18.1744385 45.2011981,21.1011963 47.975368,21.973999 Z" id="Path-463" transform="translate(46.150984, 19.557007) scale(-1, 1) translate(-46.150984, -19.557007) "></path>
                                <path d="M57.0386353,17 L58.6674194,19.2471924 C58.6674194,19.2471924 56.3430786,21.1916504 52.2807007,20.3172607 C52.867981,19.9163818 53.2758179,19.1206055 53.2758179,19.1206055 C53.2758179,19.1206055 52.204895,18.826416 51.0917358,17.4493408 C53.2925415,17.8237305 55.366272,17.7924805 57.0386353,17 Z" id="Path-464" transform="translate(54.879578, 18.771647) scale(-1, 1) translate(-54.879578, -18.771647) "></path>
                                <path d="M14.6408081,21.973999 C12.1226196,21.9211426 10.8241577,19.5596924 11.0094604,17.1400146 C11.9302368,17.4471436 12.6171265,18.1744385 12.6171265,18.1744385 C12.6171265,18.1744385 11.8666382,21.1011963 14.6408081,21.973999 Z" id="Path-463"></path>
                                <path d="M6.24688721,17 L7.87567139,19.2471924 C7.87567139,19.2471924 5.55133057,21.1916504 1.48895264,20.3172607 C2.07623291,19.9163818 2.48406982,19.1206055 2.48406982,19.1206055 C2.48406982,19.1206055 1.41314697,18.826416 0.299987793,17.4493408 C2.50079346,17.8237305 4.57452393,17.7924805 6.24688721,17 Z" id="Path-464"></path>
                            </g>
                        </g>
                        <rect id="size" opacity="0.5" x="0" y="0" width="132" height="100"></rect>
                    </g>
                </g>
            </g>
        </g>
    </g>
</svg>