<?xml version="1.0" encoding="UTF-8" standalone="no"?>
<svg width="20px" height="20px" viewBox="0 0 20 20" version="1.1" xmlns="http://www.w3.org/2000/svg" xmlns:xlink="http://www.w3.org/1999/xlink">
    <!-- Generator: sketchtool 3.7.1 (28215) - http://www.bohemiancoding.com/sketch -->
    <title>FB2902CC-44AB-412E-B116-B82B7D5EB22D</title>
    <desc>Created with sketchtool.</desc>
    <defs>
        <circle id="path-1" cx="10" cy="10" r="10"></circle>
        <mask id="mask-2" maskContentUnits="userSpaceOnUse" maskUnits="objectBoundingBox" x="0" y="0" width="20" height="20" fill="white">
            <use xlink:href="#path-1"></use>
        </mask>
        <circle id="path-3" cx="10" cy="10" r="10"></circle>
    </defs>
    <g id="320" stroke="none" stroke-width="1" fill="none" fill-rule="evenodd">
        <g id="320_rsc_v2_000_main_page" transform="translate(-56.000000, -82.000000)">
            <g id="top_menu" transform="translate(0.000000, 64.000000)">
                <g id="rs_logo_white" transform="translate(56.000000, 18.000000)">
                    <g id="Layer_1">
                        <path d="M10.0125786,0.427672956 C15.2955975,0.427672956 19.5974843,4.72955975 19.5974843,10.0125786 C19.5974843,15.2955975 15.2955975,19.5974843 10.0125786,19.5974843 C4.72955975,19.5974843 0.427672956,15.2955975 0.427672956,10.0125786 C0.427672956,4.72955975 4.72955975,0.427672956 10.0125786,0.427672956 L10.0125786,0.427672956 Z M10.0125786,0.0503144654 C4.50314465,0.0503144654 0.0503144654,4.51572327 0.0503144654,10.0125786 C0.0503144654,15.509434 4.51572327,19.9748428 10.0125786,19.9748428 C15.509434,19.9748428 19.9748428,15.509434 19.9748428,10.0125786 C19.9748428,4.51572327 15.5220126,0.0503144654 10.0125786,0.0503144654 L10.0125786,0.0503144654 L10.0125786,0.0503144654 Z" id="Shape" fill="#FFFFFF"></path>
                        <use id="earth" stroke="#0066B3" mask="url(#mask-2)" xlink:href="#path-1"></use>
                        <g id="meridians">
                            <mask id="mask-4" fill="white">
                                <use xlink:href="#path-3"></use>
                            </mask>
                            <g id="earth"></g>
                            <ellipse id="Oval-4" stroke="#0066B3" stroke-width="0.25" mask="url(#mask-4)" cx="10" cy="7.5" rx="11" ry="8.5"></ellipse>
                            <ellipse id="Oval-4" stroke="#0066B3" stroke-width="0.25" mask="url(#mask-4)" cx="10" cy="5.5" rx="9" ry="6.5"></ellipse>
                            <ellipse id="Oval-4" stroke="#0066B3" stroke-width="0.25" mask="url(#mask-4)" cx="10" cy="3" rx="6" ry="4"></ellipse>
                            <ellipse id="Oval-4" stroke="#0066B3" stroke-width="0.25" mask="url(#mask-4)" cx="10" cy="2.5" rx="3" ry="1.5"></ellipse>
                            <path d="M-8,10.9999999 C-8,10.9999999 0,-5.34940718e-08 10,2 C20,4.00000005 20,14 20,14 L20,21 L-8,20.9999999 L-8,10.9999999 Z" id="Path-616" stroke="#0066B3" stroke-width="0.25" mask="url(#mask-4)"></path>
                            <path d="M-1,-2.44713371e-08 C-1,-2.44713371e-08 4,-2.99999983 10,2 C16,6.99999983 15,21.0000009 15,21.0000009 L-1,21.0000001 L-1,-2.44713371e-08 Z" id="Path-616" stroke="#0066B3" stroke-width="0.25" mask="url(#mask-4)"></path>
                            <path d="M0,10.9999999 C0,10.9999999 8,-6.57151957e-08 18,2 C28,4.00000007 28,14 28,14 L28,21 L0,20.9999999 L0,10.9999999 Z" id="Path-616" stroke="#0066B3" stroke-width="0.25" mask="url(#mask-4)" transform="translate(14.000000, 11.378472) scale(-1, 1) translate(-14.000000, -11.378472) "></path>
                            <path d="M5,-2.44713939e-08 C5,-2.44713939e-08 10,-2.99999983 16,2 C22,6.99999983 21,21.0000009 21,21.0000009 L5,21.0000001 L5,-2.44713939e-08 Z" id="Path-616" stroke="#0066B3" stroke-width="0.25" mask="url(#mask-4)" transform="translate(13.031250, 10.053720) scale(-1, 1) translate(-13.031250, -10.053720) "></path>
                            <path d="M10,0 L10,20" id="Path-619" stroke="#0066B3" stroke-width="0.25" mask="url(#mask-4)"></path>
                        </g>
                        <path d="M2.5,16 C3.5,16 4.5,16.5 5.5,16.5 C6.5,16.5 8,16.5 9,15 C10,13.5 9.79162598,12.4682617 9.76037598,11.4833984 C9.72912598,10.4985352 10.5006714,9.93145752 10.7188721,9.82666016 C10.9370728,9.72186279 11.5,9.5 11.5,9.5 C11.5,9.5 10.852478,9.42584229 10.68573,9.29327393 C10.5189819,9.16070557 10.5,8.5 9.5,8.5 C8.5,8.5 8.5,9.5 7.5,10.5 C8.17486572,8.50427246 7.09836603,7.7989695 6.78076172,6.16137695 C6.44836426,4.44750977 7.04089355,2.84545898 7.04089355,2.84545898 C7.04089355,2.84545898 5.34832764,3.44891357 4.24450684,5.08410645 C3.14068604,6.71929932 3.47613525,8.59753418 3.9163208,9.19287109 C3.42224121,8.97033691 1.79003906,7.43725586 2,4.5 C0.5,7.5 0.464660645,7.55078125 0.258544922,10.2392578 C1.08856201,12.6517944 2.95916748,13.8182373 5,13.5 C3.5,14.5 2.82171631,14.6871338 1.29968262,14.2151489 C1.90313721,15.4793701 2.04266357,15.6571655 2.5,16 Z M9.75,9.5 C9.88807119,9.5 10,9.38807119 10,9.25 C10,9.11192881 9.88807119,9 9.75,9 C9.61192881,9 9.5,9.11192881 9.5,9.25 C9.5,9.38807119 9.61192881,9.5 9.75,9.5 Z" id="Path-363" fill="#0066B3"></path>
                        <path d="M10.7958679,10.9836426 C10.7958679,10.9836426 11.3799133,9.97653198 11.4605103,8.62286377 C11.5420927,7.25264295 11.0001221,6.43084717 11.0001221,6.43084717 L11.0943604,6.36886597 C11.0943604,6.36886597 11.7352295,7.11361694 11.7175903,8.63861084 C11.6999512,10.1636047 11.1353149,11.1539001 11.1353149,11.1539001 L10.7958679,10.9836426 Z" id="Path-364" fill="#0066B3"></path>
                        <path d="M11.1204224,6.50463867 C11.1204224,6.50463867 10.7994995,6.48132324 10.5487061,6.06027222 C10.2979126,5.63922119 10.3478088,5.28375244 10.3478088,5.28375244 C10.3478088,5.28375244 10.707489,5.36715698 10.9732666,5.82684326 C11.2390442,6.28652954 11.1204224,6.50463867 11.1204224,6.50463867 Z" id="Path-365" fill="#0066B3"></path>
                        <path d="M11.6246661,7.73973237 C11.6246661,7.73973237 11.9226771,7.61838746 12.0310839,7.1404447 C12.1394907,6.66250194 11.9821907,6.33984985 11.9821907,6.33984985 C11.9821907,6.33984985 11.6658879,6.53031957 11.5551693,7.049637 C11.4444507,7.56895442 11.6246661,7.73973237 11.6246661,7.73973237 Z" id="Path-365" fill="#0066B3"></path>
                        <path d="M11.6706888,9.01349643 C11.6706888,9.01349643 11.992392,9.00700876 12.2648779,8.59966028 C12.5373638,8.19231181 12.5061397,7.83471885 12.5061397,7.83471885 C12.5061397,7.83471885 12.1425874,7.89918488 11.8531159,8.34433145 C11.5636445,8.78947802 11.6706888,9.01349643 11.6706888,9.01349643 Z" id="Path-365" fill="#0066B3"></path>
                        <path d="M11.4395139,10.2481273 C11.4395139,10.2481273 11.7458025,10.3467295 12.1360626,10.0502866 C12.5263227,9.75384381 12.6132207,9.40556747 12.6132207,9.40556747 C12.6132207,9.40556747 12.2484871,9.34816025 11.8298609,9.67481191 C11.4112347,10.0014636 11.4395139,10.2481273 11.4395139,10.2481273 Z" id="Path-365" fill="#0066B3"></path>
                        <path d="M11.3966575,7.22095443 C11.3966575,7.22095443 11.1001282,7.34587616 10.6855164,7.08457479 C10.2709046,6.82327343 10.1539831,6.48389603 10.1539831,6.48389603 C10.1539831,6.48389603 10.5123253,6.39491864 10.9578281,6.68384161 C11.4033309,6.97276459 11.3966575,7.22095443 11.3966575,7.22095443 Z" id="Path-365" fill="#0066B3"></path>
                        <path d="M11.5330654,8.51715336 C11.5330654,8.51715336 11.2193486,8.58868547 10.8564102,8.25935728 C10.4934718,7.93002909 10.4372588,7.57550439 10.4372588,7.57550439 C10.4372588,7.57550439 10.8056078,7.55010424 11.1941714,7.91199857 C11.5827351,8.2738929 11.5330654,8.51715336 11.5330654,8.51715336 Z" id="Path-365" fill="#0066B3"></path>
                    </g>
                </g>
            </g>
        </g>
    </g>
</svg>