<?xml version="1.0" encoding="UTF-8" standalone="no"?>
<svg width="20px" height="20px" viewBox="0 0 20 20" version="1.1" xmlns="http://www.w3.org/2000/svg" xmlns:xlink="http://www.w3.org/1999/xlink">
    <!-- Generator: Sketch 3.8.2 (29753) - http://www.bohemiancoding.com/sketch -->
    <title>rs_logo_mini</title>
    <desc>Created with Sketch.</desc>
    <defs></defs>
    <g id="320" stroke="none" stroke-width="1" fill="none" fill-rule="evenodd">
        <g id="320_rsc_v2_000_main_page" transform="translate(-56.000000, -82.000000)" fill="#0066B3">
            <g id="top_menu" transform="translate(0.000000, 64.000000)">
                <g id="rs_logo_mini" transform="translate(56.000000, 18.000000)">
                    <path d="M19.9635678,10.8596283 C19.9467802,11.0568063 19.9242711,11.2523525 19.8962071,11.4461001 L19.8962071,11.4461001 C18.0482505,14.2271834 14.3076303,16.125 10,16.125 C5.69236973,16.125 1.95174951,14.2271834 0.103792928,11.4461001 C0.075728921,11.2523525 0.0532197591,11.0568063 0.0364321543,10.8596283 C1.71701907,13.8095422 5.54266595,15.875 10,15.875 C14.457334,15.875 18.2829809,13.8095422 19.9635678,10.8596283 L19.9635678,10.8596283 Z" id="Combined-Shape"></path>
                    <path d="M18.8735721,5.38471136 C18.9569304,5.54465288 19.0360913,5.70713037 19.1109087,5.87199774 L19.1109087,5.87199774 C18.845398,9.36700889 14.8612278,12.125 10,12.125 C5.13877216,12.125 1.15460195,9.36700889 0.889091295,5.87199774 C0.963908696,5.70713037 1.04306958,5.54465288 1.12642787,5.38471136 C1.12547729,5.42306124 1.125,5.46149176 1.125,5.5 C1.125,9.01041936 5.09134242,11.875 10,11.875 C14.9086576,11.875 18.875,9.01041936 18.875,5.5 C18.875,5.46149176 18.8745227,5.42306124 18.8735721,5.38471136 L18.8735721,5.38471136 Z" id="Combined-Shape"></path>
                    <path d="M15.5077939,1.65217038 C15.6486857,1.74531644 15.7870814,1.84193379 15.922859,1.94190055 L15.922859,1.94190055 C16.054725,2.2791576 16.125,2.63373045 16.125,3 C16.125,5.29139185 13.3745878,7.125 10,7.125 C6.62541223,7.125 3.875,5.29139185 3.875,3 C3.875,2.63373045 3.94527497,2.2791576 4.077141,1.94190055 C4.21291863,1.84193379 4.3513143,1.74531644 4.49220611,1.65217038 C4.25470511,2.072668 4.125,2.52696605 4.125,3 C4.125,5.12688615 6.74717077,6.875 10,6.875 C13.2528292,6.875 15.875,5.12688615 15.875,3 C15.875,2.52696605 15.7452949,2.072668 15.5077939,1.65217038 L15.5077939,1.65217038 Z" id="Combined-Shape"></path>
                    <path d="M10,4.125 C11.7170322,4.125 13.125,3.42101612 13.125,2.5 C13.125,1.57898388 11.7170322,0.875 10,0.875 C8.28296775,0.875 6.875,1.57898388 6.875,2.5 C6.875,3.42101612 8.28296775,4.125 10,4.125 L10,4.125 Z M10,3.875 C8.40332375,3.875 7.125,3.23583813 7.125,2.5 C7.125,1.76416187 8.40332375,1.125 10,1.125 C11.5966763,1.125 12.875,1.76416187 12.875,2.5 C12.875,3.23583813 11.5966763,3.875 10,3.875 L10,3.875 Z" id="Oval-4"></path>
                    <path d="M10.1299973,2.2772567 C12.1051335,4.04125056 13.4233565,6.93563069 14.1848526,10.6508088 C14.7354879,13.3372424 14.9469065,16.1372026 14.9415553,18.6957239 L14.9415553,18.6957239 C15.0256924,18.6478079 15.1090664,18.598706 15.1916545,18.5484409 L15.1916545,18.5484409 C15.1887756,16.0147258 14.9737246,13.2544942 14.4297609,10.6006102 C13.677009,6.92809274 12.3834224,4.03901968 10.4412807,2.22306517 C14.1009138,3.07152134 16.6126846,5.0738033 18.1760527,7.88786585 C18.9191151,9.22537816 19.3971505,10.6594845 19.662755,12.0937488 C19.6810168,12.1923625 19.6979964,12.2895857 19.7137442,12.3853265 L19.7137442,12.3853265 C19.7655667,12.1735662 19.8106452,11.9591595 19.8487393,11.742347 L19.8487393,11.742347 C19.5690335,10.3854804 19.0989552,9.0343088 18.394592,7.76645512 C16.8189597,4.93031706 14.2961653,2.89869838 10.6448398,2.01438854 L10.6448398,2.01438854 C12.683457,1.71084867 14.7040023,1.92067826 16.6860877,2.56373937 L16.6860877,2.56373937 C16.5289501,2.42236155 16.3673077,2.28589286 16.2014019,2.1545748 L16.2014019,2.1545748 C14.3415113,1.62903176 12.4477237,1.48206982 10.5358506,1.7780373 L10.5358506,1.7780373 C11.2648962,1.20668776 11.9877841,0.740150961 12.7012555,0.369102347 L12.7012555,0.369102347 C12.5832026,0.336059726 12.4642674,0.305129325 12.3444932,0.276354469 L12.3444932,0.276354469 C11.6136217,0.676997218 10.8742775,1.17589081 10.1299973,1.78240006 L10.1299973,0 L9.87999725,0 L9.87999725,1.73978539 C9.14702255,1.14728257 8.41891882,0.659002831 7.69906717,0.265993234 C7.5783385,0.29442231 7.45845406,0.325039344 7.33945799,0.357800192 C8.06513494,0.733321128 8.80059305,1.20758024 9.54240039,1.79039681 C7.60394974,1.47813079 5.68385989,1.62186271 3.79859813,2.15457481 C3.63269231,2.28589287 3.47104986,2.42236156 3.31391228,2.56373938 C5.29599769,1.92067827 7.31654297,1.71084868 9.35516023,2.01438854 C5.70383466,2.89869838 3.18104027,4.93031706 1.605408,7.76645511 C0.901044837,9.0343088 0.430966457,10.3854804 0.151260745,11.742347 C0.189354752,11.9591595 0.23443329,12.1735662 0.28625578,12.3853265 C0.30200356,12.2895857 0.318983156,12.1923625 0.337244958,12.0937488 C0.602849458,10.6594845 1.08088492,9.22537816 1.82394732,7.88786585 C3.39908526,5.05261759 5.93695975,3.04141895 9.64156936,2.20409867 C7.68810992,4.01887128 6.38811712,6.91528061 5.6327391,10.6006102 C5.08607546,13.2676665 4.87159779,16.0421286 4.8708183,18.5861516 C4.95345681,18.6356244 5.03686903,18.6839379 5.12103249,18.7310698 C5.11365271,16.1630039 5.32447527,13.3496188 5.87764745,10.6508088 C6.63237582,6.96864871 7.93397955,4.09276203 9.87999725,2.32455594 L9.87999725,20 L10.1299973,20 L10.1299973,2.2772567 L10.1299973,2.2772567 Z" id="Combined-Shape"></path>
                    <path d="M2.5,16 C3.5,16 4.5,16.5 5.5,16.5 C6.5,16.5 8,16.5 9,15 C10,13.5 9.79162598,12.4682617 9.76037598,11.4833984 C9.72912598,10.4985352 10.5006714,9.93145752 10.7188721,9.82666016 C10.9370728,9.72186279 11.5,9.5 11.5,9.5 C11.5,9.5 10.852478,9.42584229 10.68573,9.29327393 C10.5189819,9.16070557 10.5,8.5 9.5,8.5 C8.5,8.5 8.5,9.5 7.5,10.5 C8.17486572,8.50427246 7.09836603,7.7989695 6.78076172,6.16137695 C6.44836426,4.44750977 7.04089355,2.84545898 7.04089355,2.84545898 C7.04089355,2.84545898 5.34832764,3.44891357 4.24450684,5.08410645 C3.14068604,6.71929932 3.47613525,8.59753418 3.9163208,9.19287109 C3.42224121,8.97033691 1.79003906,7.43725586 2,4.5 C0.5,7.5 0.464660645,7.55078125 0.258544922,10.2392578 C1.08856201,12.6517944 2.95916748,13.8182373 5,13.5 C3.5,14.5 2.82171631,14.6871338 1.29968262,14.2151489 C1.90313721,15.4793701 2.04266357,15.6571655 2.5,16 Z" id="Path-363"></path>
                    <path d="M11.468018,8.25440098 C11.4603219,7.85660168 11.4017544,7.51549467 11.3285032,7.23956764 C11.218004,7.26079066 10.9819384,7.27138923 10.6855164,7.08457479 C10.2709046,6.82327343 10.1539831,6.48389603 10.1539831,6.48389603 C10.1539831,6.48389603 10.5123253,6.39491864 10.9578281,6.68384161 C11.0722224,6.75803002 11.156803,6.82953273 11.2193384,6.89483747 C11.1448049,6.69419104 11.0723246,6.55501409 11.0322163,6.4844178 C10.9193039,6.44751065 10.7180227,6.34453387 10.5487061,6.06027222 C10.2979126,5.63922119 10.3478088,5.28375244 10.3478088,5.28375244 C10.3478088,5.28375244 10.707489,5.36715698 10.9732666,5.82684326 C11.1501771,6.13282591 11.1567725,6.33177342 11.1414043,6.43060701 C11.2220305,6.5437079 11.3908971,6.81260486 11.5251414,7.24065381 C11.530654,7.18299532 11.5402815,7.11946711 11.5551693,7.049637 C11.6658879,6.53031957 11.9821907,6.33984985 11.9821907,6.33984985 C11.9821907,6.33984985 12.1394907,6.66250194 12.0310839,7.1404447 C11.9396666,7.54348434 11.7134177,7.69293961 11.6447477,7.72988573 C11.6904402,7.98307004 11.719141,8.27200189 11.7179098,8.59703475 C11.7484222,8.52270653 11.7919037,8.43846299 11.8531159,8.34433145 C12.1425874,7.89918488 12.5061397,7.83471885 12.5061397,7.83471885 C12.5061397,7.83471885 12.5373638,8.19231181 12.2648779,8.59966028 C12.0435944,8.93046458 11.7898524,8.99690404 11.7023053,9.01019255 C11.6779794,9.35361171 11.627557,9.66409637 11.5663623,9.93536598 C11.6241989,9.8580089 11.7081379,9.76979173 11.8298609,9.67481191 C12.2484871,9.34816025 12.6132207,9.40556747 12.6132207,9.40556747 C12.6132207,9.40556747 12.5263227,9.75384381 12.1360626,10.0502866 C11.8343529,10.2794663 11.5828315,10.2725347 11.4842238,10.25759 C11.3221455,10.8262248 11.1353149,11.1539001 11.1353149,11.1539001 L10.7958679,10.9836426 C10.7958679,10.9836426 11.3799133,9.97653198 11.4605103,8.62286377 C11.4624998,8.589449 11.4641184,8.55636038 11.4653832,8.52360187 C11.353945,8.52583594 11.1179586,8.49668477 10.8564102,8.25935728 C10.4934718,7.93002909 10.4372588,7.57550439 10.4372588,7.57550439 C10.4372588,7.57550439 10.8056078,7.55010424 11.1941714,7.91199857 C11.3357986,8.04390509 11.4192055,8.16005083 11.468018,8.25440098 L11.468018,8.25440098 Z" id="Combined-Shape"></path>
                    <path d="M10,19.5 L10,19.5 C15.2467051,19.5 19.5,15.2467051 19.5,10 C19.5,4.75329488 15.2467051,0.5 10,0.5 C4.75329488,0.5 0.5,4.75329488 0.5,10 C0.5,15.2467051 4.75329488,19.5 10,19.5 L10,19.5 L10,19.5 Z M10,20 L10,20 C4.4771525,20 0,15.5228475 0,10 C0,4.4771525 4.4771525,0 10,0 C15.5228475,0 20,4.4771525 20,10 C20,15.5228475 15.5228475,20 10,20 L10,20 L10,20 Z" id="earth"></path>
                </g>
            </g>
        </g>
    </g>
</svg>