<?xml version="1.0" encoding="UTF-8" standalone="no"?>
<svg width="28px" height="28px" viewBox="0 0 28 28" version="1.1" xmlns="http://www.w3.org/2000/svg" xmlns:xlink="http://www.w3.org/1999/xlink">
    <!-- Generator: sketchtool 3.7.1 (28215) - http://www.bohemiancoding.com/sketch -->
    <title>6EA355F7-1AB7-4508-A4EC-93811CC0AF6D</title>
    <desc>Created with sketchtool.</desc>
    <defs></defs>
    <g id="Styles" stroke="none" stroke-width="1" fill="none" fill-rule="evenodd">
        <g id="Forms" transform="translate(-388.000000, -1052.000000)" fill="#FFFFFF">
            <g id="socnet-white" transform="translate(380.000000, 928.000000)">
                <g id="fb_white-active" transform="translate(8.000000, 124.000000)">
                    <path d="M26.4546616,0 L1.5454433,0 C0.691677938,0 0,0.691677938 0,1.54533839 L0,26.4547665 C0,27.3082172 0.691677938,28.0001049 1.5454433,28.0001049 L14.9556864,28.0001049 L14.9556864,17.157033 L11.3067784,17.157033 L11.3067784,12.9312196 L14.9556864,12.9312196 L14.9556864,9.81483965 C14.9556864,6.19824424 17.1644816,4.22896067 20.3908083,4.22896067 C21.9361467,4.22896067 23.2643194,4.34404799 23.6515458,4.39545436 L23.6515458,8.17497649 L21.413795,8.1760256 C19.6592642,8.1760256 19.3195625,9.00975297 19.3195625,10.2332246 L19.3195625,12.9312196 L23.5040409,12.9312196 L22.9591334,17.157033 L19.3195625,17.157033 L19.3195625,28.0001049 L26.4546616,28.0001049 C27.3081122,28.0001049 28,27.3082172 28,26.4547665 L28,1.54533839 C28,0.691677938 27.3081122,0 26.4546616,0" id="fb"></path>
                </g>
            </g>
        </g>
    </g>
</svg>