<?xml version="1.0" encoding="UTF-8" standalone="no"?>
<svg width="28px" height="108px" viewBox="0 0 28 108" version="1.1" xmlns="http://www.w3.org/2000/svg" xmlns:xlink="http://www.w3.org/1999/xlink">
    <!-- Generator: sketchtool 3.7.2 (28276) - http://www.bohemiancoding.com/sketch -->
    <title>A3404413-5D09-4EF3-9EEA-BBEBFA502D1D</title>
    <desc>Created with sketchtool.</desc>
    <defs>
        <polygon id="path-1" points="0 27.9941667 28 27.9941667 28 0 0 0"></polygon>
        <polygon id="path-3" points="0 27.9941667 28 27.9941667 28 0 0 0"></polygon>
        <polygon id="path-5" points="0 27.9941667 28 27.9941667 28 0 0 0"></polygon>
    </defs>
    <g id="Styles" stroke="none" stroke-width="1" fill="none" fill-rule="evenodd">
        <g id="Forms" transform="translate(-468.000000, -972.000000)">
            <g id="socnet-white" transform="translate(380.000000, 928.000000)">
                <g id="inst_white" transform="translate(88.000000, 44.000000)">
                    <g opacity="0.54">
                        <mask id="mask-2" fill="white">
                            <use xlink:href="#path-1"></use>
                        </mask>
                        <g id="Clip-2"></g>
                        <path d="M24.8888889,7.77777778 C24.8888889,8.20730556 24.5406389,8.55555556 24.1111111,8.55555556 L20.2222222,8.55555556 C19.7926944,8.55555556 19.4444444,8.20730556 19.4444444,7.77777778 L19.4444444,3.88888889 C19.4444444,3.45936111 19.7926944,3.11111111 20.2222222,3.11111111 L24.1111111,3.11111111 C24.5406389,3.11111111 24.8888889,3.45936111 24.8888889,3.88888889 L24.8888889,7.77777778 L24.8888889,7.77777778 Z M24.8888889,24.1111111 C24.8888889,24.5406389 24.5406389,24.8888889 24.1111111,24.8888889 L3.88888889,24.8888889 C3.45936111,24.8888889 3.11111111,24.5406389 3.11111111,24.1111111 L3.11111111,11.6666667 L5.76663889,11.6666667 C5.55683333,12.408375 5.44444444,13.1911111 5.44444444,14 C5.44444444,18.7250972 9.27490278,22.5555556 14,22.5555556 C18.7250972,22.5555556 22.5555556,18.7250972 22.5555556,14 C22.5555556,13.1911111 22.4431667,12.408375 22.2333611,11.6666667 L24.8888889,11.6666667 L24.8888889,24.1111111 L24.8888889,24.1111111 Z M14,8.55555556 C17.0068889,8.55555556 19.4444444,10.9931111 19.4444444,14 C19.4444444,17.0068889 17.0068889,19.4444444 14,19.4444444 C10.9931111,19.4444444 8.55555556,17.0068889 8.55555556,14 C8.55555556,10.9931111 10.9931111,8.55555556 14,8.55555556 L14,8.55555556 Z M24.1111111,0 L3.88888889,0 C1.74115278,0 0,1.74115278 0,3.88888889 L0,24.1111111 C0,26.2588472 1.74115278,28 3.88888889,28 L24.1111111,28 C26.2588472,28 28,26.2588472 28,24.1111111 L28,3.88888889 C28,1.74115278 26.2588472,0 24.1111111,0 L24.1111111,0 Z" id="Fill-1" fill="#FFFFFF" mask="url(#mask-2)"></path>
                    </g>
                    <g id="inst_white-hover" opacity="0.7" transform="translate(0.000000, 40.000000)">
                        <mask id="mask-4" fill="white">
                            <use xlink:href="#path-3"></use>
                        </mask>
                        <g id="Clip-2"></g>
                        <path d="M24.8888889,7.77777778 C24.8888889,8.20730556 24.5406389,8.55555556 24.1111111,8.55555556 L20.2222222,8.55555556 C19.7926944,8.55555556 19.4444444,8.20730556 19.4444444,7.77777778 L19.4444444,3.88888889 C19.4444444,3.45936111 19.7926944,3.11111111 20.2222222,3.11111111 L24.1111111,3.11111111 C24.5406389,3.11111111 24.8888889,3.45936111 24.8888889,3.88888889 L24.8888889,7.77777778 L24.8888889,7.77777778 Z M24.8888889,24.1111111 C24.8888889,24.5406389 24.5406389,24.8888889 24.1111111,24.8888889 L3.88888889,24.8888889 C3.45936111,24.8888889 3.11111111,24.5406389 3.11111111,24.1111111 L3.11111111,11.6666667 L5.76663889,11.6666667 C5.55683333,12.408375 5.44444444,13.1911111 5.44444444,14 C5.44444444,18.7250972 9.27490278,22.5555556 14,22.5555556 C18.7250972,22.5555556 22.5555556,18.7250972 22.5555556,14 C22.5555556,13.1911111 22.4431667,12.408375 22.2333611,11.6666667 L24.8888889,11.6666667 L24.8888889,24.1111111 L24.8888889,24.1111111 Z M14,8.55555556 C17.0068889,8.55555556 19.4444444,10.9931111 19.4444444,14 C19.4444444,17.0068889 17.0068889,19.4444444 14,19.4444444 C10.9931111,19.4444444 8.55555556,17.0068889 8.55555556,14 C8.55555556,10.9931111 10.9931111,8.55555556 14,8.55555556 L14,8.55555556 Z M24.1111111,0 L3.88888889,0 C1.74115278,0 0,1.74115278 0,3.88888889 L0,24.1111111 C0,26.2588472 1.74115278,28 3.88888889,28 L24.1111111,28 C26.2588472,28 28,26.2588472 28,24.1111111 L28,3.88888889 C28,1.74115278 26.2588472,0 24.1111111,0 L24.1111111,0 Z" id="Fill-1" fill="#FFFFFF" mask="url(#mask-4)"></path>
                    </g>
                    <g id="inst_white-active" transform="translate(0.000000, 80.000000)">
                        <mask id="mask-6" fill="white">
                            <use xlink:href="#path-5"></use>
                        </mask>
                        <g id="Clip-2"></g>
                        <path d="M24.8888889,7.77777778 C24.8888889,8.20730556 24.5406389,8.55555556 24.1111111,8.55555556 L20.2222222,8.55555556 C19.7926944,8.55555556 19.4444444,8.20730556 19.4444444,7.77777778 L19.4444444,3.88888889 C19.4444444,3.45936111 19.7926944,3.11111111 20.2222222,3.11111111 L24.1111111,3.11111111 C24.5406389,3.11111111 24.8888889,3.45936111 24.8888889,3.88888889 L24.8888889,7.77777778 L24.8888889,7.77777778 Z M24.8888889,24.1111111 C24.8888889,24.5406389 24.5406389,24.8888889 24.1111111,24.8888889 L3.88888889,24.8888889 C3.45936111,24.8888889 3.11111111,24.5406389 3.11111111,24.1111111 L3.11111111,11.6666667 L5.76663889,11.6666667 C5.55683333,12.408375 5.44444444,13.1911111 5.44444444,14 C5.44444444,18.7250972 9.27490278,22.5555556 14,22.5555556 C18.7250972,22.5555556 22.5555556,18.7250972 22.5555556,14 C22.5555556,13.1911111 22.4431667,12.408375 22.2333611,11.6666667 L24.8888889,11.6666667 L24.8888889,24.1111111 L24.8888889,24.1111111 Z M14,8.55555556 C17.0068889,8.55555556 19.4444444,10.9931111 19.4444444,14 C19.4444444,17.0068889 17.0068889,19.4444444 14,19.4444444 C10.9931111,19.4444444 8.55555556,17.0068889 8.55555556,14 C8.55555556,10.9931111 10.9931111,8.55555556 14,8.55555556 L14,8.55555556 Z M24.1111111,0 L3.88888889,0 C1.74115278,0 0,1.74115278 0,3.88888889 L0,24.1111111 C0,26.2588472 1.74115278,28 3.88888889,28 L24.1111111,28 C26.2588472,28 28,26.2588472 28,24.1111111 L28,3.88888889 C28,1.74115278 26.2588472,0 24.1111111,0 L24.1111111,0 Z" id="Fill-1" fill="#FFFFFF" mask="url(#mask-6)"></path>
                    </g>
                </g>
            </g>
        </g>
    </g>
</svg>