<?xml version="1.0" encoding="UTF-8" standalone="no"?>
<svg width="28px" height="108px" viewBox="0 0 28 108" version="1.1" xmlns="http://www.w3.org/2000/svg" xmlns:xlink="http://www.w3.org/1999/xlink">
    <!-- Generator: sketchtool 3.8.2 (29753) - http://www.bohemiancoding.com/sketch -->
    <title>EC442632-4A0E-4E8A-BE8A-0734D8DDF957</title>
    <desc>Created with sketchtool.</desc>
    <defs>
        <polyline id="path-1" points="0 0 28 0 28 28 0 28"></polyline>
        <polyline id="path-3" points="0 0 28 0 28 28 0 28"></polyline>
        <polyline id="path-5" points="0 0 28 0 28 28 0 28"></polyline>
    </defs>
    <g id="Styles" stroke="none" stroke-width="1" fill="none" fill-rule="evenodd">
        <g id="Forms" transform="translate(-218.000000, -972.000000)">
            <g id="socnet" transform="translate(50.000000, 928.000000)">
                <g id="tw_blue" transform="translate(168.000000, 44.000000)">
                    <g id="tw" opacity="0.87">
                        <mask id="mask-2" fill="white">
                            <use xlink:href="#path-1"></use>
                        </mask>
                        <g id="Clip-2"></g>
                        <path d="M25.6147202,6.90641119 C24.7581144,7.2863017 23.8375547,7.54305353 22.8713504,7.65852798 C23.8575669,7.0673601 24.6148783,6.1313017 24.9715207,5.0159854 C24.0486618,5.56329684 23.0264234,5.96081509 21.9384428,6.17507299 C21.0671046,5.24676399 19.8257543,4.66666667 18.451983,4.66666667 C15.8140389,4.66666667 13.6753771,6.80524331 13.6753771,9.44301703 C13.6753771,9.81737226 13.7177007,10.1819343 13.7991119,10.5315085 C9.82937956,10.3323236 6.30987835,8.43074209 3.95406326,5.5409854 C3.54291971,6.24643552 3.30737226,7.06693431 3.30737226,7.94227494 C3.30737226,9.5993674 4.15069343,11.0613625 5.4323236,11.9178832 C4.6492944,11.8931022 3.91284672,11.6782482 3.26879562,11.3204988 C3.26845499,11.3404258 3.26845499,11.360438 3.26845499,11.3805353 C3.26845499,13.6947932 4.91490268,15.6253285 7.09997567,16.0640633 C6.69913625,16.173236 6.27717762,16.2315693 5.84150852,16.2315693 C5.53374696,16.2315693 5.23450122,16.2016788 4.94291971,16.1459002 C5.55069343,18.0435645 7.31465937,19.4244891 9.40478102,19.4630657 C7.77008516,20.7440998 5.71053528,21.5077129 3.47274939,21.5077129 C3.08723844,21.5077129 2.7070073,21.485146 2.33333333,21.4410341 C4.44712895,22.7962409 6.95784672,23.5869343 9.65523114,23.5869343 C18.4408273,23.5869343 23.2451095,16.3087226 23.2451095,9.99688564 C23.2451095,9.78978102 23.2405109,9.58378345 23.2313139,9.3789781 C24.1644769,8.70554745 24.9743309,7.86427007 25.6147202,6.90641119" id="Fill-1" fill="#0066B3"></path>
                    </g>
                    <g id="tw-hover" transform="translate(0.000000, 40.000000)">
                        <mask id="mask-4" fill="white">
                            <use xlink:href="#path-3"></use>
                        </mask>
                        <g id="Clip-2"></g>
                        <path d="M25.6147202,6.90641119 C24.7581144,7.2863017 23.8375547,7.54305353 22.8713504,7.65852798 C23.8575669,7.0673601 24.6148783,6.1313017 24.9715207,5.0159854 C24.0486618,5.56329684 23.0264234,5.96081509 21.9384428,6.17507299 C21.0671046,5.24676399 19.8257543,4.66666667 18.451983,4.66666667 C15.8140389,4.66666667 13.6753771,6.80524331 13.6753771,9.44301703 C13.6753771,9.81737226 13.7177007,10.1819343 13.7991119,10.5315085 C9.82937956,10.3323236 6.30987835,8.43074209 3.95406326,5.5409854 C3.54291971,6.24643552 3.30737226,7.06693431 3.30737226,7.94227494 C3.30737226,9.5993674 4.15069343,11.0613625 5.4323236,11.9178832 C4.6492944,11.8931022 3.91284672,11.6782482 3.26879562,11.3204988 C3.26845499,11.3404258 3.26845499,11.360438 3.26845499,11.3805353 C3.26845499,13.6947932 4.91490268,15.6253285 7.09997567,16.0640633 C6.69913625,16.173236 6.27717762,16.2315693 5.84150852,16.2315693 C5.53374696,16.2315693 5.23450122,16.2016788 4.94291971,16.1459002 C5.55069343,18.0435645 7.31465937,19.4244891 9.40478102,19.4630657 C7.77008516,20.7440998 5.71053528,21.5077129 3.47274939,21.5077129 C3.08723844,21.5077129 2.7070073,21.485146 2.33333333,21.4410341 C4.44712895,22.7962409 6.95784672,23.5869343 9.65523114,23.5869343 C18.4408273,23.5869343 23.2451095,16.3087226 23.2451095,9.99688564 C23.2451095,9.78978102 23.2405109,9.58378345 23.2313139,9.3789781 C24.1644769,8.70554745 24.9743309,7.86427007 25.6147202,6.90641119" id="Fill-1" fill="#0066B3"></path>
                    </g>
                    <g id="tw-active" transform="translate(0.000000, 80.000000)">
                        <mask id="mask-6" fill="white">
                            <use xlink:href="#path-5"></use>
                        </mask>
                        <g id="Clip-2"></g>
                        <path d="M25.6147202,6.90641119 C24.7581144,7.2863017 23.8375547,7.54305353 22.8713504,7.65852798 C23.8575669,7.0673601 24.6148783,6.1313017 24.9715207,5.0159854 C24.0486618,5.56329684 23.0264234,5.96081509 21.9384428,6.17507299 C21.0671046,5.24676399 19.8257543,4.66666667 18.451983,4.66666667 C15.8140389,4.66666667 13.6753771,6.80524331 13.6753771,9.44301703 C13.6753771,9.81737226 13.7177007,10.1819343 13.7991119,10.5315085 C9.82937956,10.3323236 6.30987835,8.43074209 3.95406326,5.5409854 C3.54291971,6.24643552 3.30737226,7.06693431 3.30737226,7.94227494 C3.30737226,9.5993674 4.15069343,11.0613625 5.4323236,11.9178832 C4.6492944,11.8931022 3.91284672,11.6782482 3.26879562,11.3204988 C3.26845499,11.3404258 3.26845499,11.360438 3.26845499,11.3805353 C3.26845499,13.6947932 4.91490268,15.6253285 7.09997567,16.0640633 C6.69913625,16.173236 6.27717762,16.2315693 5.84150852,16.2315693 C5.53374696,16.2315693 5.23450122,16.2016788 4.94291971,16.1459002 C5.55069343,18.0435645 7.31465937,19.4244891 9.40478102,19.4630657 C7.77008516,20.7440998 5.71053528,21.5077129 3.47274939,21.5077129 C3.08723844,21.5077129 2.7070073,21.485146 2.33333333,21.4410341 C4.44712895,22.7962409 6.95784672,23.5869343 9.65523114,23.5869343 C18.4408273,23.5869343 23.2451095,16.3087226 23.2451095,9.99688564 C23.2451095,9.78978102 23.2405109,9.58378345 23.2313139,9.3789781 C24.1644769,8.70554745 24.9743309,7.86427007 25.6147202,6.90641119" id="Fill-1" fill="#005494"></path>
                    </g>
                    <rect x="0" y="0" width="28" height="108"></rect>
                </g>
            </g>
        </g>
    </g>
</svg>