<?xml version="1.0" encoding="UTF-8" standalone="no"?>
<svg width="28px" height="28px" viewBox="0 0 28 28" version="1.1" xmlns="http://www.w3.org/2000/svg" xmlns:xlink="http://www.w3.org/1999/xlink">
    <!-- Generator: sketchtool 3.7.1 (28215) - http://www.bohemiancoding.com/sketch -->
    <title>7C344AA2-D410-489E-8F3C-247ED53F77FC</title>
    <desc>Created with sketchtool.</desc>
    <defs></defs>
    <g id="Styles" stroke="none" stroke-width="1" fill="none" fill-rule="evenodd">
        <g id="Forms" transform="translate(-428.000000, -1052.000000)" fill="#FFFFFF">
            <g id="socnet-white" transform="translate(380.000000, 928.000000)">
                <g id="vk_white-active" transform="translate(48.000000, 124.000000)">
                    <path d="M4.31415904,0.00276626506 L23.6830747,0.00276626506 C26.0656386,0.00276626506 27.9972337,1.93429398 27.9972337,4.3169253 L27.9972337,23.685841 C27.9972337,26.0684048 26.0656386,28 23.6830747,28 L4.31415904,28 C1.93152771,28 0,26.0684048 0,23.685841 L0,4.3169253 C0,1.93429398 1.93152771,0.00276626506 4.31415904,0.00276626506 Z M13.7637205,19.6016867 L14.9089542,19.6016867 C14.9089542,19.6016867 15.2548048,19.5635663 15.4316434,19.3733012 C15.5941783,19.1984193 15.5889831,18.8702458 15.5889831,18.8702458 C15.5889831,18.8702458 15.5665831,17.3335518 16.2796723,17.1072578 C16.9829108,16.8842024 17.8857253,18.5924048 18.8425831,19.2492916 C19.5661976,19.7462072 20.1160771,19.6374458 20.1160771,19.6374458 L22.6748723,19.6016867 C22.6748723,19.6016867 24.0133398,19.5191036 23.3786506,18.4667084 C23.3266988,18.3807518 23.0089157,17.688241 21.4760675,16.2654361 C19.8714988,14.776241 20.0865928,15.0171759 22.0192675,12.4412434 C23.1962795,10.8725012 23.666747,9.91483373 23.5197301,9.50468434 C23.3796627,9.1138988 22.5138892,9.21712771 22.5138892,9.21712771 L19.6329253,9.23493976 C19.6329253,9.23493976 19.4191807,9.20586024 19.2608964,9.30058795 C19.106053,9.3932241 19.0066699,9.60966747 19.0066699,9.60966747 C19.0066699,9.60966747 18.550506,10.8235181 17.9426024,11.8560096 C16.6597301,14.0343422 16.1466892,14.1496482 15.9369928,14.0141687 C15.4491181,13.6988819 15.5710361,12.7478265 15.5710361,12.0719807 C15.5710361,9.96084819 15.8912482,9.08063614 14.9474795,8.85279036 C14.6343518,8.7772241 14.4036723,8.72722892 13.6027373,8.71906506 C12.5746988,8.70860723 11.7048096,8.72223614 11.2121446,8.9635759 C10.8843759,9.12408675 10.6314988,9.48167711 10.7856,9.50225542 C10.9760675,9.5276241 11.4072,9.61864096 11.635788,9.92967711 C11.9311036,10.3314602 11.9207807,11.2333976 11.9207807,11.2333976 C11.9207807,11.2333976 12.0904675,13.7185157 11.5245976,14.0271229 C11.1363084,14.2388434 10.6035663,13.8066313 9.45981687,11.8303036 C8.87390843,10.8179855 8.43137349,9.69886265 8.43137349,9.69886265 C8.43137349,9.69886265 8.34615904,9.48977349 8.19394699,9.37784096 C8.0093494,9.24222651 7.75141205,9.19924819 7.75141205,9.19924819 L5.01361928,9.21712771 C5.01361928,9.21712771 4.60272771,9.22859759 4.45173012,9.4073253 C4.31739759,9.56641928 4.44100241,9.89506506 4.44100241,9.89506506 C4.44100241,9.89506506 6.5842506,14.9095614 9.01127711,17.4365783 C11.236906,19.7537639 13.7637205,19.6016867 13.7637205,19.6016867 Z" id="Combined-Shape"></path>
                </g>
            </g>
        </g>
    </g>
</svg>