<svg width="28" height="28" viewBox="0 0 28 28" xmlns="http://www.w3.org/2000/svg"><title>C0708156-3A66-41FF-B13B-5826FAB8D1A5</title><path d="M0 3.997A4 4 0 0 1 3.997 0h20.006A4 4 0 0 1 28 3.997v20.006A4 4 0 0 1 24.003 28H3.997A4 4 0 0 1 0 24.003V3.997zm11.931 12.637l-.001-5.617 5.401 2.818-5.4 2.799zm11.859-6.59s-.196-1.377-.795-1.984c-.76-.796-1.612-.8-2.003-.846C18.195 7.01 14 7.01 14 7.01h-.009s-4.196 0-6.993.203c-.39.046-1.242.05-2.003.846-.6.607-.794 1.984-.794 1.984S4 11.662 4 13.28v1.517c0 1.618.2 3.235.2 3.235s.195 1.378.794 1.984c.76.796 1.76.771 2.204.855 1.6.153 6.797.2 6.797.2s4.2-.006 6.997-.208c.39-.047 1.243-.05 2.003-.847.6-.606.795-1.984.795-1.984s.2-1.617.2-3.235v-1.517c0-1.617-.2-3.235-.2-3.235z" fill="#FFF" fill-rule="evenodd" opacity=".7"/></svg>