<?xml version="1.0" encoding="UTF-8" standalone="no"?>
<svg width="18px" height="18px" viewBox="0 0 18 18" version="1.1" xmlns="http://www.w3.org/2000/svg" xmlns:xlink="http://www.w3.org/1999/xlink">
    <!-- Generator: sketchtool 3.7.2 (28276) - http://www.bohemiancoding.com/sketch -->
    <title>33E9B4AF-44C8-4B53-9373-8A318F03A10C</title>
    <desc>Created with sketchtool.</desc>
    <defs></defs>
    <g id="Styles" stroke="none" stroke-width="1" fill="none" fill-rule="evenodd" opacity="0.27">
        <g id="Forms" transform="translate(-1043.000000, -1239.000000)">
            <g id="check-off" transform="translate(1040.000000, 1236.000000)">
                <rect id="24x24" x="0" y="0" width="24" height="24"></rect>
                <path d="M19,5 L19,19 L5,19 L5,5 L19,5 L19,5 Z M19,3 L5,3 C3.9,3 3,3.9 3,5 L3,19 C3,20.1 3.9,21 5,21 L19,21 C20.1,21 21,20.1 21,19 L21,5 C21,3.9 20.1,3 19,3 L19,3 L19,3 Z" id="Shape" fill="#010101"></path>
            </g>
        </g>
    </g>
</svg>