<?xml version="1.0" encoding="UTF-8" standalone="no"?>
<svg width="18px" height="18px" viewBox="0 0 18 18" version="1.1" xmlns="http://www.w3.org/2000/svg" xmlns:xlink="http://www.w3.org/1999/xlink">
    <!-- Generator: sketchtool 3.8.2 (29753) - http://www.bohemiancoding.com/sketch -->
    <title>A6419AAA-44C5-430F-A355-D257BBD40371</title>
    <desc>Created with sketchtool.</desc>
    <defs></defs>
    <g id="320" stroke="none" stroke-width="1" fill="none" fill-rule="evenodd" opacity="0.54">
        <g id="320_rsc_v2_053_message" transform="translate(-19.000000, -1095.000000)">
            <g id="content" transform="translate(16.000000, 135.000000)">
                <g id="checkbox" transform="translate(0.000000, 957.000000)">
                    <g id="check-off">
                        <rect id="24x24" x="0" y="0" width="24" height="24"></rect>
                        <path d="M19,5 L19,19 L5,19 L5,5 L19,5 L19,5 Z M19,3 L5,3 C3.9,3 3,3.9 3,5 L3,19 C3,20.1 3.9,21 5,21 L19,21 C20.1,21 21,20.1 21,19 L21,5 C21,3.9 20.1,3 19,3 L19,3 L19,3 Z" id="Shape" fill="#010101"></path>
                    </g>
                </g>
            </g>
        </g>
    </g>
</svg>