<?xml version="1.0" encoding="UTF-8" standalone="no"?>
<svg width="20px" height="20px" viewBox="0 0 20 20" version="1.1" xmlns="http://www.w3.org/2000/svg" xmlns:xlink="http://www.w3.org/1999/xlink">
    <!-- Generator: sketchtool 3.7.1 (28215) - http://www.bohemiancoding.com/sketch -->
    <title>064DFBF3-8F4E-4B9B-9901-07AD46BC8A5E</title>
    <desc>Created with sketchtool.</desc>
    <defs></defs>
    <g id="Styles" stroke="none" stroke-width="1" fill="none" fill-rule="evenodd">
        <g id="Forms" transform="translate(-382.000000, -666.000000)">
            <g id="radio" transform="translate(380.000000, 664.000000)">
                <g id="radio-off">
                    <g>
                        <rect id="bounds" x="0" y="0" width="24" height="24"></rect>
                        <path d="M12,2 C6.5,2 2,6.5 2,12 C2,17.5 6.5,22 12,22 C17.5,22 22,17.5 22,12 C22,6.5 17.5,2 12,2 L12,2 Z M12,20 C7.6,20 4,16.4 4,12 C4,7.6 7.6,4 12,4 C16.4,4 20,7.6 20,12 C20,16.4 16.4,20 12,20 L12,20 Z" id="Shape" fill="#010101" opacity="0.26"></path>
                    </g>
                </g>
            </g>
        </g>
    </g>
</svg>