<?xml version="1.0" encoding="UTF-8" standalone="no"?>
<svg width="28px" height="28px" viewBox="0 0 28 28" version="1.1" xmlns="http://www.w3.org/2000/svg" xmlns:xlink="http://www.w3.org/1999/xlink">
    <!-- Generator: sketchtool 3.7.1 (28215) - http://www.bohemiancoding.com/sketch -->
    <title>2DD76929-DA25-4AC7-AC62-921555A17AFE</title>
    <desc>Created with sketchtool.</desc>
    <defs></defs>
    <g id="Styles" stroke="none" stroke-width="1" fill="none" fill-rule="evenodd">
        <g id="Forms" transform="translate(-178.000000, -1052.000000)" fill="#005494">
            <g id="socnet" transform="translate(50.000000, 928.000000)">
                <g id="yt-active" transform="translate(128.000000, 124.000000)">
                    <path d="M0,3.99683887 C0,1.78944571 1.79412025,0 3.99683887,0 L24.0031611,0 C26.2105543,0 28,1.79412025 28,3.99683887 L28,24.0031611 C28,26.2105543 26.2058797,28 24.0031611,28 L3.99683887,28 C1.78944571,28 0,26.2058797 0,24.0031611 L0,3.99683887 Z M11.9309589,16.6336791 L11.9300391,11.0172407 L17.3312133,13.8352446 L11.9309589,16.6336791 L11.9309589,16.6336791 Z M23.7896282,10.0442661 C23.7896282,10.0442661 23.5943249,8.66679061 22.9949511,8.06019569 C22.2348337,7.26405088 21.382818,7.26009785 20.9920939,7.21350294 C18.1948924,7.01129159 13.9989432,7.01129159 13.9989432,7.01129159 L13.9902544,7.01129159 C13.9902544,7.01129159 9.79440313,7.01129159 6.99710372,7.21350294 C6.60636008,7.26009785 5.75465753,7.26405088 4.99426614,8.06019569 C4.39493151,8.66679061 4.19990215,10.0442661 4.19990215,10.0442661 C4.19990215,10.0442661 4,11.6618787 4,13.2794716 L4,14.7959687 C4,16.4135421 4.19990215,18.031135 4.19990215,18.031135 C4.19990215,18.031135 4.39493151,19.4086301 4.99426614,20.015225 C5.75465753,20.8113894 6.75348337,20.7862035 7.19835616,20.8696477 C8.79751468,21.0229941 13.9946184,21.0704501 13.9946184,21.0704501 C13.9946184,21.0704501 18.1948924,21.0641292 20.9920939,20.8619374 C21.382818,20.8153229 22.2348337,20.8113894 22.9949511,20.015225 C23.5943249,19.4086301 23.7896282,18.031135 23.7896282,18.031135 C23.7896282,18.031135 23.9892368,16.4135421 23.9892368,14.7959687 L23.9892368,13.2794716 C23.9892368,11.6618787 23.7896282,10.0442661 23.7896282,10.0442661 L23.7896282,10.0442661 Z" id="Fill-3"></path>
                </g>
            </g>
        </g>
    </g>
</svg>